LibreCaslonText-Italic.ufo
<glyph name="numbersign" format="1">
  <advance width="667"/>
  <unicode hex="0023"/>
  <outline>
    <contour>
      <point x="555" y="696" type="line" name="hr00"/>
      <point x="494" y="525" type="line"/>
      <point x="346" y="525" type="line"/>
      <point x="406" y="696" type="line"/>
      <point x="348" y="696" type="line"/>
      <point x="287" y="525" type="line"/>
      <point x="151" y="525" type="line"/>
      <point x="128" y="469" type="line"/>
      <point x="268" y="469" type="line"/>
      <point x="215" y="318" type="line"/>
      <point x="75" y="318" type="line"/>
      <point x="51" y="262" type="line"/>
      <point x="195" y="262" type="line"/>
      <point x="136" y="92" type="line"/>
      <point x="194" y="92" type="line"/>
      <point x="254" y="262" type="line"/>
      <point x="402" y="262" type="line"/>
      <point x="343" y="92" type="line"/>
      <point x="400" y="92" type="line"/>
      <point x="460" y="262" type="line"/>
      <point x="594" y="262" type="line"/>
      <point x="619" y="318" type="line"/>
      <point x="479" y="318" type="line"/>
      <point x="532" y="469" type="line"/>
      <point x="672" y="469" type="line"/>
      <point x="695" y="525" type="line"/>
      <point x="552" y="525" type="line"/>
      <point x="612" y="696" type="line"/>
    </contour>
    <contour>
      <point x="326" y="469" type="line"/>
      <point x="475" y="469" type="line"/>
      <point x="422" y="318" type="line"/>
      <point x="273" y="318" type="line"/>
    </contour>
  </outline>
</glyph>
<glyph name="parenleft" format="1">
  <advance width="318"/>
  <unicode hex="0028"/>
  <outline>
    <contour>
      <point x="97" y="-200" type="line"/>
      <point x="58" y="-141"/>
      <point x="18" y="-52"/>
      <point x="18" y="75" type="curve" smooth="yes"/>
      <point x="18" y="358"/>
      <point x="223" y="679"/>
      <point x="449" y="830" type="curve"/>
      <point x="457" y="820" type="line"/>
      <point x="258" y="608"/>
      <point x="93" y="276"/>
      <point x="93" y="-12" type="curve" smooth="yes"/>
      <point x="93" y="-91"/>
      <point x="106" y="-149"/>
      <point x="117" y="-187" type="curve"/>
    </contour>
  </outline>
</glyph>
<glyph name="asterisk" format="1">
  <advance width="487"/>
  <unicode hex="002A"/>
  <outline>
    <contour>
      <point x="383" y="612" type="line"/>
      <point x="379" y="578" type="line" smooth="yes"/>
      <point x="374" y="533"/>
      <point x="378" y="498"/>
      <point x="371" y="472" type="curve" smooth="yes"/>
      <point x="365" y="449"/>
      <point x="347" y="432"/>
      <point x="323" y="432" type="curve" smooth="yes"/>
      <point x="305" y="432"/>
      <point x="295" y="442"/>
      <point x="295" y="458" type="curve" smooth="yes"/>
      <point x="295" y="491"/>
      <point x="330" y="531"/>
      <point x="349" y="579" type="curve" smooth="yes"/>
      <point x="362" y="612" type="line"/>
      <point x="328" y="591" type="line" smooth="yes"/>
      <point x="278" y="560"/>
      <point x="248" y="514"/>
      <point x="208" y="514" type="curve" smooth="yes"/>
      <point x="187" y="514"/>
      <point x="176" y="525"/>
      <point x="176" y="541" type="curve" smooth="yes"/>
      <point x="177" y="599"/>
      <point x="253" y="590"/>
      <point x="323" y="618" type="curve" smooth="yes"/>
      <point x="356" y="631" type="line"/>
      <point x="328" y="644" type="line" smooth="yes"/>
      <point x="281" y="666"/>
      <point x="219" y="661"/>
      <point x="219" y="696" type="curve" smooth="yes"/>
      <point x="219" y="723"/>
      <point x="243" y="747"/>
      <point x="273" y="747" type="curve" smooth="yes"/>
      <point x="313" y="747"/>
      <point x="315" y="702"/>
      <point x="351" y="669" type="curve" smooth="yes"/>
      <point x="372" y="650" type="line"/>
      <point x="377" y="684" type="line" smooth="yes"/>
      <point x="379" y="696"/>
      <point x="379" y="707"/>
      <point x="379" y="716" type="curve" smooth="yes"/>
      <point x="379" y="730"/>
      <point x="378" y="742"/>
      <point x="378" y="754" type="curve" smooth="yes"/>
      <point x="378" y="806"/>
      <point x="407" y="830"/>
      <point x="433" y="830" type="curve" smooth="yes"/>
      <point x="448" y="830"/>
      <point x="460" y="821"/>
      <point x="460" y="803" type="curve" smooth="yes"/>
      <point x="459" y="761"/>
      <point x="426" y="736"/>
      <point x="406" y="682" type="curve" smooth="yes"/>
      <point x="394" y="650" type="line"/>
      <point x="424" y="670" type="line" smooth="yes"/>
      <point x="485" y="710"/>
      <point x="508" y="748"/>
      <point x="546" y="748" type="curve" smooth="yes"/>
      <point x="568" y="748"/>
      <point x="578" y="736"/>
      <point x="578" y="720" type="curve" smooth="yes"/>
      <point x="578" y="660"/>
      <point x="500" y="671"/>
      <point x="433" y="645" type="curve" smooth="yes"/>
      <point x="399" y="632" type="line"/>
      <point x="424" y="619" type="line" smooth="yes"/>
      <point x="474" y="593"/>
      <point x="535" y="599"/>
      <point x="535" y="565" type="curve" smooth="yes"/>
      <point x="535" y="535"/>
      <point x="507" y="515"/>
      <point x="481" y="515" type="curve" smooth="yes"/>
      <point x="441" y="515"/>
      <point x="436" y="561"/>
      <point x="404" y="592" type="curve" smooth="yes"/>
    </contour>
  </outline>
</glyph>
<glyph name="zero" format="1">
  <advance width="645"/>
  <unicode hex="0030"/>
  <outline>
    <contour>
      <point x="210" y="-10" type="curve" smooth="yes"/>
      <point x="116" y="-10"/>
      <point x="74" y="50"/>
      <point x="74" y="183" type="curve" smooth="yes"/>
      <point x="74" y="482"/>
      <point x="286" y="780"/>
      <point x="498" y="780" type="curve" smooth="yes"/>
      <point x="598" y="780"/>
      <point x="648" y="714"/>
      <point x="648" y="582" type="curve" smooth="yes"/>
      <point x="648" y="297"/>
      <point x="421" y="-10"/>
    </contour>
    <contour>
      <point x="234" y="31" type="curve" smooth="yes"/>
      <point x="361" y="31"/>
      <point x="544" y="384"/>
      <point x="544" y="628" type="curve" smooth="yes"/>
      <point x="544" y="703"/>
      <point x="525" y="738"/>
      <point x="485" y="738" type="curve" smooth="yes"/>
      <point x="359" y="738"/>
      <point x="176" y="383"/>
      <point x="176" y="139" type="curve" smooth="yes"/>
      <point x="176" y="65"/>
      <point x="194" y="31"/>
    </contour>
  </outline>
</glyph>
<glyph name="two" format="1">
  <advance width="607"/>
  <unicode hex="0032"/>
  <outline>
    <contour>
      <point x="405" y="91" type="line"/>
      <point x="444" y="130"/>
      <point x="469" y="161"/>
      <point x="491" y="204" type="curve"/>
      <point x="523" y="204" type="line"/>
      <point x="441" y="0" type="line"/>
      <point x="16" y="0" type="line"/>
      <point x="105" y="328"/>
      <point x="494" y="473"/>
      <point x="494" y="656" type="curve" smooth="yes"/>
      <point x="494" y="703"/>
      <point x="468" y="733"/>
      <point x="421" y="733" type="curve" smooth="yes"/>
      <point x="338" y="733"/>
      <point x="247" y="678"/>
      <point x="182" y="591" type="curve"/>
      <point x="153" y="611" type="line"/>
      <point x="236" y="721"/>
      <point x="329" y="780"/>
      <point x="451" y="780" type="curve" smooth="yes"/>
      <point x="554" y="780"/>
      <point x="608" y="735"/>
      <point x="608" y="651" type="curve" smooth="yes"/>
      <point x="608" y="432"/>
      <point x="240" y="360"/>
      <point x="102" y="91" type="curve"/>
    </contour>
  </outline>
</glyph>
<glyph name="three" format="1">
  <advance width="593"/>
  <unicode hex="0033"/>
  <outline>
    <contour>
      <point x="193" y="390" type="line"/>
      <point x="361" y="447"/>
      <point x="477" y="554"/>
      <point x="477" y="650" type="curve" smooth="yes"/>
      <point x="477" y="700"/>
      <point x="445" y="733"/>
      <point x="397" y="733" type="curve" smooth="yes"/>
      <point x="333" y="733"/>
      <point x="261" y="683"/>
      <point x="195" y="593" type="curve"/>
      <point x="166" y="614" type="line"/>
      <point x="244" y="724"/>
      <point x="334" y="780"/>
      <point x="432" y="780" type="curve" smooth="yes"/>
      <point x="523" y="780"/>
      <point x="578" y="735"/>
      <point x="578" y="660" type="curve" smooth="yes"/>
      <point x="578" y="584"/>
      <point x="523" y="516"/>
      <point x="398" y="440" type="curve"/>
      <point x="466" y="427"/>
      <point x="510" y="366"/>
      <point x="510" y="285" type="curve" smooth="yes"/>
      <point x="510" y="129"/>
      <point x="349" y="-10"/>
      <point x="166" y="-10" type="curve" smooth="yes"/>
      <point x="71" y="-10"/>
      <point x="-1" y="29"/>
      <point x="-1" y="81" type="curve" smooth="yes"/>
      <point x="-1" y="110"/>
      <point x="22" y="131"/>
      <point x="54" y="131" type="curve" smooth="yes"/>
      <point x="125" y="131"/>
      <point x="84" y="34"/>
      <point x="199" y="34" type="curve" smooth="yes"/>
      <point x="311" y="34"/>
      <point x="396" y="129"/>
      <point x="396" y="253" type="curve" smooth="yes"/>
      <point x="396" y="334"/>
      <point x="361" y="379"/>
      <point x="297" y="379" type="curve" smooth="yes"/>
      <point x="268" y="379"/>
      <point x="229" y="371"/>
      <point x="204" y="359" type="curve"/>
    </contour>
  </outline>
</glyph>
<glyph name="five" format="1">
  <advance width="543"/>
  <unicode hex="0035"/>
  <outline>
    <contour>
      <point x="247" y="757" type="line"/>
      <point x="499" y="757" type="line"/>
      <point x="525" y="797" type="line"/>
      <point x="547" y="790" type="line"/>
      <point x="508" y="667" type="line"/>
      <point x="258" y="667" type="line"/>
      <point x="191" y="476" type="line"/>
      <point x="216" y="480"/>
      <point x="257" y="483"/>
      <point x="292" y="483" type="curve" smooth="yes"/>
      <point x="414" y="483"/>
      <point x="486" y="414"/>
      <point x="486" y="298" type="curve" smooth="yes"/>
      <point x="486" y="130"/>
      <point x="336" y="-10"/>
      <point x="154" y="-10" type="curve" smooth="yes"/>
      <point x="63" y="-10"/>
      <point x="3" y="25"/>
      <point x="3" y="79" type="curve" smooth="yes"/>
      <point x="3" y="110"/>
      <point x="23" y="131"/>
      <point x="55" y="131" type="curve" smooth="yes"/>
      <point x="123" y="131"/>
      <point x="95" y="34"/>
      <point x="189" y="34" type="curve" smooth="yes"/>
      <point x="286" y="34"/>
      <point x="370" y="138"/>
      <point x="370" y="256" type="curve" smooth="yes"/>
      <point x="370" y="342"/>
      <point x="326" y="388"/>
      <point x="238" y="388" type="curve" smooth="yes"/>
      <point x="196" y="388"/>
      <point x="155" y="381"/>
      <point x="127" y="372" type="curve"/>
      <point x="115" y="382" type="line"/>
    </contour>
  </outline>
</glyph>
<glyph name="nine" format="1">
  <advance width="578"/>
  <unicode hex="0039"/>
  <outline>
    <contour>
      <point x="81" y="16" type="line"/>
      <point x="211" y="66"/>
      <point x="343" y="181"/>
      <point x="418" y="309" type="curve"/>
      <point x="415" y="312" type="line"/>
      <point x="382" y="289"/>
      <point x="332" y="271"/>
      <point x="284" y="271" type="curve" smooth="yes"/>
      <point x="177" y="271"/>
      <point x="122" y="323"/>
      <point x="122" y="424" type="curve" smooth="yes"/>
      <point x="122" y="600"/>
      <point x="292" y="780"/>
      <point x="454" y="780" type="curve" smooth="yes"/>
      <point x="549" y="780"/>
      <point x="598" y="718"/>
      <point x="598" y="599" type="curve" smooth="yes"/>
      <point x="598" y="329"/>
      <point x="386" y="83"/>
      <point x="91" y="-10" type="curve"/>
    </contour>
    <contour>
      <point x="430" y="737" type="curve" smooth="yes"/>
      <point x="336" y="737"/>
      <point x="234" y="555"/>
      <point x="234" y="414" type="curve" smooth="yes"/>
      <point x="234" y="348"/>
      <point x="259" y="315"/>
      <point x="309" y="315" type="curve" smooth="yes"/>
      <point x="411" y="315"/>
      <point x="496" y="457"/>
      <point x="496" y="627" type="curve" smooth="yes"/>
      <point x="496" y="704"/>
      <point x="478" y="737"/>
    </contour>
  </outline>
</glyph>
<glyph name="colon" format="1">
  <advance width="327"/>
  <unicode hex="003A"/>
  <outline>
    <contour>
      <point x="88" y="137" type="curve" smooth="yes"/>
      <point x="128" y="137"/>
      <point x="163" y="109"/>
      <point x="163" y="72" type="curve" smooth="yes"/>
      <point x="163" y="30"/>
      <point x="119" y="-10"/>
      <point x="75" y="-10" type="curve" smooth="yes"/>
      <point x="30" y="-10"/>
      <point x="2" y="17"/>
      <point x="2" y="57" type="curve" smooth="yes"/>
      <point x="2" y="101"/>
      <point x="43" y="137"/>
    </contour>
    <contour>
      <point x="207" y="501" type="curve" smooth="yes"/>
      <point x="247" y="501"/>
      <point x="282" y="473"/>
      <point x="282" y="436" type="curve" smooth="yes"/>
      <point x="282" y="394"/>
      <point x="238" y="354"/>
      <point x="194" y="354" type="curve" smooth="yes"/>
      <point x="149" y="354"/>
      <point x="121" y="381"/>
      <point x="121" y="421" type="curve" smooth="yes"/>
      <point x="121" y="465"/>
      <point x="162" y="501"/>
    </contour>
  </outline>
</glyph>
<glyph name="semicolon" format="1">
  <advance width="331"/>
  <unicode hex="003B"/>
  <outline>
    <contour>
      <point x="209" y="501" type="curve" smooth="yes"/>
      <point x="249" y="501"/>
      <point x="284" y="473"/>
      <point x="284" y="436" type="curve" smooth="yes"/>
      <point x="284" y="394"/>
      <point x="240" y="354"/>
      <point x="196" y="354" type="curve" smooth="yes"/>
      <point x="151" y="354"/>
      <point x="123" y="381"/>
      <point x="123" y="421" type="curve" smooth="yes"/>
      <point x="123" y="465"/>
      <point x="164" y="501"/>
    </contour>
    <contour>
      <point x="61" y="0" type="curve" smooth="yes"/>
      <point x="23" y="7"/>
      <point x="4" y="28"/>
      <point x="4" y="64" type="curve" smooth="yes"/>
      <point x="4" y="109"/>
      <point x="34" y="137"/>
      <point x="80" y="137" type="curve" smooth="yes"/>
      <point x="131" y="137"/>
      <point x="160" y="104"/>
      <point x="160" y="45" type="curve" smooth="yes"/>
      <point x="160" y="-36"/>
      <point x="107" y="-116"/>
      <point x="5" y="-186" type="curve"/>
      <point x="-13" y="-165" type="line"/>
      <point x="45" y="-123"/>
      <point x="96" y="-55"/>
      <point x="96" y="-21" type="curve" smooth="yes"/>
      <point x="96" y="-8"/>
      <point x="93" y="-6"/>
    </contour>
  </outline>
</glyph>
<glyph name="greater" format="1">
  <advance width="582"/>
  <unicode hex="003E"/>
  <outline>
    <contour>
      <point x="547" y="315" type="line"/>
      <point x="547" y="366" type="line"/>
      <point x="138" y="561" type="line"/>
      <point x="138" y="495" type="line"/>
      <point x="475" y="341" type="line"/>
      <point x="475" y="337" type="line"/>
      <point x="138" y="181" type="line"/>
      <point x="138" y="121" type="line"/>
    </contour>
  </outline>
</glyph>
<glyph name="question" format="1">
  <advance width="483"/>
  <unicode hex="003F"/>
  <outline>
    <contour>
      <point x="184" y="-10" type="curve" smooth="yes"/>
      <point x="149" y="-10"/>
      <point x="121" y="15"/>
      <point x="121" y="48" type="curve" smooth="yes"/>
      <point x="121" y="84"/>
      <point x="156" y="115"/>
      <point x="196" y="115" type="curve" smooth="yes"/>
      <point x="231" y="115"/>
      <point x="255" y="91"/>
      <point x="255" y="58" type="curve" smooth="yes"/>
      <point x="255" y="21"/>
      <point x="223" y="-10"/>
    </contour>
    <contour>
      <point x="331" y="194" type="line"/>
      <point x="240" y="196"/>
      <point x="192" y="238"/>
      <point x="192" y="307" type="curve" smooth="yes"/>
      <point x="192" y="456"/>
      <point x="461" y="511"/>
      <point x="461" y="665" type="curve" smooth="yes"/>
      <point x="461" y="713"/>
      <point x="430" y="747"/>
      <point x="386" y="747" type="curve" smooth="yes"/>
      <point x="323" y="747"/>
      <point x="325" y="659"/>
      <point x="260" y="659" type="curve" smooth="yes"/>
      <point x="234" y="659"/>
      <point x="216" y="677"/>
      <point x="216" y="703" type="curve" smooth="yes"/>
      <point x="216" y="748"/>
      <point x="276" y="780"/>
      <point x="362" y="780" type="curve" smooth="yes"/>
      <point x="472" y="780"/>
      <point x="538" y="727"/>
      <point x="538" y="637" type="curve" smooth="yes"/>
      <point x="538" y="458"/>
      <point x="274" y="412"/>
      <point x="274" y="289" type="curve" smooth="yes"/>
      <point x="274" y="250"/>
      <point x="299" y="224"/>
      <point x="336" y="222" type="curve"/>
    </contour>
  </outline>
</glyph>
<glyph name="at" format="1">
  <advance width="920"/>
  <unicode hex="0040"/>
  <outline>
    <contour>
      <point x="648" y="-123" type="line"/>
      <point x="590" y="-158"/>
      <point x="520" y="-178"/>
      <point x="426" y="-178" type="curve" smooth="yes"/>
      <point x="238" y="-178"/>
      <point x="42" y="-71"/>
      <point x="42" y="169" type="curve" smooth="yes"/>
      <point x="42" y="437"/>
      <point x="257" y="610"/>
      <point x="492" y="610" type="curve" smooth="yes"/>
      <point x="703" y="610"/>
      <point x="828" y="466"/>
      <point x="828" y="314" type="curve" smooth="yes"/>
      <point x="828" y="156"/>
      <point x="730" y="21"/>
      <point x="597" y="21" type="curve" smooth="yes"/>
      <point x="538" y="21"/>
      <point x="502" y="52"/>
      <point x="502" y="107" type="curve" smooth="yes"/>
      <point x="502" y="114"/>
      <point x="504" y="122"/>
      <point x="507" y="127" type="curve"/>
      <point x="503" y="128" type="line"/>
      <point x="452" y="52"/>
      <point x="399" y="34"/>
      <point x="350" y="34" type="curve" smooth="yes"/>
      <point x="280" y="34"/>
      <point x="238" y="80"/>
      <point x="238" y="164" type="curve" smooth="yes"/>
      <point x="238" y="273"/>
      <point x="364" y="450"/>
      <point x="502" y="450" type="curve" smooth="yes"/>
      <point x="533" y="450"/>
      <point x="562" y="433"/>
      <point x="575" y="411" type="curve"/>
      <point x="579" y="411" type="line"/>
      <point x="590" y="450" type="line"/>
      <point x="670" y="450" type="line"/>
      <point x="589" y="160" type="line" smooth="yes"/>
      <point x="584" y="144"/>
      <point x="582" y="130"/>
      <point x="582" y="119" type="curve" smooth="yes"/>
      <point x="582" y="87"/>
      <point x="598" y="71"/>
      <point x="630" y="71" type="curve" smooth="yes"/>
      <point x="700" y="71"/>
      <point x="778" y="154"/>
      <point x="778" y="309" type="curve" smooth="yes"/>
      <point x="778" y="466"/>
      <point x="650" y="565"/>
      <point x="482" y="565" type="curve" smooth="yes"/>
      <point x="264" y="565"/>
      <point x="133" y="376"/>
      <point x="133" y="170" type="curve" smooth="yes"/>
      <point x="133" y="38"/>
      <point x="210" y="-134"/>
      <point x="460" y="-134" type="curve" smooth="yes"/>
      <point x="542" y="-134"/>
      <point x="597" y="-118"/>
      <point x="637" y="-94" type="curve"/>
    </contour>
    <contour>
      <point x="379" y="89" type="curve" smooth="yes"/>
      <point x="457" y="89"/>
      <point x="546" y="248"/>
      <point x="546" y="351" type="curve" smooth="yes"/>
      <point x="546" y="383"/>
      <point x="535" y="407"/>
      <point x="503" y="407" type="curve" smooth="yes"/>
      <point x="432" y="407"/>
      <point x="325" y="251"/>
      <point x="325" y="160" type="curve" smooth="yes"/>
      <point x="325" y="109"/>
      <point x="342" y="89"/>
    </contour>
  </outline>
</glyph>
<glyph name="A" format="1">
  <advance width="748"/>
  <unicode hex="0041"/>
  <outline>
    <contour>
      <point x="640" y="793" type="line"/>
      <point x="549" y="92" type="line" smooth="yes"/>
      <point x="548" y="86"/>
      <point x="548" y="80"/>
      <point x="548" y="75" type="curve" smooth="yes"/>
      <point x="549" y="40"/>
      <point x="571" y="32"/>
      <point x="633" y="28" type="curve"/>
      <point x="619" y="0" type="line"/>
      <point x="311" y="0" type="line"/>
      <point x="325" y="28" type="line"/>
      <point x="401" y="29"/>
      <point x="433" y="43"/>
      <point x="442" y="105" type="curve" smooth="yes"/>
      <point x="467" y="286" type="line"/>
      <point x="230" y="286" type="line"/>
      <point x="101" y="137" type="line" smooth="yes"/>
      <point x="70" y="101"/>
      <point x="61" y="87"/>
      <point x="61" y="69" type="curve" smooth="yes"/>
      <point x="62" y="48"/>
      <point x="87" y="36"/>
      <point x="146" y="28" type="curve"/>
      <point x="133" y="0" type="line"/>
      <point x="-145" y="0" type="line"/>
      <point x="-131" y="28" type="line"/>
      <point x="-36" y="42"/>
      <point x="-6" y="65"/>
      <point x="58" y="139" type="curve" smooth="yes"/>
      <point x="521" y="677" type="line"/>
      <point x="532" y="770" type="line"/>
    </contour>
    <contour>
      <point x="514" y="614" type="line"/>
      <point x="262" y="323" type="line"/>
      <point x="472" y="323" type="line"/>
    </contour>
    <contour>
      <point x="605" y="830" type="move" name="topcap"/>
    </contour>
    <contour>
      <point x="447" y="0" type="move" name="bottom"/>
    </contour>
  </outline>
</glyph>
<glyph name="B" format="1">
  <advance width="715"/>
  <unicode hex="0042"/>
  <outline>
    <contour>
      <point x="243" y="38" type="curve" smooth="yes"/>
      <point x="418" y="38"/>
      <point x="511" y="114"/>
      <point x="511" y="251" type="curve" smooth="yes"/>
      <point x="511" y="346"/>
      <point x="461" y="389"/>
      <point x="359" y="389" type="curve" smooth="yes"/>
      <point x="287" y="389" type="line"/>
      <point x="183" y="135" type="line" smooth="yes"/>
      <point x="171" y="106"/>
      <point x="166" y="87"/>
      <point x="166" y="74" type="curve" smooth="yes"/>
      <point x="166" y="48"/>
      <point x="187" y="38"/>
    </contour>
    <contour>
      <point x="397" y="429" type="line" smooth="yes"/>
      <point x="538" y="429"/>
      <point x="620" y="498"/>
      <point x="620" y="612" type="curve" smooth="yes"/>
      <point x="620" y="692"/>
      <point x="576" y="729"/>
      <point x="491" y="729" type="curve" smooth="yes"/>
      <point x="430" y="729" type="line"/>
      <point x="304" y="429" type="line"/>
    </contour>
    <contour>
      <point x="-52" y="28" type="line"/>
      <point x="36" y="47" type="line"/>
      <point x="318" y="723" type="line"/>
      <point x="240" y="742" type="line"/>
      <point x="251" y="770" type="line"/>
      <point x="491" y="770" type="line" smooth="yes"/>
      <point x="633" y="770"/>
      <point x="724" y="710"/>
      <point x="724" y="613" type="curve" smooth="yes"/>
      <point x="724" y="512"/>
      <point x="626" y="421"/>
      <point x="494" y="401" type="curve"/>
      <point x="494" y="397" type="line"/>
      <point x="574" y="377"/>
      <point x="619" y="318"/>
      <point x="619" y="234" type="curve" smooth="yes"/>
      <point x="619" y="93"/>
      <point x="490" y="0"/>
      <point x="296" y="0" type="curve" smooth="yes"/>
      <point x="-63" y="0" type="line"/>
    </contour>
  </outline>
</glyph>
<glyph name="C" format="1">
  <advance width="742"/>
  <unicode hex="0043"/>
  <outline>
    <contour>
      <point x="532" y="0" type="line"/>
      <point x="559" y="0" type="line"/>
      <point x="670" y="293" type="line"/>
      <point x="641" y="293" type="line"/>
      <point x="573" y="134"/>
      <point x="454" y="37"/>
      <point x="325" y="37" type="curve" smooth="yes"/>
      <point x="224" y="37"/>
      <point x="173" y="98"/>
      <point x="173" y="219" type="curve" smooth="yes"/>
      <point x="173" y="477"/>
      <point x="397" y="736"/>
      <point x="622" y="736" type="curve" smooth="yes"/>
      <point x="700" y="736"/>
      <point x="736" y="705"/>
      <point x="736" y="634" type="curve" smooth="yes"/>
      <point x="736" y="608"/>
      <point x="731" y="577"/>
      <point x="721" y="540" type="curve"/>
      <point x="750" y="540" type="line"/>
      <point x="847" y="770" type="line"/>
      <point x="825" y="770" type="line"/>
      <point x="789" y="737" type="line"/>
      <point x="753" y="764"/>
      <point x="696" y="780"/>
      <point x="632" y="780" type="curve" smooth="yes"/>
      <point x="348" y="780"/>
      <point x="63" y="496"/>
      <point x="63" y="213" type="curve" smooth="yes"/>
      <point x="63" y="65"/>
      <point x="141" y="-10"/>
      <point x="298" y="-10" type="curve" smooth="yes"/>
      <point x="388" y="-10"/>
      <point x="457" y="15"/>
      <point x="536" y="77" type="curve"/>
      <point x="540" y="77" type="line"/>
    </contour>
    <contour>
      <point x="660" y="830" type="move" name="topcap"/>
    </contour>
    <contour>
      <point x="304" y="0" type="move" name="bottom"/>
    </contour>
  </outline>
</glyph>
<glyph name="D" format="1">
  <advance width="805"/>
  <unicode hex="0044"/>
  <outline>
    <contour>
      <point x="-58" y="23" type="line"/>
      <point x="34" y="42" type="line"/>
      <point x="318" y="728" type="line"/>
      <point x="240" y="747" type="line"/>
      <point x="250" y="770" type="line"/>
      <point x="456" y="770" type="line" smooth="yes"/>
      <point x="654" y="770"/>
      <point x="781" y="653"/>
      <point x="781" y="470" type="curve" smooth="yes"/>
      <point x="781" y="291"/>
      <point x="671" y="121"/>
      <point x="505" y="47" type="curve" smooth="yes"/>
      <point x="434" y="15"/>
      <point x="349" y="0"/>
      <point x="242" y="0" type="curve" smooth="yes"/>
      <point x="-68" y="0" type="line"/>
    </contour>
    <contour>
      <point x="236" y="42" type="curve" smooth="yes"/>
      <point x="469" y="42"/>
      <point x="671" y="209"/>
      <point x="671" y="495" type="curve" smooth="yes"/>
      <point x="671" y="644"/>
      <point x="592" y="730"/>
      <point x="455" y="730" type="curve" smooth="yes"/>
      <point x="428" y="730" type="line"/>
      <point x="179" y="129" type="line" smooth="yes"/>
      <point x="170" y="108"/>
      <point x="166" y="92"/>
      <point x="166" y="80" type="curve" smooth="yes"/>
      <point x="166" y="52"/>
      <point x="185" y="42"/>
    </contour>
    <contour>
      <point x="232" y="0" type="move" name="bottom"/>
    </contour>
    <contour>
      <point x="575" y="830" type="move" name="topcap"/>
    </contour>
  </outline>
</glyph>
<glyph name="E" format="1">
  <advance width="713"/>
  <unicode hex="0045"/>
  <outline>
    <contour>
      <point x="-68" y="0" type="line"/>
      <point x="-58" y="23" type="line"/>
      <point x="34" y="42" type="line"/>
      <point x="318" y="728" type="line"/>
      <point x="240" y="747" type="line"/>
      <point x="250" y="770" type="line"/>
      <point x="730" y="770" type="line"/>
      <point x="738" y="550" type="line"/>
      <point x="711" y="550" type="line"/>
      <point x="699" y="621"/>
      <point x="682" y="680"/>
      <point x="653" y="730" type="curve"/>
      <point x="427" y="730" type="line"/>
      <point x="303" y="426" type="line"/>
      <point x="471" y="426" type="line"/>
      <point x="504" y="464"/>
      <point x="532" y="502"/>
      <point x="555" y="540" type="curve"/>
      <point x="584" y="540" type="line"/>
      <point x="471" y="266" type="line"/>
      <point x="442" y="266" type="line"/>
      <point x="453" y="306"/>
      <point x="457" y="346"/>
      <point x="459" y="386" type="curve"/>
      <point x="285" y="386" type="line"/>
      <point x="143" y="40" type="line"/>
      <point x="466" y="40" type="line"/>
      <point x="520" y="103"/>
      <point x="565" y="167"/>
      <point x="603" y="230" type="curve"/>
      <point x="632" y="230" type="line"/>
      <point x="541" y="0" type="line"/>
    </contour>
    <contour>
      <point x="558" y="830" type="move" name="topcap"/>
    </contour>
    <contour>
      <point x="241" y="0" type="move" name="bottom"/>
    </contour>
  </outline>
</glyph>
<glyph name="G" format="1">
  <advance width="798"/>
  <unicode hex="0047"/>
  <outline>
    <contour>
      <point x="598" y="344" type="line"/>
      <point x="515" y="363" type="line"/>
      <point x="525" y="386" type="line"/>
      <point x="809" y="386" type="line"/>
      <point x="799" y="363" type="line"/>
      <point x="703" y="344" type="line"/>
      <point x="585" y="59" type="line"/>
      <point x="504" y="14"/>
      <point x="409" y="-10"/>
      <point x="326" y="-10" type="curve" smooth="yes"/>
      <point x="164" y="-10"/>
      <point x="71" y="80"/>
      <point x="71" y="237" type="curve" smooth="yes"/>
      <point x="71" y="509"/>
      <point x="343" y="780"/>
      <point x="616" y="780" type="curve" smooth="yes"/>
      <point x="686" y="780"/>
      <point x="736" y="763"/>
      <point x="780" y="725" type="curve"/>
      <point x="831" y="770" type="line"/>
      <point x="855" y="770" type="line"/>
      <point x="757" y="530" type="line"/>
      <point x="727" y="530" type="line"/>
      <point x="736" y="566"/>
      <point x="741" y="595"/>
      <point x="741" y="621" type="curve" smooth="yes"/>
      <point x="741" y="699"/>
      <point x="699" y="736"/>
      <point x="612" y="736" type="curve" smooth="yes"/>
      <point x="391" y="736"/>
      <point x="184" y="493"/>
      <point x="184" y="233" type="curve" smooth="yes"/>
      <point x="184" y="100"/>
      <point x="238" y="34"/>
      <point x="348" y="34" type="curve" smooth="yes"/>
      <point x="433" y="34"/>
      <point x="485" y="72"/>
      <point x="521" y="159" type="curve" smooth="yes"/>
    </contour>
    <contour>
      <point x="660" y="830" type="move" name="topcap"/>
    </contour>
    <contour>
      <point x="310" y="0" type="move" name="bottom"/>
    </contour>
  </outline>
</glyph>
<glyph name="L" format="1">
  <advance width="695"/>
  <unicode hex="004C"/>
  <outline>
    <contour>
      <point x="-68" y="0" type="line"/>
      <point x="-58" y="23" type="line"/>
      <point x="34" y="42" type="line"/>
      <point x="318" y="728" type="line"/>
      <point x="240" y="747" type="line"/>
      <point x="250" y="770" type="line"/>
      <point x="536" y="770" type="line"/>
      <point x="526" y="747" type="line"/>
      <point x="425" y="725" type="line"/>
      <point x="143" y="40" type="line"/>
      <point x="461" y="40" type="line"/>
      <point x="515" y="103"/>
      <point x="565" y="179"/>
      <point x="603" y="242" type="curve"/>
      <point x="637" y="242" type="line"/>
      <point x="541" y="0" type="line"/>
    </contour>
    <contour>
      <point x="265" y="0" type="move" name="bottom"/>
    </contour>
  </outline>
</glyph>
<glyph name="R" format="1">
  <advance width="740"/>
  <unicode hex="0052"/>
  <outline>
    <contour>
      <point x="270" y="354" type="line"/>
      <point x="143" y="42" type="line"/>
      <point x="262" y="23" type="line"/>
      <point x="252" y="0" type="line"/>
      <point x="-64" y="0" type="line"/>
      <point x="-55" y="23" type="line"/>
      <point x="33" y="42" type="line"/>
      <point x="319" y="728" type="line"/>
      <point x="241" y="747" type="line"/>
      <point x="250" y="770" type="line"/>
      <point x="490" y="770" type="line" smooth="yes"/>
      <point x="645" y="770"/>
      <point x="717" y="712"/>
      <point x="717" y="607" type="curve" smooth="yes"/>
      <point x="717" y="476"/>
      <point x="613" y="383"/>
      <point x="450" y="359" type="curve"/>
      <point x="564" y="42" type="line"/>
      <point x="672" y="23" type="line"/>
      <point x="665" y="0" type="line"/>
      <point x="464" y="0" type="line"/>
      <point x="347" y="354" type="line"/>
    </contour>
    <contour>
      <point x="382" y="398" type="line" smooth="yes"/>
      <point x="509" y="398"/>
      <point x="616" y="494"/>
      <point x="616" y="608" type="curve" smooth="yes"/>
      <point x="616" y="686"/>
      <point x="572" y="729"/>
      <point x="490" y="729" type="curve" smooth="yes"/>
      <point x="429" y="729" type="line"/>
      <point x="289" y="398" type="line"/>
    </contour>
    <contour>
      <point x="513" y="830" type="move" name="topcap"/>
    </contour>
    <contour>
      <point x="271" y="-10" type="move" name="bottom"/>
    </contour>
  </outline>
</glyph>
<glyph name="T" format="1">
  <advance width="735"/>
  <unicode hex="0054"/>
  <outline>
    <contour>
      <point x="205" y="42" type="line"/>
      <point x="98" y="23" type="line"/>
      <point x="88" y="0" type="line"/>
      <point x="406" y="0" type="line"/>
      <point x="416" y="23" type="line"/>
      <point x="314" y="42" type="line"/>
      <point x="599" y="730" type="line"/>
      <point x="777" y="730" type="line"/>
      <point x="792" y="687"/>
      <point x="796" y="640"/>
      <point x="796" y="595" type="curve" smooth="yes"/>
      <point x="796" y="580"/>
      <point x="796" y="564"/>
      <point x="795" y="550" type="curve"/>
      <point x="819" y="550" type="line"/>
      <point x="873" y="770" type="line"/>
      <point x="247" y="770" type="line"/>
      <point x="119" y="550" type="line"/>
      <point x="143" y="550" type="line"/>
      <point x="186" y="607"/>
      <point x="246" y="673"/>
      <point x="312" y="730" type="curve"/>
      <point x="490" y="730" type="line"/>
    </contour>
    <contour>
      <point x="589" y="830" type="move" name="topcap"/>
    </contour>
    <contour>
      <point x="239" y="0" type="move" name="bottom"/>
    </contour>
  </outline>
</glyph>
<glyph name="V" format="1">
  <advance width="734"/>
  <unicode hex="0056"/>
  <outline>
    <contour>
      <point x="239" y="-10" type="line"/>
      <point x="745" y="631" type="line" smooth="yes"/>
      <point x="805" y="708"/>
      <point x="839" y="728"/>
      <point x="934" y="742" type="curve"/>
      <point x="948" y="770" type="line"/>
      <point x="659" y="770" type="line"/>
      <point x="646" y="742" type="line"/>
      <point x="705" y="734"/>
      <point x="730" y="722"/>
      <point x="731" y="701" type="curve" smooth="yes"/>
      <point x="731" y="683"/>
      <point x="726" y="670"/>
      <point x="697" y="633" type="curve" smooth="yes"/>
      <point x="307" y="133" type="line"/>
      <point x="303" y="133" type="line"/>
      <point x="376" y="665" type="line" smooth="yes"/>
      <point x="385" y="727"/>
      <point x="417" y="741"/>
      <point x="493" y="742" type="curve"/>
      <point x="507" y="770" type="line"/>
      <point x="199" y="770" type="line"/>
      <point x="185" y="742" type="line"/>
      <point x="247" y="738"/>
      <point x="269" y="730"/>
      <point x="270" y="695" type="curve" smooth="yes"/>
      <point x="270" y="690"/>
      <point x="270" y="684"/>
      <point x="269" y="678" type="curve" smooth="yes"/>
      <point x="180" y="-10" type="line"/>
    </contour>
  </outline>
</glyph>
<glyph name="W" format="1">
  <advance width="1029"/>
  <unicode hex="0057"/>
  <outline>
    <contour>
      <point x="234" y="-10" type="line"/>
      <point x="574" y="447" type="line"/>
      <point x="515" y="-10" type="line"/>
      <point x="574" y="-10" type="line"/>
      <point x="1050" y="631" type="line" smooth="yes"/>
      <point x="1106" y="706"/>
      <point x="1134" y="728"/>
      <point x="1219" y="742" type="curve"/>
      <point x="1233" y="770" type="line"/>
      <point x="964" y="770" type="line"/>
      <point x="951" y="742" type="line"/>
      <point x="1010" y="734"/>
      <point x="1035" y="722"/>
      <point x="1036" y="701" type="curve" smooth="yes"/>
      <point x="1036" y="683"/>
      <point x="1029" y="670"/>
      <point x="1002" y="633" type="curve" smooth="yes"/>
      <point x="638" y="134" type="line"/>
      <point x="711" y="665" type="line" smooth="yes"/>
      <point x="720" y="727"/>
      <point x="753" y="741"/>
      <point x="828" y="742" type="curve"/>
      <point x="842" y="770" type="line"/>
      <point x="564" y="770" type="line"/>
      <point x="550" y="742" type="line"/>
      <point x="591" y="738"/>
      <point x="604" y="730"/>
      <point x="605" y="695" type="curve" smooth="yes"/>
      <point x="605" y="690"/>
      <point x="605" y="684"/>
      <point x="604" y="678" type="curve" smooth="yes"/>
      <point x="584" y="526" type="line"/>
      <point x="298" y="134" type="line"/>
      <point x="371" y="665" type="line" smooth="yes"/>
      <point x="379" y="727"/>
      <point x="405" y="741"/>
      <point x="468" y="742" type="curve"/>
      <point x="482" y="770" type="line"/>
      <point x="194" y="770" type="line"/>
      <point x="180" y="742" type="line"/>
      <point x="242" y="738"/>
      <point x="264" y="730"/>
      <point x="265" y="695" type="curve" smooth="yes"/>
      <point x="265" y="690"/>
      <point x="265" y="684"/>
      <point x="264" y="678" type="curve" smooth="yes"/>
      <point x="175" y="-10" type="line"/>
    </contour>
    <contour>
      <point x="743" y="830" type="move" name="topcap"/>
    </contour>
  </outline>
</glyph>
<glyph name="X" format="1">
  <advance width="744"/>
  <unicode hex="0058"/>
  <outline>
    <contour>
      <point x="-108" y="0" type="line"/>
      <point x="-98" y="23" type="line"/>
      <point x="-25" y="26"/>
      <point x="17" y="43"/>
      <point x="147" y="167" type="curve" smooth="yes"/>
      <point x="362" y="373" type="line"/>
      <point x="292" y="663" type="line" smooth="yes"/>
      <point x="279" y="718"/>
      <point x="261" y="737"/>
      <point x="182" y="746" type="curve"/>
      <point x="193" y="770" type="line"/>
      <point x="487" y="770" type="line"/>
      <point x="478" y="747" type="line"/>
      <point x="422" y="742"/>
      <point x="402" y="727"/>
      <point x="402" y="693" type="curve" smooth="yes"/>
      <point x="402" y="682"/>
      <point x="404" y="670"/>
      <point x="408" y="655" type="curve" smooth="yes"/>
      <point x="457" y="448" type="line"/>
      <point x="670" y="651" type="line" smooth="yes"/>
      <point x="706" y="685"/>
      <point x="722" y="709"/>
      <point x="722" y="724" type="curve" smooth="yes"/>
      <point x="722" y="740"/>
      <point x="703" y="747"/>
      <point x="669" y="747" type="curve"/>
      <point x="678" y="770" type="line"/>
      <point x="916" y="770" type="line"/>
      <point x="906" y="747" type="line"/>
      <point x="831" y="737"/>
      <point x="790" y="718"/>
      <point x="726" y="656" type="curve" smooth="yes"/>
      <point x="467" y="407" type="line"/>
      <point x="538" y="116" type="line" smooth="yes"/>
      <point x="554" y="51"/>
      <point x="575" y="34"/>
      <point x="639" y="23" type="curve"/>
      <point x="629" y="0" type="line"/>
      <point x="330" y="0" type="line"/>
      <point x="339" y="23" type="line"/>
      <point x="404" y="32"/>
      <point x="428" y="45"/>
      <point x="428" y="80" type="curve" smooth="yes"/>
      <point x="428" y="90"/>
      <point x="426" y="101"/>
      <point x="423" y="115" type="curve" smooth="yes"/>
      <point x="374" y="330" type="line"/>
      <point x="184" y="146" type="line" smooth="yes"/>
      <point x="152" y="115"/>
      <point x="134" y="90"/>
      <point x="134" y="70" type="curve" smooth="yes"/>
      <point x="134" y="47"/>
      <point x="159" y="31"/>
      <point x="212" y="23" type="curve"/>
      <point x="201" y="0" type="line"/>
    </contour>
  </outline>
</glyph>
<glyph name="Y" format="1">
  <advance width="716"/>
  <unicode hex="0059"/>
  <outline>
    <contour>
      <point x="88" y="0" type="line"/>
      <point x="98" y="23" type="line"/>
      <point x="195" y="42" type="line"/>
      <point x="319" y="340" type="line"/>
      <point x="270" y="664" type="line" smooth="yes"/>
      <point x="260" y="731"/>
      <point x="250" y="747"/>
      <point x="180" y="747" type="curve"/>
      <point x="190" y="770" type="line"/>
      <point x="472" y="770" type="line"/>
      <point x="462" y="747" type="line"/>
      <point x="406" y="745"/>
      <point x="384" y="731"/>
      <point x="384" y="677" type="curve" smooth="yes"/>
      <point x="384" y="667"/>
      <point x="385" y="654"/>
      <point x="387" y="640" type="curve" smooth="yes"/>
      <point x="417" y="394" type="line"/>
      <point x="686" y="664" type="line" smooth="yes"/>
      <point x="708" y="686"/>
      <point x="719" y="703"/>
      <point x="719" y="716" type="curve" smooth="yes"/>
      <point x="719" y="736"/>
      <point x="693" y="747"/>
      <point x="636" y="747" type="curve"/>
      <point x="645" y="770" type="line"/>
      <point x="921" y="770" type="line"/>
      <point x="908" y="747" type="line"/>
      <point x="825" y="742"/>
      <point x="794" y="725"/>
      <point x="708" y="638" type="curve" smooth="yes"/>
      <point x="439" y="363" type="line"/>
      <point x="304" y="42" type="line"/>
      <point x="402" y="23" type="line"/>
      <point x="392" y="0" type="line"/>
    </contour>
    <contour>
      <point x="596" y="830" type="move" name="topcap"/>
    </contour>
  </outline>
</glyph>
<glyph name="bracketleft" format="1">
  <advance width="364"/>
  <unicode hex="005B"/>
  <outline>
    <contour>
      <point x="-34" y="-187" type="line"/>
      <point x="292" y="820" type="line"/>
      <point x="491" y="820" type="line"/>
      <point x="481" y="788" type="line"/>
      <point x="363" y="788" type="line"/>
      <point x="57" y="-156" type="line"/>
      <point x="174" y="-156" type="line"/>
      <point x="164" y="-187" type="line"/>
    </contour>
  </outline>
</glyph>
<glyph name="backslash" format="1">
  <advance width="627"/>
  <unicode hex="005C"/>
  <outline>
    <contour>
      <point x="408" y="-169" type="line"/>
      <point x="311" y="819" type="line"/>
      <point x="241" y="819" type="line"/>
      <point x="339" y="-169" type="line"/>
    </contour>
  </outline>
</glyph>
<glyph name="bracketright" format="1">
  <advance width="363"/>
  <unicode hex="005D"/>
  <outline>
    <contour>
      <point x="-112" y="-187" type="line"/>
      <point x="-102" y="-156" type="line"/>
      <point x="16" y="-156" type="line"/>
      <point x="322" y="788" type="line"/>
      <point x="204" y="788" type="line"/>
      <point x="214" y="820" type="line"/>
      <point x="413" y="820" type="line"/>
      <point x="86" y="-187" type="line"/>
    </contour>
  </outline>
</glyph>
<glyph name="underscore" format="1">
  <advance width="718"/>
  <unicode hex="005F"/>
  <outline>
    <contour>
      <point x="471" y="-74" type="line" name="hr00"/>
      <point x="488" y="-30" type="line"/>
      <point x="-62" y="-30" type="line"/>
      <point x="-79" y="-74" type="line"/>
    </contour>
  </outline>
</glyph>
<glyph name="a" format="1">
  <advance width="604"/>
  <unicode hex="0061"/>
  <outline>
    <contour>
      <point x="371" y="540" type="curve" smooth="yes"/>
      <point x="408" y="540"/>
      <point x="430" y="527"/>
      <point x="454" y="493" type="curve"/>
      <point x="470" y="530" type="line"/>
      <point x="572" y="530" type="line"/>
      <point x="400" y="109" type="line"/>
      <point x="392" y="84"/>
      <point x="390" y="76"/>
      <point x="390" y="68" type="curve" smooth="yes"/>
      <point x="390" y="56"/>
      <point x="396" y="49"/>
      <point x="406" y="49" type="curve" smooth="yes"/>
      <point x="426" y="49"/>
      <point x="461" y="76"/>
      <point x="517" y="138" type="curve"/>
      <point x="537" y="124" type="line"/>
      <point x="467" y="36"/>
      <point x="403" y="-10"/>
      <point x="347" y="-10" type="curve" smooth="yes"/>
      <point x="310" y="-10"/>
      <point x="288" y="9"/>
      <point x="288" y="48" type="curve" smooth="yes"/>
      <point x="288" y="77"/>
      <point x="295" y="106"/>
      <point x="322" y="149" type="curve"/>
      <point x="316" y="152" type="line"/>
      <point x="238" y="38"/>
      <point x="177" y="-10"/>
      <point x="110" y="-10" type="curve" smooth="yes"/>
      <point x="42" y="-10"/>
      <point x="0" y="39"/>
      <point x="0" y="122" type="curve" smooth="yes"/>
      <point x="0" y="303"/>
      <point x="206" y="540"/>
    </contour>
    <contour>
      <point x="129" y="25" type="curve" smooth="yes"/>
      <point x="197" y="25"/>
      <point x="325" y="183"/>
      <point x="406" y="372" type="curve" smooth="yes"/>
      <point x="426" y="418"/>
      <point x="428" y="439"/>
      <point x="428" y="458" type="curve" smooth="yes"/>
      <point x="428" y="489"/>
      <point x="408" y="508"/>
      <point x="382" y="508" type="curve" smooth="yes"/>
      <point x="282" y="508"/>
      <point x="92" y="228"/>
      <point x="92" y="83" type="curve" smooth="yes"/>
      <point x="92" y="43"/>
      <point x="102" y="25"/>
    </contour>
    <contour>
      <point x="431" y="651" type="move" name="top"/>
    </contour>
    <contour>
      <point x="347" y="0" type="move" name="bottom"/>
    </contour>
  </outline>
</glyph>
<glyph name="d" format="1">
  <advance width="603"/>
  <unicode hex="0064"/>
  <outline>
    <contour>
      <point x="481" y="820" type="line"/>
      <point x="672" y="820" type="line"/>
      <point x="404" y="109" type="line" smooth="yes"/>
      <point x="395" y="85"/>
      <point x="393" y="76"/>
      <point x="393" y="68" type="curve" smooth="yes"/>
      <point x="393" y="54"/>
      <point x="401" y="49"/>
      <point x="411" y="49" type="curve" smooth="yes"/>
      <point x="431" y="49"/>
      <point x="461" y="76"/>
      <point x="516" y="138" type="curve"/>
      <point x="536" y="124" type="line"/>
      <point x="471" y="36"/>
      <point x="409" y="-10"/>
      <point x="353" y="-10" type="curve" smooth="yes"/>
      <point x="309" y="-10"/>
      <point x="292" y="14"/>
      <point x="292" y="62" type="curve" smooth="yes"/>
      <point x="292" y="86"/>
      <point x="302" y="112"/>
      <point x="321" y="149" type="curve"/>
      <point x="319" y="152" type="line"/>
      <point x="239" y="34"/>
      <point x="184" y="-10"/>
      <point x="112" y="-10" type="curve" smooth="yes"/>
      <point x="40" y="-10"/>
      <point x="3" y="33"/>
      <point x="3" y="120" type="curve" smooth="yes"/>
      <point x="3" y="306"/>
      <point x="195" y="540"/>
      <point x="362" y="540" type="curve" smooth="yes"/>
      <point x="400" y="540"/>
      <point x="422" y="527"/>
      <point x="447" y="493" type="curve" name="hr01"/>
      <point x="563" y="793" type="line"/>
      <point x="486" y="805" type="line"/>
    </contour>
    <contour>
      <point x="130" y="25" type="curve" smooth="yes"/>
      <point x="198" y="25"/>
      <point x="324" y="185"/>
      <point x="401" y="372" type="curve" smooth="yes"/>
      <point x="420" y="418"/>
      <point x="425" y="438"/>
      <point x="426" y="458" type="curve"/>
      <point x="421" y="489"/>
      <point x="405" y="508"/>
      <point x="379" y="508" type="curve" smooth="yes"/>
      <point x="278" y="508"/>
      <point x="93" y="226"/>
      <point x="93" y="81" type="curve" smooth="yes"/>
      <point x="93" y="42"/>
      <point x="108" y="25"/>
    </contour>
    <contour>
      <point x="259" y="0" type="move" name="bottom"/>
    </contour>
    <contour>
      <point x="120" y="0" type="move" name="bottom"/>
    </contour>
  </outline>
</glyph>
<glyph name="h" format="1">
  <advance width="595"/>
  <unicode hex="0068"/>
  <outline>
    <contour>
      <point x="-35" y="0" type="line"/>
      <point x="58" y="0" type="line"/>
      <point x="149" y="194" type="line" smooth="yes"/>
      <point x="232" y="371"/>
      <point x="351" y="505"/>
      <point x="419" y="505" type="curve" smooth="yes"/>
      <point x="438" y="505"/>
      <point x="448" y="495"/>
      <point x="448" y="477" type="curve" smooth="yes"/>
      <point x="448" y="463"/>
      <point x="443" y="446"/>
      <point x="434" y="427" type="curve" smooth="yes"/>
      <point x="300" y="158" type="line" smooth="yes"/>
      <point x="277" y="112"/>
      <point x="265" y="75"/>
      <point x="265" y="48" type="curve" smooth="yes"/>
      <point x="265" y="9"/>
      <point x="281" y="-10"/>
      <point x="324" y="-10" type="curve" smooth="yes" name="hr01"/>
      <point x="387" y="-10"/>
      <point x="455" y="36"/>
      <point x="523" y="124" type="curve"/>
      <point x="502" y="139" type="line"/>
      <point x="454" y="85"/>
      <point x="410" y="49"/>
      <point x="388" y="49" type="curve" smooth="yes"/>
      <point x="379" y="49"/>
      <point x="373" y="54"/>
      <point x="373" y="64" type="curve" smooth="yes"/>
      <point x="373" y="76"/>
      <point x="380" y="94"/>
      <point x="393" y="121" type="curve" smooth="yes"/>
      <point x="510" y="360" type="line" smooth="yes"/>
      <point x="530" y="401"/>
      <point x="537" y="433"/>
      <point x="537" y="460" type="curve" smooth="yes"/>
      <point x="537" y="511"/>
      <point x="500" y="539"/>
      <point x="445" y="539" type="curve" smooth="yes"/>
      <point x="370" y="539"/>
      <point x="305" y="493"/>
      <point x="221" y="380" type="curve"/>
      <point x="216" y="382" type="line"/>
      <point x="406" y="820" type="line"/>
      <point x="215" y="820" type="line"/>
      <point x="217" y="805" type="line" name="hr02"/>
      <point x="293" y="793" type="line"/>
    </contour>
    <contour>
      <point x="491" y="651" type="move" name="top"/>
    </contour>
    <contour>
      <point x="167" y="0" type="move" name="bottom"/>
    </contour>
  </outline>
</glyph>
<glyph name="i" format="1">
  <advance width="340"/>
  <unicode hex="0069"/>
  <outline>
    <contour>
      <point x="307" y="780" type="curve" smooth="yes" name="hr00"/>
      <point x="341" y="780"/>
      <point x="371" y="756"/>
      <point x="371" y="725" type="curve" smooth="yes"/>
      <point x="371" y="689"/>
      <point x="334" y="655"/>
      <point x="296" y="655" type="curve" smooth="yes"/>
      <point x="258" y="655"/>
      <point x="234" y="678"/>
      <point x="234" y="712" type="curve" smooth="yes"/>
      <point x="234" y="749"/>
      <point x="269" y="780"/>
    </contour>
    <contour>
      <point x="227" y="540" type="curve" smooth="yes"/>
      <point x="265" y="540"/>
      <point x="292" y="523"/>
      <point x="292" y="491" type="curve" smooth="yes"/>
      <point x="292" y="472"/>
      <point x="286" y="449"/>
      <point x="276" y="425" type="curve" smooth="yes"/>
      <point x="133" y="81" type="line" smooth="yes"/>
      <point x="131" y="76"/>
      <point x="130" y="72"/>
      <point x="130" y="68" type="curve" smooth="yes"/>
      <point x="130" y="57"/>
      <point x="138" y="49"/>
      <point x="150" y="49" type="curve" smooth="yes"/>
      <point x="169" y="49"/>
      <point x="190" y="65"/>
      <point x="255" y="129" type="curve"/>
      <point x="275" y="117" type="line"/>
      <point x="213" y="38"/>
      <point x="138" y="-10"/>
      <point x="88" y="-10" type="curve" smooth="yes"/>
      <point x="49" y="-10"/>
      <point x="23" y="8"/>
      <point x="23" y="46" type="curve" smooth="yes"/>
      <point x="23" y="63"/>
      <point x="27" y="85"/>
      <point x="38" y="111" type="curve" smooth="yes"/>
      <point x="183" y="467" type="line" smooth="yes"/>
      <point x="187" y="476"/>
      <point x="188" y="482"/>
      <point x="188" y="486" type="curve" smooth="yes"/>
      <point x="188" y="492"/>
      <point x="184" y="495"/>
      <point x="175" y="495" type="curve" smooth="yes"/>
      <point x="151" y="495"/>
      <point x="117" y="471"/>
      <point x="87" y="433" type="curve"/>
      <point x="64" y="451" type="line"/>
      <point x="109" y="506"/>
      <point x="174" y="540"/>
    </contour>
    <contour>
      <point x="90" y="0" type="move" name="bottom"/>
    </contour>
  </outline>
</glyph>
<glyph name="j" format="1">
  <advance width="306"/>
  <unicode hex="006A"/>
  <outline>
    <contour>
      <point x="221" y="540" type="curve" smooth="yes"/>
      <point x="263" y="540"/>
      <point x="284" y="522"/>
      <point x="284" y="492" type="curve" smooth="yes"/>
      <point x="283" y="456"/>
      <point x="252" y="361"/>
      <point x="181" y="203" type="curve" smooth="yes"/>
      <point x="54" y="-81" type="line" smooth="yes"/>
      <point x="3" y="-194"/>
      <point x="-75" y="-256"/>
      <point x="-174" y="-256" type="curve" smooth="yes"/>
      <point x="-242" y="-256"/>
      <point x="-291" y="-226"/>
      <point x="-291" y="-179" type="curve" smooth="yes"/>
      <point x="-291" y="-149"/>
      <point x="-276" y="-132"/>
      <point x="-245" y="-132" type="curve" smooth="yes"/>
      <point x="-175" y="-132"/>
      <point x="-209" y="-221"/>
      <point x="-145" y="-221" type="curve" smooth="yes"/>
      <point x="-105" y="-221"/>
      <point x="-71" y="-176"/>
      <point x="-13" y="-28" type="curve" smooth="yes"/>
      <point x="97" y="252" type="line" smooth="yes" name="hr01"/>
      <point x="162" y="419"/>
      <point x="177" y="458"/>
      <point x="177" y="479" type="curve" smooth="yes"/>
      <point x="177" y="489"/>
      <point x="173" y="492"/>
      <point x="163" y="492" type="curve" smooth="yes"/>
      <point x="139" y="492"/>
      <point x="110" y="471"/>
      <point x="80" y="433" type="curve"/>
      <point x="59" y="451" type="line" name="hr02"/>
      <point x="107" y="508"/>
      <point x="167" y="540"/>
    </contour>
    <contour>
      <point x="300" y="780" type="curve" smooth="yes"/>
      <point x="336" y="780"/>
      <point x="363" y="754"/>
      <point x="363" y="722" type="curve" smooth="yes"/>
      <point x="363" y="687"/>
      <point x="329" y="655"/>
      <point x="289" y="655" type="curve" smooth="yes"/>
      <point x="252" y="655"/>
      <point x="229" y="680"/>
      <point x="229" y="712" type="curve" smooth="yes"/>
      <point x="229" y="749"/>
      <point x="261" y="780"/>
    </contour>
  </outline>
</glyph>
<glyph name="l" format="1">
  <advance width="316"/>
  <unicode hex="006C"/>
  <outline>
    <contour>
      <point x="215" y="820" type="line" name="hr00"/>
      <point x="413" y="820" type="line"/>
      <point x="192" y="305" type="line" smooth="yes"/>
      <point x="116" y="129"/>
      <point x="99" y="90"/>
      <point x="99" y="67" type="curve" smooth="yes"/>
      <point x="99" y="56"/>
      <point x="110" y="49"/>
      <point x="120" y="49" type="curve" smooth="yes"/>
      <point x="136" y="49"/>
      <point x="161" y="61"/>
      <point x="225" y="129" type="curve"/>
      <point x="247" y="117" type="line"/>
      <point x="180" y="35"/>
      <point x="104" y="-10"/>
      <point x="50" y="-10" type="curve" smooth="yes"/>
      <point x="18" y="-10"/>
      <point x="-1" y="14"/>
      <point x="-1" y="52" type="curve" smooth="yes"/>
      <point x="-1" y="88"/>
      <point x="16" y="132"/>
      <point x="156" y="466" type="curve" smooth="yes"/>
      <point x="293" y="793" type="line"/>
      <point x="217" y="805" type="line"/>
    </contour>
    <contour>
      <point x="376" y="857" type="move" name="topcap"/>
    </contour>
  </outline>
</glyph>
<glyph name="m" format="1">
  <advance width="891"/>
  <unicode hex="006D"/>
  <outline>
    <contour>
      <point x="521" y="382" type="curve"/>
      <point x="525" y="380" type="line"/>
      <point x="597" y="490"/>
      <point x="662" y="539"/>
      <point x="734" y="539" type="curve" smooth="yes"/>
      <point x="791" y="539"/>
      <point x="821" y="508"/>
      <point x="821" y="451" type="curve" smooth="yes"/>
      <point x="821" y="423"/>
      <point x="814" y="397"/>
      <point x="797" y="360" type="curve" smooth="yes"/>
      <point x="690" y="121" type="line" smooth="yes" name="hr01"/>
      <point x="674" y="86"/>
      <point x="669" y="72"/>
      <point x="669" y="64" type="curve" smooth="yes"/>
      <point x="669" y="54"/>
      <point x="674" y="49"/>
      <point x="684" y="49" type="curve" smooth="yes"/>
      <point x="706" y="49"/>
      <point x="751" y="84"/>
      <point x="799" y="139" type="curve"/>
      <point x="820" y="124" type="line"/>
      <point x="752" y="37"/>
      <point x="682" y="-10"/>
      <point x="620" y="-10" type="curve" smooth="yes"/>
      <point x="581" y="-10"/>
      <point x="560" y="8"/>
      <point x="560" y="42" type="curve" smooth="yes"/>
      <point x="560" y="68"/>
      <point x="572" y="105"/>
      <point x="596" y="158" type="curve" smooth="yes"/>
      <point x="721" y="427" type="line" smooth="yes"/>
      <point x="730" y="446"/>
      <point x="735" y="463"/>
      <point x="735" y="475" type="curve" smooth="yes"/>
      <point x="735" y="493"/>
      <point x="723" y="505"/>
      <point x="705" y="505" type="curve" smooth="yes" name="hr02"/>
      <point x="642" y="505"/>
      <point x="532" y="373"/>
      <point x="459" y="207" type="curve" smooth="yes"/>
      <point x="367" y="0" type="line"/>
      <point x="259" y="0" type="line"/>
      <point x="455" y="427" type="line" smooth="yes"/>
      <point x="463" y="445"/>
      <point x="468" y="463"/>
      <point x="468" y="475" type="curve" smooth="yes"/>
      <point x="468" y="493"/>
      <point x="456" y="505"/>
      <point x="436" y="505" type="curve" smooth="yes"/>
      <point x="371" y="505"/>
      <point x="265" y="376"/>
      <point x="181" y="194" type="curve" smooth="yes"/>
      <point x="91" y="0" type="line"/>
      <point x="-6" y="0" type="line"/>
      <point x="186" y="446" type="line" smooth="yes"/>
      <point x="193" y="462"/>
      <point x="197" y="475"/>
      <point x="197" y="482" type="curve" smooth="yes" name="hr03"/>
      <point x="197" y="490"/>
      <point x="191" y="495"/>
      <point x="182" y="495" type="curve" smooth="yes"/>
      <point x="158" y="495"/>
      <point x="115" y="460"/>
      <point x="77" y="410" type="curve"/>
      <point x="57" y="426" type="line" name="hr04"/>
      <point x="108" y="496"/>
      <point x="182" y="540"/>
      <point x="246" y="540" type="curve" smooth="yes"/>
      <point x="279" y="540"/>
      <point x="294" y="528"/>
      <point x="294" y="500" type="curve" smooth="yes"/>
      <point x="294" y="474"/>
      <point x="281" y="439"/>
      <point x="249" y="382" type="curve"/>
      <point x="254" y="380" type="line"/>
      <point x="333" y="493"/>
      <point x="394" y="539"/>
      <point x="466" y="539" type="curve" smooth="yes"/>
      <point x="519" y="539"/>
      <point x="548" y="514"/>
      <point x="548" y="466" type="curve" smooth="yes"/>
      <point x="548" y="440"/>
      <point x="539" y="412"/>
    </contour>
  </outline>
</glyph>
<glyph name="p" format="1">
  <advance width="566"/>
  <unicode hex="0070"/>
  <outline>
    <contour>
      <point x="338" y="630" type="line" name="hr00"/>
      <point x="302" y="540" type="line"/>
      <point x="439" y="526"/>
      <point x="515" y="449"/>
      <point x="515" y="348" type="curve" smooth="yes"/>
      <point x="515" y="166"/>
      <point x="328" y="10"/>
      <point x="135" y="10" type="curve" smooth="yes"/>
      <point x="120" y="10"/>
      <point x="101" y="11"/>
      <point x="83" y="13" type="curve"/>
      <point x="-14" y="-220" type="line"/>
      <point x="88" y="-232" type="line"/>
      <point x="88" y="-250" type="line"/>
      <point x="-198" y="-250" type="line"/>
      <point x="-198" y="-235" type="line"/>
      <point x="-118" y="-223" type="line"/>
      <point x="192" y="503" type="line"/>
      <point x="145" y="495"/>
      <point x="110" y="482"/>
      <point x="87" y="466" type="curve"/>
      <point x="79" y="486" type="line"/>
      <point x="112" y="509"/>
      <point x="156" y="526"/>
      <point x="203" y="533" type="curve"/>
      <point x="238" y="619" type="line"/>
    </contour>
    <contour>
      <point x="94" y="40" type="line"/>
      <point x="106" y="39"/>
      <point x="112" y="39"/>
      <point x="120" y="39" type="curve" smooth="yes"/>
      <point x="268" y="39"/>
      <point x="411" y="199"/>
      <point x="411" y="369" type="curve" smooth="yes"/>
      <point x="411" y="459"/>
      <point x="367" y="508"/>
      <point x="307" y="508" type="curve" smooth="yes"/>
      <point x="294" y="508"/>
      <point x="288" y="506"/>
      <point x="284" y="497" type="curve" smooth="yes"/>
    </contour>
  </outline>
</glyph>
<glyph name="r" format="1">
  <advance width="455"/>
  <unicode hex="0072"/>
  <outline>
    <contour>
      <point x="438" y="540" type="curve" smooth="yes" name="hr00"/>
      <point x="373" y="540"/>
      <point x="313" y="493"/>
      <point x="244" y="380" type="curve"/>
      <point x="239" y="382" type="line"/>
      <point x="273" y="437"/>
      <point x="282" y="462"/>
      <point x="282" y="489" type="curve" smooth="yes"/>
      <point x="282" y="523"/>
      <point x="263" y="540"/>
      <point x="235" y="540" type="curve" smooth="yes"/>
      <point x="180" y="540"/>
      <point x="109" y="494"/>
      <point x="56" y="426" type="curve"/>
      <point x="75" y="410" type="line"/>
      <point x="115" y="460"/>
      <point x="160" y="495"/>
      <point x="183" y="495" type="curve" smooth="yes"/>
      <point x="191" y="495"/>
      <point x="196" y="491"/>
      <point x="196" y="483" type="curve" smooth="yes"/>
      <point x="196" y="474"/>
      <point x="191" y="460"/>
      <point x="185" y="446" type="curve" smooth="yes"/>
      <point x="-8" y="0" type="line"/>
      <point x="89" y="0" type="line"/>
      <point x="182" y="194" type="line" smooth="yes"/>
      <point x="272" y="381"/>
      <point x="337" y="475"/>
      <point x="394" y="475" type="curve" smooth="yes"/>
      <point x="431" y="475"/>
      <point x="430" y="439"/>
      <point x="469" y="439" type="curve" smooth="yes"/>
      <point x="498" y="439"/>
      <point x="513" y="457"/>
      <point x="513" y="484" type="curve" smooth="yes"/>
      <point x="513" y="518"/>
      <point x="481" y="540"/>
    </contour>
    <contour>
      <point x="373" y="651" type="move" name="top"/>
    </contour>
    <contour>
      <point x="43" y="0" type="move" name="bottom"/>
    </contour>
  </outline>
</glyph>
<glyph name="t" format="1">
  <advance width="339"/>
  <unicode hex="0074"/>
  <outline>
    <contour>
      <point x="101" y="498" type="line" name="hr00"/>
      <point x="184" y="498" type="line"/>
      <point x="79" y="255" type="line" smooth="yes"/>
      <point x="19" y="115"/>
      <point x="10" y="81"/>
      <point x="10" y="53" type="curve" smooth="yes"/>
      <point x="10" y="9"/>
      <point x="23" y="-10"/>
      <point x="63" y="-10" type="curve" smooth="yes"/>
      <point x="121" y="-10"/>
      <point x="192" y="36"/>
      <point x="256" y="117" type="curve"/>
      <point x="236" y="129" type="line"/>
      <point x="182" y="73"/>
      <point x="152" y="49"/>
      <point x="132" y="49" type="curve" smooth="yes"/>
      <point x="117" y="49"/>
      <point x="110" y="58"/>
      <point x="110" y="73" type="curve" smooth="yes"/>
      <point x="110" y="87"/>
      <point x="118" y="104"/>
      <point x="204" y="305" type="curve" smooth="yes"/>
      <point x="287" y="498" type="line"/>
      <point x="377" y="498" type="line"/>
      <point x="388" y="530" type="line"/>
      <point x="300" y="530" type="line"/>
      <point x="368" y="687" type="line"/>
      <point x="261" y="677" type="line"/>
      <point x="198" y="530" type="line"/>
      <point x="112" y="530" type="line"/>
    </contour>
    <contour>
      <point x="41" y="0" type="move" name="bottom"/>
    </contour>
  </outline>
</glyph>
<glyph name="v" format="1">
  <advance width="614"/>
  <unicode hex="0076"/>
  <outline>
    <contour>
      <point x="101" y="360" type="line"/>
      <point x="93" y="367"/>
      <point x="89" y="375"/>
      <point x="87" y="384" type="curve"/>
      <point x="87" y="402"/>
      <point x="105" y="418"/>
      <point x="129" y="418" type="curve" smooth="yes"/>
      <point x="150" y="418"/>
      <point x="169" y="402"/>
      <point x="169" y="378" type="curve" smooth="yes"/>
      <point x="169" y="353"/>
      <point x="150" y="338"/>
      <point x="121" y="338" type="curve" smooth="yes"/>
      <point x="78" y="338"/>
      <point x="49" y="369"/>
      <point x="49" y="421" type="curve" smooth="yes"/>
      <point x="49" y="494"/>
      <point x="109" y="530"/>
      <point x="238" y="530" type="curve" smooth="yes"/>
      <point x="394" y="530" type="line"/>
      <point x="360" y="455"/>
      <point x="352" y="441"/>
      <point x="279" y="330" type="curve" smooth="yes"/>
      <point x="209" y="224"/>
      <point x="189" y="178"/>
      <point x="189" y="122" type="curve" smooth="yes" name="hr01"/>
      <point x="189" y="58"/>
      <point x="210" y="29"/>
      <point x="250" y="29" type="curve" smooth="yes"/>
      <point x="316" y="29"/>
      <point x="389" y="85"/>
      <point x="461" y="198" type="curve" smooth="yes" name="hr02"/>
      <point x="503" y="265"/>
      <point x="523" y="316"/>
      <point x="523" y="367" type="curve" smooth="yes"/>
      <point x="523" y="405"/>
      <point x="511" y="449"/>
      <point x="511" y="480" type="curve" smooth="yes"/>
      <point x="511" y="516"/>
      <point x="529" y="540"/>
      <point x="559" y="540" type="curve" smooth="yes"/>
      <point x="587" y="540"/>
      <point x="603" y="518"/>
      <point x="603" y="482" type="curve" smooth="yes"/>
      <point x="603" y="418"/>
      <point x="562" y="306"/>
      <point x="504" y="208" type="curve" smooth="yes"/>
      <point x="419" y="65"/>
      <point x="314" y="-10"/>
      <point x="206" y="-10" type="curve" smooth="yes"/>
      <point x="130" y="-10"/>
      <point x="83" y="33"/>
      <point x="83" y="103" type="curve" smooth="yes"/>
      <point x="83" y="166"/>
      <point x="123" y="228"/>
      <point x="230" y="336" type="curve" smooth="yes"/>
      <point x="271" y="378"/>
      <point x="289" y="401"/>
      <point x="320" y="451" type="curve" name="hr03"/>
      <point x="172" y="451" type="line" smooth="yes"/>
      <point x="106" y="451"/>
      <point x="79" y="433"/>
      <point x="79" y="394" type="curve" smooth="yes"/>
      <point x="79" y="377"/>
      <point x="86" y="364"/>
      <point x="98" y="356" type="curve"/>
    </contour>
  </outline>
</glyph>
<glyph name="x" format="1">
  <advance width="568"/>
  <unicode hex="0078"/>
  <outline>
    <contour>
      <point x="224" y="213" type="line"/>
      <point x="159" y="123" type="line" smooth="yes"/>
      <point x="103" y="45"/>
      <point x="31" y="0"/>
      <point x="-22" y="0" type="curve" smooth="yes"/>
      <point x="-58" y="0"/>
      <point x="-89" y="21"/>
      <point x="-89" y="49" type="curve" smooth="yes"/>
      <point x="-89" y="74"/>
      <point x="-69" y="95"/>
      <point x="-42" y="95" type="curve" smooth="yes"/>
      <point x="-4" y="95"/>
      <point x="-6" y="51"/>
      <point x="25" y="51" type="curve" smooth="yes"/>
      <point x="51" y="51"/>
      <point x="86" y="79"/>
      <point x="123" y="129" type="curve" smooth="yes"/>
      <point x="217" y="257" type="line"/>
      <point x="187" y="440" type="line" smooth="yes"/>
      <point x="182" y="469"/>
      <point x="180" y="474"/>
      <point x="164" y="474" type="curve" smooth="yes" name="hr01"/>
      <point x="143" y="474"/>
      <point x="126" y="462"/>
      <point x="97" y="424" type="curve"/>
      <point x="79" y="434" type="line"/>
      <point x="115" y="494"/>
      <point x="180" y="540"/>
      <point x="230" y="540" type="curve" smooth="yes"/>
      <point x="263" y="540"/>
      <point x="285" y="519"/>
      <point x="290" y="479" type="curve" smooth="yes"/>
      <point x="308" y="347" type="line" name="hr02"/>
      <point x="363" y="414" type="line" smooth="yes" name="hr03"/>
      <point x="426" y="491"/>
      <point x="483" y="530"/>
      <point x="536" y="530" type="curve" smooth="yes"/>
      <point x="573" y="530"/>
      <point x="605" y="509"/>
      <point x="605" y="481" type="curve" smooth="yes"/>
      <point x="605" y="456"/>
      <point x="585" y="435"/>
      <point x="558" y="435" type="curve" smooth="yes"/>
      <point x="518" y="435"/>
      <point x="519" y="479"/>
      <point x="489" y="479" type="curve" smooth="yes"/>
      <point x="466" y="479"/>
      <point x="438" y="457"/>
      <point x="398" y="408" type="curve" smooth="yes"/>
      <point x="313" y="304" type="line"/>
      <point x="341" y="135" type="line" smooth="yes"/>
      <point x="355" y="52"/>
      <point x="359" y="37"/>
      <point x="376" y="37" type="curve" smooth="yes" name="hr04"/>
      <point x="393" y="37"/>
      <point x="408" y="50"/>
      <point x="456" y="106" type="curve"/>
      <point x="476" y="93" type="line" name="hr05"/>
      <point x="436" y="28"/>
      <point x="381" y="-10"/>
      <point x="329" y="-10" type="curve" smooth="yes"/>
      <point x="279" y="-10"/>
      <point x="253" y="22"/>
      <point x="241" y="102" type="curve" smooth="yes"/>
    </contour>
  </outline>
</glyph>
<glyph name="z" format="1">
  <advance width="556"/>
  <unicode hex="007A"/>
  <outline>
    <contour>
      <point x="244" y="540" type="curve" smooth="yes"/>
      <point x="317" y="540"/>
      <point x="434" y="517"/>
      <point x="483" y="517" type="curve" smooth="yes"/>
      <point x="509" y="517"/>
      <point x="533" y="524"/>
      <point x="559" y="540" type="curve"/>
      <point x="580" y="521" type="line"/>
      <point x="112" y="99" type="line"/>
      <point x="112" y="95" type="line"/>
      <point x="219" y="95"/>
      <point x="302" y="62"/>
      <point x="363" y="62" type="curve" smooth="yes"/>
      <point x="407" y="62"/>
      <point x="428" y="80"/>
      <point x="428" y="112" type="curve"/>
      <point x="424" y="114" type="line"/>
      <point x="416" y="99"/>
      <point x="408" y="92"/>
      <point x="393" y="92" type="curve" smooth="yes"/>
      <point x="368" y="92"/>
      <point x="352" y="111"/>
      <point x="352" y="135" type="curve" smooth="yes" name="hr01"/>
      <point x="352" y="159"/>
      <point x="371" y="175"/>
      <point x="399" y="175" type="curve" smooth="yes"/>
      <point x="437" y="175"/>
      <point x="460" y="148"/>
      <point x="460" y="106" type="curve" smooth="yes"/>
      <point x="460" y="36"/>
      <point x="391" y="-10"/>
      <point x="285" y="-10" type="curve" smooth="yes"/>
      <point x="210" y="-10"/>
      <point x="140" y="13"/>
      <point x="67" y="13" type="curve" smooth="yes" name="hr02"/>
      <point x="30" y="13"/>
      <point x="11" y="7"/>
      <point x="-13" y="-10" type="curve" name="hr03"/>
      <point x="-36" y="9" type="line"/>
      <point x="433" y="430" type="line"/>
      <point x="431" y="434" type="line"/>
      <point x="332" y="434"/>
      <point x="239" y="456"/>
      <point x="183" y="456" type="curve" smooth="yes"/>
      <point x="129" y="456"/>
      <point x="102" y="437"/>
      <point x="102" y="404" type="curve" smooth="yes"/>
      <point x="102" y="383"/>
      <point x="116" y="368"/>
      <point x="137" y="364" type="curve"/>
      <point x="138" y="368" type="line"/>
      <point x="127" y="374"/>
      <point x="120" y="382"/>
      <point x="120" y="393" type="curve" smooth="yes" name="hr04"/>
      <point x="120" y="413"/>
      <point x="136" y="429"/>
      <point x="159" y="429" type="curve" smooth="yes"/>
      <point x="184" y="429"/>
      <point x="199" y="410"/>
      <point x="199" y="383" type="curve" smooth="yes"/>
      <point x="199" y="356"/>
      <point x="178" y="340"/>
      <point x="148" y="340" type="curve" smooth="yes"/>
      <point x="104" y="340"/>
      <point x="69" y="376"/>
      <point x="69" y="424" type="curve" smooth="yes" name="hr05"/>
      <point x="69" y="492"/>
      <point x="140" y="540"/>
    </contour>
    <contour>
      <point x="386" y="651" type="move" name="top"/>
    </contour>
    <contour>
      <point x="156" y="0" type="move" name="bottom"/>
    </contour>
  </outline>
</glyph>
<glyph name="braceright" format="1">
  <advance width="358"/>
  <unicode hex="007D"/>
  <outline>
    <contour>
      <point x="-93" y="-151" type="line"/>
      <point x="-81" y="-155"/>
      <point x="-69" y="-157"/>
      <point x="-54" y="-157" type="curve" smooth="yes"/>
      <point x="60" y="-157"/>
      <point x="48" y="32"/>
      <point x="103" y="202" type="curve" smooth="yes"/>
      <point x="126" y="273"/>
      <point x="159" y="308"/>
      <point x="216" y="328" type="curve"/>
      <point x="217" y="332" type="line"/>
      <point x="190" y="344"/>
      <point x="176" y="366"/>
      <point x="176" y="400" type="curve" smooth="yes"/>
      <point x="176" y="474"/>
      <point x="265" y="622"/>
      <point x="290" y="699" type="curve" smooth="yes"/>
      <point x="296" y="716"/>
      <point x="298" y="732"/>
      <point x="298" y="746" type="curve" smooth="yes"/>
      <point x="298" y="776"/>
      <point x="284" y="794"/>
      <point x="254" y="794" type="curve" smooth="yes"/>
      <point x="243" y="794"/>
      <point x="235" y="793"/>
      <point x="212" y="789" type="curve"/>
      <point x="214" y="815" type="line"/>
      <point x="237" y="823"/>
      <point x="259" y="828"/>
      <point x="283" y="828" type="curve" smooth="yes"/>
      <point x="350" y="828"/>
      <point x="385" y="801"/>
      <point x="385" y="751" type="curve" smooth="yes"/>
      <point x="385" y="691"/>
      <point x="308" y="569"/>
      <point x="273" y="463" type="curve" smooth="yes"/>
      <point x="265" y="437"/>
      <point x="260" y="416"/>
      <point x="260" y="399" type="curve" smooth="yes"/>
      <point x="260" y="361"/>
      <point x="282" y="343"/>
      <point x="330" y="343" type="curve"/>
      <point x="322" y="320" type="line"/>
      <point x="251" y="320"/>
      <point x="215" y="285"/>
      <point x="186" y="194" type="curve" smooth="yes"/>
      <point x="157" y="106"/>
      <point x="149" y="2"/>
      <point x="126" y="-70" type="curve" smooth="yes"/>
      <point x="97" y="-158"/>
      <point x="45" y="-194"/>
      <point x="-42" y="-194" type="curve" smooth="yes"/>
      <point x="-68" y="-194"/>
      <point x="-87" y="-189"/>
      <point x="-108" y="-180" type="curve"/>
    </contour>
  </outline>
</glyph>
<glyph name="cent" format="1">
  <advance width="521"/>
  <unicode hex="00A2"/>
  <outline>
    <contour>
      <point x="483" y="686" type="line"/>
      <point x="438" y="686" type="line"/>
      <point x="377" y="538" type="line"/>
      <point x="316" y="531"/>
      <point x="244" y="499"/>
      <point x="182" y="451" type="curve" smooth="yes"/>
      <point x="77" y="369"/>
      <point x="16" y="252"/>
      <point x="15" y="143" type="curve" smooth="yes"/>
      <point x="15" y="43"/>
      <point x="59" y="-10"/>
      <point x="148" y="-10" type="curve"/>
      <point x="90" y="-150" type="line"/>
      <point x="135" y="-150" type="line"/>
      <point x="196" y="-4" type="line"/>
      <point x="267" y="12"/>
      <point x="341" y="63"/>
      <point x="411" y="146" type="curve"/>
      <point x="389" y="159" type="line"/>
      <point x="320" y="88"/>
      <point x="260" y="46"/>
      <point x="210" y="31" type="curve"/>
      <point x="408" y="506" type="line"/>
      <point x="422" y="500"/>
      <point x="430" y="485"/>
      <point x="435" y="457" type="curve" smooth="yes"/>
      <point x="440" y="424"/>
      <point x="455" y="409"/>
      <point x="481" y="409" type="curve" smooth="yes" name="hr01"/>
      <point x="507" y="409"/>
      <point x="525" y="425"/>
      <point x="525" y="449" type="curve" smooth="yes"/>
      <point x="525" y="494"/>
      <point x="481" y="532"/>
      <point x="422" y="539" type="curve"/>
    </contour>
    <contour>
      <point x="114" y="99" type="curve" smooth="yes"/>
      <point x="114" y="240"/>
      <point x="247" y="468"/>
      <point x="362" y="504" type="curve"/>
      <point x="163" y="25" type="line"/>
      <point x="127" y="29"/>
      <point x="114" y="53"/>
    </contour>
  </outline>
</glyph>
<glyph name="sterling" format="1">
  <advance width="657"/>
  <unicode hex="00A3"/>
  <outline>
    <contour>
      <point x="121" y="335" type="line"/>
      <point x="214" y="335" type="line"/>
      <point x="178" y="244"/>
      <point x="152" y="183"/>
      <point x="130" y="138" type="curve"/>
      <point x="110" y="143"/>
      <point x="81" y="146"/>
      <point x="53" y="146" type="curve" smooth="yes"/>
      <point x="-9" y="146"/>
      <point x="-51" y="110"/>
      <point x="-51" y="57" type="curve" smooth="yes"/>
      <point x="-51" y="15"/>
      <point x="-22" y="-10"/>
      <point x="25" y="-10" type="curve" smooth="yes"/>
      <point x="74" y="-10"/>
      <point x="124" y="17"/>
      <point x="174" y="69" type="curve"/>
      <point x="257" y="15"/>
      <point x="321" y="-10"/>
      <point x="376" y="-10" type="curve" smooth="yes"/>
      <point x="464" y="-10"/>
      <point x="527" y="56"/>
      <point x="546" y="168" type="curve"/>
      <point x="511" y="168" type="line"/>
      <point x="484" y="115"/>
      <point x="443" y="86"/>
      <point x="385" y="86" type="curve" smooth="yes"/>
      <point x="338" y="86"/>
      <point x="266" y="102"/>
      <point x="214" y="118" type="curve"/>
      <point x="249" y="166"/>
      <point x="283" y="231"/>
      <point x="330" y="335" type="curve"/>
      <point x="513" y="335" type="line"/>
      <point x="529" y="379" type="line"/>
      <point x="349" y="379" type="line"/>
      <point x="425" y="578" type="line" smooth="yes"/>
      <point x="478" y="717"/>
      <point x="511" y="744"/>
      <point x="551" y="744" type="curve" smooth="yes"/>
      <point x="577" y="744"/>
      <point x="587" y="727"/>
      <point x="587" y="669" type="curve" smooth="yes"/>
      <point x="587" y="626"/>
      <point x="614" y="602"/>
      <point x="647" y="602" type="curve" smooth="yes"/>
      <point x="681" y="602"/>
      <point x="704" y="627"/>
      <point x="704" y="658" type="curve" smooth="yes"/>
      <point x="704" y="729"/>
      <point x="641" y="780"/>
      <point x="559" y="780" type="curve" smooth="yes"/>
      <point x="448" y="780"/>
      <point x="375" y="705"/>
      <point x="313" y="561" type="curve" smooth="yes"/>
      <point x="234" y="379" type="line"/>
      <point x="141" y="379" type="line"/>
    </contour>
    <contour>
      <point x="110" y="94" type="curve"/>
      <point x="81" y="49"/>
      <point x="62" y="33"/>
      <point x="36" y="33" type="curve" smooth="yes"/>
      <point x="13" y="33"/>
      <point x="-1" y="46"/>
      <point x="-1" y="66" type="curve" smooth="yes"/>
      <point x="-1" y="91"/>
      <point x="20" y="107"/>
      <point x="52" y="107" type="curve" smooth="yes"/>
      <point x="69" y="107"/>
      <point x="88" y="103"/>
    </contour>
  </outline>
</glyph>
<glyph name="currency" format="1">
  <advance width="710"/>
  <unicode hex="00A4"/>
  <outline>
    <contour>
      <point x="191" y="127" type="line"/>
      <point x="143" y="175" type="line"/>
      <point x="210" y="241" type="line"/>
      <point x="182" y="275"/>
      <point x="168" y="319"/>
      <point x="168" y="368" type="curve" smooth="yes"/>
      <point x="168" y="416"/>
      <point x="182" y="458"/>
      <point x="210" y="494" type="curve"/>
      <point x="143" y="559" type="line"/>
      <point x="191" y="607" type="line"/>
      <point x="257" y="540" type="line"/>
      <point x="291" y="567"/>
      <point x="335" y="582"/>
      <point x="383" y="582" type="curve" smooth="yes"/>
      <point x="429" y="582"/>
      <point x="472" y="568"/>
      <point x="510" y="541" type="curve"/>
      <point x="575" y="607" type="line"/>
      <point x="623" y="559" type="line"/>
      <point x="556" y="493" type="line"/>
      <point x="584" y="458"/>
      <point x="598" y="416"/>
      <point x="598" y="368" type="curve" smooth="yes"/>
      <point x="598" y="321"/>
      <point x="584" y="278"/>
      <point x="557" y="241" type="curve"/>
      <point x="623" y="175" type="line"/>
      <point x="575" y="127" type="line"/>
      <point x="509" y="194" type="line"/>
      <point x="474" y="166"/>
      <point x="432" y="152"/>
      <point x="383" y="152" type="curve" smooth="yes"/>
      <point x="335" y="152"/>
      <point x="293" y="166"/>
      <point x="257" y="194" type="curve"/>
    </contour>
    <contour>
      <point x="383" y="216" type="curve" smooth="yes"/>
      <point x="462" y="216"/>
      <point x="528" y="284"/>
      <point x="528" y="367" type="curve" smooth="yes"/>
      <point x="528" y="450"/>
      <point x="462" y="518"/>
      <point x="383" y="518" type="curve" smooth="yes"/>
      <point x="304" y="518"/>
      <point x="238" y="450"/>
      <point x="238" y="368" type="curve" smooth="yes"/>
      <point x="238" y="285"/>
      <point x="304" y="216"/>
    </contour>
  </outline>
</glyph>
<glyph name="brokenbar" format="1">
  <advance width="262"/>
  <unicode hex="00A6"/>
  <outline>
    <contour>
      <point x="220" y="432" type="line"/>
      <point x="345" y="819" type="line"/>
      <point x="278" y="819" type="line"/>
      <point x="153" y="432" type="line"/>
    </contour>
    <contour>
      <point x="24" y="-171" type="line"/>
      <point x="149" y="216" type="line"/>
      <point x="82" y="216" type="line"/>
      <point x="-42" y="-171" type="line"/>
    </contour>
  </outline>
</glyph>
<glyph name="section" format="1">
  <advance width="584"/>
  <unicode hex="00A7"/>
  <outline>
    <contour>
      <point x="303" y="486" type="curve"/>
      <point x="189" y="486"/>
      <point x="107" y="415"/>
      <point x="107" y="321" type="curve" smooth="yes"/>
      <point x="107" y="170"/>
      <point x="302" y="92"/>
      <point x="302" y="-32" type="curve" smooth="yes"/>
      <point x="302" y="-86"/>
      <point x="263" y="-125"/>
      <point x="209" y="-125" type="curve" smooth="yes"/>
      <point x="165" y="-125"/>
      <point x="135" y="-100"/>
      <point x="112" y="-41" type="curve" smooth="yes"/>
      <point x="98" y="-6"/>
      <point x="80" y="9"/>
      <point x="55" y="9" type="curve" smooth="yes"/>
      <point x="27" y="9"/>
      <point x="8" y="-9"/>
      <point x="8" y="-36" type="curve" smooth="yes"/>
      <point x="8" y="-97"/>
      <point x="118" y="-160"/>
      <point x="219" y="-160" type="curve" smooth="yes"/>
      <point x="325" y="-160"/>
      <point x="406" y="-91"/>
      <point x="406" y="-3" type="curve" smooth="yes"/>
      <point x="406" y="68"/>
      <point x="354" y="126"/>
      <point x="303" y="184" type="curve"/>
      <point x="309" y="183"/>
      <point x="316" y="183"/>
      <point x="323" y="183" type="curve" smooth="yes"/>
      <point x="429" y="183"/>
      <point x="511" y="252"/>
      <point x="511" y="340" type="curve" smooth="yes"/>
      <point x="511" y="475"/>
      <point x="318" y="562"/>
      <point x="318" y="701" type="curve" smooth="yes"/>
      <point x="318" y="758"/>
      <point x="355" y="795"/>
      <point x="413" y="795" type="curve" smooth="yes"/>
      <point x="444" y="795"/>
      <point x="465" y="779"/>
      <point x="483" y="731" type="curve" smooth="yes"/>
      <point x="496" y="697"/>
      <point x="513" y="680"/>
      <point x="539" y="680" type="curve" smooth="yes"/>
      <point x="567" y="680"/>
      <point x="586" y="698"/>
      <point x="586" y="724" type="curve" smooth="yes"/>
      <point x="586" y="777"/>
      <point x="494" y="830"/>
      <point x="404" y="830" type="curve" smooth="yes"/>
      <point x="293" y="830"/>
      <point x="212" y="758"/>
      <point x="212" y="664" type="curve" smooth="yes"/>
      <point x="212" y="593"/>
      <point x="256" y="538"/>
    </contour>
    <contour>
      <point x="408" y="312" type="curve" smooth="yes"/>
      <point x="408" y="258"/>
      <point x="368" y="218"/>
      <point x="313" y="218" type="curve" smooth="yes"/>
      <point x="293" y="218"/>
      <point x="277" y="223"/>
      <point x="262" y="234" type="curve"/>
      <point x="234" y="272"/>
      <point x="214" y="312"/>
      <point x="214" y="359" type="curve" smooth="yes"/>
      <point x="214" y="415"/>
      <point x="252" y="451"/>
      <point x="309" y="451" type="curve" smooth="yes"/>
      <point x="320" y="451"/>
      <point x="330" y="450"/>
      <point x="338" y="447" type="curve"/>
      <point x="376" y="404"/>
      <point x="408" y="361"/>
    </contour>
  </outline>
</glyph>
<glyph name="copyright" format="1">
  <advance width="975"/>
  <unicode hex="00A9"/>
  <outline>
    <contour>
      <point x="127" y="385" type="curve" smooth="yes"/>
      <point x="127" y="168"/>
      <point x="305" y="-10"/>
      <point x="524" y="-10" type="curve" smooth="yes"/>
      <point x="743" y="-10"/>
      <point x="921" y="168"/>
      <point x="921" y="385" type="curve" smooth="yes"/>
      <point x="921" y="602"/>
      <point x="743" y="780"/>
      <point x="524" y="780" type="curve" smooth="yes"/>
      <point x="305" y="780"/>
      <point x="127" y="602"/>
    </contour>
    <contour>
      <point x="174" y="385" type="curve" smooth="yes"/>
      <point x="174" y="576"/>
      <point x="331" y="732"/>
      <point x="524" y="732" type="curve" smooth="yes"/>
      <point x="717" y="732"/>
      <point x="873" y="576"/>
      <point x="873" y="385" type="curve" smooth="yes"/>
      <point x="873" y="194"/>
      <point x="717" y="38"/>
      <point x="524" y="38" type="curve" smooth="yes"/>
      <point x="331" y="38"/>
      <point x="174" y="194"/>
    </contour>
    <contour>
      <point x="279" y="386" type="curve" smooth="yes"/>
      <point x="279" y="238"/>
      <point x="378" y="136"/>
      <point x="522" y="136" type="curve" smooth="yes"/>
      <point x="575" y="136"/>
      <point x="617" y="152"/>
      <point x="660" y="188" type="curve"/>
      <point x="689" y="137" type="line"/>
      <point x="704" y="137" type="line"/>
      <point x="704" y="316" type="line"/>
      <point x="682" y="316" type="line"/>
      <point x="675" y="282"/>
      <point x="664" y="254"/>
      <point x="649" y="233" type="curve" smooth="yes"/>
      <point x="623" y="194"/>
      <point x="584" y="174"/>
      <point x="536" y="174" type="curve" smooth="yes"/>
      <point x="440" y="174"/>
      <point x="384" y="253"/>
      <point x="384" y="390" type="curve" smooth="yes"/>
      <point x="384" y="527"/>
      <point x="438" y="604"/>
      <point x="535" y="604" type="curve" smooth="yes"/>
      <point x="591" y="604"/>
      <point x="628" y="584"/>
      <point x="655" y="538" type="curve" smooth="yes"/>
      <point x="667" y="517"/>
      <point x="673" y="502"/>
      <point x="680" y="481" type="curve"/>
      <point x="704" y="481" type="line"/>
      <point x="704" y="640" type="line"/>
      <point x="689" y="640" type="line"/>
      <point x="662" y="598" type="line"/>
      <point x="658" y="598" type="line"/>
      <point x="619" y="627"/>
      <point x="572" y="642"/>
      <point x="524" y="642" type="curve" smooth="yes"/>
      <point x="381" y="642"/>
      <point x="279" y="535"/>
    </contour>
  </outline>
</glyph>
<glyph name="logicalnot" format="1">
  <advance width="634"/>
  <unicode hex="00AC"/>
  <outline>
    <contour>
      <point x="452" y="147" type="line" name="hr00"/>
      <point x="503" y="147" type="line"/>
      <point x="503" y="308" type="line"/>
      <point x="93" y="308" type="line"/>
      <point x="93" y="264" type="line"/>
      <point x="452" y="264" type="line"/>
    </contour>
  </outline>
</glyph>
<glyph name="degree" format="1">
  <advance width="355"/>
  <unicode hex="00B0"/>
  <outline>
    <contour>
      <point x="345" y="587" type="curve" smooth="yes"/>
      <point x="277" y="587"/>
      <point x="224" y="640"/>
      <point x="224" y="708" type="curve" smooth="yes"/>
      <point x="224" y="776"/>
      <point x="277" y="830"/>
      <point x="345" y="830" type="curve" smooth="yes"/>
      <point x="412" y="830"/>
      <point x="466" y="775"/>
      <point x="466" y="708" type="curve" smooth="yes"/>
      <point x="466" y="640"/>
      <point x="413" y="587"/>
    </contour>
    <contour>
      <point x="265" y="708" type="curve" smooth="yes"/>
      <point x="265" y="662"/>
      <point x="299" y="628"/>
      <point x="345" y="628" type="curve" smooth="yes"/>
      <point x="393" y="628"/>
      <point x="425" y="662"/>
      <point x="425" y="708" type="curve" smooth="yes"/>
      <point x="425" y="756"/>
      <point x="393" y="790"/>
      <point x="345" y="790" type="curve" smooth="yes"/>
      <point x="299" y="790"/>
      <point x="265" y="756"/>
    </contour>
  </outline>
</glyph>
<glyph name="threesuperior" format="1">
  <advance width="396"/>
  <unicode hex="00B3"/>
  <outline>
    <contour>
      <point x="255" y="681" type="line"/>
      <point x="359" y="714"/>
      <point x="431" y="775"/>
      <point x="431" y="839" type="curve" smooth="yes"/>
      <point x="431" y="865"/>
      <point x="417" y="883"/>
      <point x="388" y="883" type="curve" smooth="yes"/>
      <point x="348" y="883"/>
      <point x="302" y="850"/>
      <point x="261" y="791" type="curve"/>
      <point x="238" y="810" type="line"/>
      <point x="288" y="887"/>
      <point x="352" y="926"/>
      <point x="416" y="926" type="curve" smooth="yes"/>
      <point x="482" y="926"/>
      <point x="522" y="897"/>
      <point x="522" y="848" type="curve" smooth="yes"/>
      <point x="522" y="798"/>
      <point x="475" y="740"/>
      <point x="388" y="703" type="curve"/>
      <point x="439" y="694"/>
      <point x="477" y="656"/>
      <point x="477" y="603" type="curve" smooth="yes"/>
      <point x="477" y="500"/>
      <point x="367" y="409"/>
      <point x="242" y="409" type="curve" smooth="yes"/>
      <point x="177" y="409"/>
      <point x="132" y="439"/>
      <point x="132" y="478" type="curve" smooth="yes"/>
      <point x="132" y="502"/>
      <point x="147" y="515"/>
      <point x="164" y="515" type="curve" smooth="yes"/>
      <point x="205" y="515"/>
      <point x="195" y="446"/>
      <point x="264" y="446" type="curve" smooth="yes"/>
      <point x="329" y="446"/>
      <point x="378" y="504"/>
      <point x="378" y="582" type="curve" smooth="yes"/>
      <point x="378" y="632"/>
      <point x="358" y="659"/>
      <point x="323" y="659" type="curve" smooth="yes"/>
      <point x="306" y="659"/>
      <point x="282" y="654"/>
      <point x="267" y="646" type="curve"/>
    </contour>
  </outline>
</glyph>
<glyph name="cedilla" format="1">
  <advance width="230"/>
  <unicode hex="00B8"/>
  <outline>
    <contour>
      <point x="-27" y="-233" type="line"/>
      <point x="-16" y="-248"/>
      <point x="9" y="-257"/>
      <point x="43" y="-257" type="curve" smooth="yes"/>
      <point x="133" y="-257"/>
      <point x="213" y="-196"/>
      <point x="213" y="-128" type="curve" smooth="yes"/>
      <point x="213" y="-84"/>
      <point x="181" y="-58"/>
      <point x="125" y="-58" type="curve"/>
      <point x="182" y="17" type="line"/>
      <point x="142" y="17" type="line"/>
      <point x="33" y="-121" type="line"/>
      <point x="41" y="-134" type="line"/>
      <point x="53" y="-126"/>
      <point x="70" y="-122"/>
      <point x="89" y="-122" type="curve" smooth="yes"/>
      <point x="118" y="-122"/>
      <point x="131" y="-133"/>
      <point x="131" y="-156" type="curve" smooth="yes"/>
      <point x="131" y="-197"/>
      <point x="92" y="-226"/>
      <point x="42" y="-226" type="curve" smooth="yes"/>
      <point x="21" y="-226"/>
      <point x="5" y="-221"/>
      <point x="-10" y="-210" type="curve"/>
    </contour>
    <contour>
      <point x="147" y="0" type="move" name="_bottom"/>
    </contour>
  </outline>
</glyph>
<glyph name="AE" format="1">
  <advance width="1040"/>
  <unicode hex="00C6"/>
  <outline>
    <contour>
      <point x="259" y="0" type="line"/>
      <point x="271" y="28" type="line"/>
      <point x="363" y="47" type="line"/>
      <point x="462" y="286" type="line"/>
      <point x="253" y="286" type="line"/>
      <point x="118" y="137" type="line" smooth="yes"/>
      <point x="86" y="102"/>
      <point x="75" y="86"/>
      <point x="75" y="69" type="curve" smooth="yes"/>
      <point x="75" y="48"/>
      <point x="100" y="36"/>
      <point x="158" y="28" type="curve"/>
      <point x="145" y="0" type="line"/>
      <point x="-136" y="0" type="line"/>
      <point x="-122" y="28" type="line"/>
      <point x="-26" y="42"/>
      <point x="4" y="65"/>
      <point x="71" y="139" type="curve" smooth="yes"/>
      <point x="602" y="728" type="line"/>
      <point x="525" y="747" type="line"/>
      <point x="535" y="770" type="line"/>
      <point x="1057" y="770" type="line"/>
      <point x="1065" y="550" type="line"/>
      <point x="1038" y="550" type="line"/>
      <point x="1026" y="621"/>
      <point x="1009" y="680"/>
      <point x="980" y="730" type="curve"/>
      <point x="754" y="730" type="line"/>
      <point x="630" y="426" type="line"/>
      <point x="798" y="426" type="line"/>
      <point x="831" y="464"/>
      <point x="859" y="502"/>
      <point x="882" y="540" type="curve"/>
      <point x="911" y="540" type="line"/>
      <point x="798" y="266" type="line"/>
      <point x="769" y="266" type="line"/>
      <point x="780" y="306"/>
      <point x="784" y="346"/>
      <point x="786" y="386" type="curve"/>
      <point x="612" y="386" type="line"/>
      <point x="470" y="40" type="line"/>
      <point x="793" y="40" type="line"/>
      <point x="847" y="103"/>
      <point x="892" y="167"/>
      <point x="930" y="230" type="curve"/>
      <point x="959" y="230" type="line"/>
      <point x="868" y="0" type="line"/>
    </contour>
    <contour>
      <point x="634" y="702" type="line"/>
      <point x="630" y="702" type="line"/>
      <point x="286" y="323" type="line"/>
      <point x="477" y="323" type="line"/>
    </contour>
  </outline>
</glyph>
<glyph name="Oslash" format="1">
  <advance width="804"/>
  <unicode hex="00D8"/>
  <outline>
    <contour>
      <point x="52" y="-149" type="line"/>
      <point x="788" y="889" type="line"/>
      <point x="843" y="889" type="line"/>
      <point x="105" y="-149" type="line"/>
    </contour>
    <component base="O"/>
  </outline>
</glyph>
<glyph name="Thorn" format="1">
  <advance width="658"/>
  <unicode hex="00DE"/>
  <outline>
    <contour>
      <point x="326" y="728" type="line"/>
      <point x="207" y="747" type="line"/>
      <point x="217" y="770" type="line"/>
      <point x="533" y="770" type="line"/>
      <point x="524" y="747" type="line"/>
      <point x="436" y="728" type="line"/>
      <point x="380" y="596" type="line"/>
      <point x="424" y="596" type="line" smooth="yes"/>
      <point x="569" y="596"/>
      <point x="654" y="531"/>
      <point x="654" y="420" type="curve" smooth="yes"/>
      <point x="654" y="268"/>
      <point x="511" y="167"/>
      <point x="297" y="167" type="curve" smooth="yes"/>
      <point x="199" y="167" type="line"/>
      <point x="146" y="42" type="line"/>
      <point x="265" y="23" type="line"/>
      <point x="255" y="0" type="line"/>
      <point x="-61" y="0" type="line"/>
      <point x="-52" y="23" type="line"/>
      <point x="36" y="42" type="line"/>
    </contour>
    <contour>
      <point x="311" y="211" type="line" smooth="yes"/>
      <point x="443" y="211"/>
      <point x="550" y="311"/>
      <point x="550" y="434" type="curve" smooth="yes"/>
      <point x="550" y="512"/>
      <point x="506" y="555"/>
      <point x="424" y="555" type="curve" smooth="yes"/>
      <point x="363" y="555" type="line"/>
      <point x="218" y="211" type="line"/>
    </contour>
  </outline>
</glyph>
<glyph name="ae" format="1">
  <advance width="804"/>
  <unicode hex="00E6"/>
  <outline>
    <contour>
      <point x="720" y="540" type="curve" smooth="yes"/>
      <point x="776" y="540"/>
      <point x="813" y="513"/>
      <point x="813" y="471" type="curve" smooth="yes"/>
      <point x="813" y="387"/>
      <point x="673" y="304"/>
      <point x="473" y="269" type="curve"/>
      <point x="435" y="198"/>
      <point x="416" y="138"/>
      <point x="416" y="92" type="curve" smooth="yes"/>
      <point x="416" y="46"/>
      <point x="435" y="25"/>
      <point x="474" y="25" type="curve" smooth="yes"/>
      <point x="536" y="25"/>
      <point x="621" y="80"/>
      <point x="680" y="159" type="curve"/>
      <point x="702" y="145" type="line"/>
      <point x="620" y="43"/>
      <point x="534" y="-10"/>
      <point x="449" y="-10" type="curve" smooth="yes"/>
      <point x="368" y="-10"/>
      <point x="322" y="38"/>
      <point x="322" y="125" type="curve" smooth="yes"/>
      <point x="322" y="137"/>
      <point x="322" y="143"/>
      <point x="323" y="149" type="curve"/>
      <point x="317" y="152" type="line"/>
      <point x="239" y="38"/>
      <point x="178" y="-10"/>
      <point x="111" y="-10" type="curve" smooth="yes"/>
      <point x="43" y="-10"/>
      <point x="1" y="40"/>
      <point x="1" y="121" type="curve" smooth="yes" name="hr01"/>
      <point x="1" y="305"/>
      <point x="209" y="540"/>
      <point x="371" y="540" type="curve" smooth="yes"/>
      <point x="408" y="540"/>
      <point x="430" y="528"/>
      <point x="455" y="493" type="curve"/>
      <point x="471" y="530" type="line" name="hr02"/>
      <point x="573" y="530" type="line"/>
      <point x="549" y="472" type="line"/>
      <point x="605" y="516"/>
      <point x="666" y="540"/>
    </contour>
    <contour>
      <point x="128" y="25" type="curve" smooth="yes"/>
      <point x="198" y="25"/>
      <point x="331" y="190"/>
      <point x="407" y="372" type="curve" smooth="yes"/>
      <point x="422" y="408"/>
      <point x="429" y="432"/>
      <point x="429" y="452" type="curve" smooth="yes"/>
      <point x="429" y="487"/>
      <point x="412" y="508"/>
      <point x="384" y="508" type="curve" smooth="yes"/>
      <point x="282" y="508"/>
      <point x="93" y="230"/>
      <point x="93" y="81" type="curve" smooth="yes"/>
      <point x="93" y="43"/>
      <point x="105" y="25"/>
    </contour>
    <contour>
      <point x="495" y="302" type="line"/>
      <point x="620" y="326"/>
      <point x="733" y="410"/>
      <point x="733" y="479" type="curve" smooth="yes"/>
      <point x="733" y="499"/>
      <point x="723" y="509"/>
      <point x="701" y="509" type="curve" smooth="yes"/>
      <point x="646" y="509"/>
      <point x="573" y="447"/>
      <point x="527" y="361" type="curve" smooth="yes"/>
    </contour>
  </outline>
</glyph>
<glyph name="divide" format="1">
  <advance width="533"/>
  <unicode hex="00F7"/>
  <outline>
    <contour>
      <point x="205" y="513" type="curve" smooth="yes"/>
      <point x="205" y="476"/>
      <point x="232" y="445"/>
      <point x="273" y="445" type="curve" smooth="yes"/>
      <point x="316" y="445"/>
      <point x="343" y="476"/>
      <point x="343" y="513" type="curve" smooth="yes"/>
      <point x="343" y="553"/>
      <point x="316" y="583"/>
      <point x="273" y="583" type="curve" smooth="yes"/>
      <point x="232" y="583"/>
      <point x="205" y="553"/>
    </contour>
    <contour>
      <point x="205" y="170" type="curve" smooth="yes"/>
      <point x="205" y="133"/>
      <point x="232" y="102"/>
      <point x="273" y="102" type="curve" smooth="yes"/>
      <point x="316" y="102"/>
      <point x="343" y="133"/>
      <point x="343" y="170" type="curve" smooth="yes"/>
      <point x="343" y="210"/>
      <point x="316" y="240"/>
      <point x="273" y="240" type="curve" smooth="yes"/>
      <point x="232" y="240"/>
      <point x="205" y="210"/>
    </contour>
    <component base="minus" xOffset="-37"/>
  </outline>
</glyph>
<glyph name="dcroat" format="1">
  <advance width="603"/>
  <unicode hex="0111"/>
  <outline>
    <contour>
      <point x="402" y="662" type="line"/>
      <point x="419" y="704" type="line"/>
      <point x="706" y="704" type="line"/>
      <point x="688" y="662" type="line"/>
    </contour>
    <component base="d"/>
  </outline>
</glyph>
<glyph name="kgreenlandic" format="1">
  <advance width="576"/>
  <unicode hex="0138"/>
  <outline>
    <contour>
      <point x="113" y="530" type="line"/>
      <point x="304" y="530" type="line"/>
      <point x="273" y="462" type="line"/>
      <point x="277" y="462" type="line"/>
      <point x="318" y="509"/>
      <point x="386" y="540"/>
      <point x="448" y="540" type="curve" smooth="yes"/>
      <point x="509" y="540"/>
      <point x="542" y="513"/>
      <point x="542" y="465" type="curve" smooth="yes"/>
      <point x="542" y="389"/>
      <point x="422" y="293"/>
      <point x="279" y="254" type="curve"/>
      <point x="347" y="111" type="line" smooth="yes"/>
      <point x="375" y="53"/>
      <point x="388" y="33"/>
      <point x="409" y="33" type="curve" smooth="yes"/>
      <point x="430" y="33"/>
      <point x="453" y="49"/>
      <point x="477" y="80" type="curve"/>
      <point x="497" y="69" type="line"/>
      <point x="471" y="24"/>
      <point x="416" y="-10"/>
      <point x="367" y="-10" type="curve" smooth="yes"/>
      <point x="319" y="-10"/>
      <point x="285" y="21"/>
      <point x="252" y="90" type="curve" smooth="yes" name="hr01"/>
      <point x="183" y="235" type="line"/>
      <point x="175" y="235" type="line"/>
      <point x="80" y="0" type="line"/>
      <point x="-20" y="0" type="line"/>
      <point x="190" y="503" type="line"/>
      <point x="115" y="515" type="line"/>
    </contour>
    <contour>
      <point x="311" y="453" type="curve" smooth="yes"/>
      <point x="262" y="410"/>
      <point x="226" y="357"/>
      <point x="192" y="268" type="curve"/>
      <point x="325" y="276"/>
      <point x="442" y="367"/>
      <point x="442" y="456" type="curve" smooth="yes"/>
      <point x="442" y="483"/>
      <point x="429" y="496"/>
      <point x="404" y="496" type="curve" smooth="yes"/>
      <point x="374" y="496"/>
      <point x="344" y="481"/>
    </contour>
  </outline>
</glyph>
<glyph name="lslash" format="1">
  <advance width="351"/>
  <unicode hex="0142"/>
  <outline>
    <contour>
      <point x="7" y="274" type="line"/>
      <point x="7" y="322" type="line"/>
      <point x="403" y="510" type="line"/>
      <point x="401" y="461" type="line"/>
    </contour>
    <component base="l" xOffset="30"/>
  </outline>
</glyph>
<glyph name="OE" format="1">
  <advance width="1122"/>
  <unicode hex="0152"/>
  <outline>
    <contour>
      <point x="1139" y="770" type="line"/>
      <point x="1147" y="550" type="line"/>
      <point x="1120" y="550" type="line"/>
      <point x="1106" y="627"/>
      <point x="1088" y="683"/>
      <point x="1062" y="730" type="curve"/>
      <point x="836" y="730" type="line"/>
      <point x="712" y="426" type="line"/>
      <point x="880" y="426" type="line"/>
      <point x="913" y="464"/>
      <point x="941" y="502"/>
      <point x="964" y="540" type="curve"/>
      <point x="993" y="540" type="line"/>
      <point x="880" y="266" type="line"/>
      <point x="851" y="266" type="line"/>
      <point x="861" y="299"/>
      <point x="866" y="336"/>
      <point x="868" y="386" type="curve"/>
      <point x="694" y="386" type="line"/>
      <point x="552" y="40" type="line"/>
      <point x="875" y="40" type="line"/>
      <point x="925" y="99"/>
      <point x="971" y="162"/>
      <point x="1012" y="230" type="curve"/>
      <point x="1041" y="230" type="line"/>
      <point x="950" y="0" type="line"/>
      <point x="417" y="0" type="line"/>
      <point x="384" y="-7"/>
      <point x="352" y="-10"/>
      <point x="321" y="-10" type="curve" smooth="yes"/>
      <point x="164" y="-10"/>
      <point x="73" y="81"/>
      <point x="73" y="238" type="curve" smooth="yes"/>
      <point x="73" y="516"/>
      <point x="337" y="780"/>
      <point x="615" y="780" type="curve" smooth="yes"/>
      <point x="649" y="780"/>
      <point x="677" y="776"/>
      <point x="703" y="770" type="curve"/>
    </contour>
    <contour>
      <point x="583" y="736" type="curve" smooth="yes"/>
      <point x="391" y="736"/>
      <point x="189" y="467"/>
      <point x="189" y="212" type="curve" smooth="yes"/>
      <point x="189" y="94"/>
      <point x="236" y="37"/>
      <point x="334" y="37" type="curve" smooth="yes"/>
      <point x="372" y="37"/>
      <point x="405" y="46"/>
      <point x="434" y="65" type="curve"/>
      <point x="704" y="678" type="line"/>
      <point x="679" y="717"/>
      <point x="640" y="736"/>
    </contour>
  </outline>
</glyph>
<glyph name="oe" format="1">
  <advance width="829"/>
  <unicode hex="0153"/>
  <outline>
    <contour>
      <point x="742" y="540" type="curve" smooth="yes"/>
      <point x="801" y="540"/>
      <point x="838" y="514"/>
      <point x="838" y="471" type="curve" smooth="yes"/>
      <point x="838" y="387"/>
      <point x="698" y="304"/>
      <point x="498" y="269" type="curve"/>
      <point x="492" y="259"/>
      <point x="487" y="249"/>
      <point x="483" y="240" type="curve" smooth="yes"/>
      <point x="482" y="238"/>
      <point x="481" y="237"/>
      <point x="481" y="235" type="curve"/>
      <point x="454" y="179"/>
      <point x="441" y="130"/>
      <point x="441" y="92" type="curve" smooth="yes"/>
      <point x="441" y="46"/>
      <point x="460" y="25"/>
      <point x="499" y="25" type="curve" smooth="yes"/>
      <point x="561" y="25"/>
      <point x="646" y="80"/>
      <point x="705" y="159" type="curve"/>
      <point x="727" y="145" type="line"/>
      <point x="645" y="42"/>
      <point x="559" y="-10"/>
      <point x="474" y="-10" type="curve" smooth="yes"/>
      <point x="411" y="-10"/>
      <point x="369" y="18"/>
      <point x="352" y="70" type="curve"/>
      <point x="293" y="21"/>
      <point x="225" y="-10"/>
      <point x="161" y="-10" type="curve" smooth="yes"/>
      <point x="66" y="-10"/>
      <point x="13" y="53"/>
      <point x="13" y="155" type="curve" smooth="yes"/>
      <point x="13" y="333"/>
      <point x="200" y="540"/>
      <point x="366" y="540" type="curve" smooth="yes"/>
      <point x="442" y="540"/>
      <point x="491" y="500"/>
      <point x="508" y="432" type="curve"/>
      <point x="580" y="496"/>
      <point x="665" y="540"/>
    </contour>
    <contour>
      <point x="378" y="505" type="curve" smooth="yes"/>
      <point x="272" y="505"/>
      <point x="104" y="254"/>
      <point x="104" y="98" type="curve" smooth="yes"/>
      <point x="104" y="50"/>
      <point x="117" y="25"/>
      <point x="149" y="25" type="curve" smooth="yes"/>
      <point x="249" y="25"/>
      <point x="426" y="289"/>
      <point x="426" y="437" type="curve" smooth="yes" name="hr01"/>
      <point x="426" y="482"/>
      <point x="412" y="505"/>
    </contour>
    <contour>
      <point x="520" y="302" type="line"/>
      <point x="644" y="326"/>
      <point x="758" y="410"/>
      <point x="758" y="479" type="curve" smooth="yes"/>
      <point x="758" y="499"/>
      <point x="748" y="509"/>
      <point x="726" y="509" type="curve" smooth="yes" name="hr02"/>
      <point x="671" y="509"/>
      <point x="597" y="446"/>
      <point x="552" y="361" type="curve" smooth="yes"/>
    </contour>
  </outline>
</glyph>
<glyph name="Tbar" format="1">
  <advance width="743"/>
  <unicode hex="0166"/>
  <outline>
    <contour>
      <point x="699" y="420" type="line"/>
      <point x="718" y="464" type="line"/>
      <point x="191" y="464" type="line"/>
      <point x="173" y="420" type="line"/>
    </contour>
    <component base="T"/>
  </outline>
</glyph>
<glyph name="Aringacute" format="1">
  <advance width="748"/>
  <unicode hex="01FA"/>
  <outline>
    <contour>
      <point x="660" y="941" type="line"/>
      <point x="670" y="944"/>
      <point x="678" y="946"/>
      <point x="687" y="946" type="curve" smooth="yes"/>
      <point x="717" y="946"/>
      <point x="731" y="934"/>
      <point x="731" y="912" type="curve" smooth="yes"/>
      <point x="731" y="890"/>
      <point x="714" y="876"/>
      <point x="662" y="876" type="curve" smooth="yes"/>
    </contour>
    <contour>
      <point x="550" y="868" type="line"/>
      <point x="494" y="870" type="line"/>
      <point x="490" y="894" type="line"/>
      <point x="553" y="915" type="line"/>
    </contour>
    <component base="A"/>
    <component base="ring.cap" xOffset="519"/>
  </outline>
</glyph>
<glyph name="schwa" format="1">
  <advance width="486"/>
  <unicode hex="0259"/>
  <outline>
    <contour>
      <point x="59" y="-10" type="curve" name="hr00"/>
      <point x="0" y="-10"/>
      <point x="-37" y="16"/>
      <point x="-37" y="59" type="curve" smooth="yes"/>
      <point x="-37" y="143"/>
      <point x="103" y="226"/>
      <point x="303" y="261" type="curve"/>
      <point x="341" y="332"/>
      <point x="360" y="392"/>
      <point x="360" y="438" type="curve" smooth="yes"/>
      <point x="360" y="484"/>
      <point x="341" y="505"/>
      <point x="302" y="505" type="curve" smooth="yes"/>
      <point x="240" y="505"/>
      <point x="155" y="450"/>
      <point x="96" y="371" type="curve"/>
      <point x="74" y="385" type="line"/>
      <point x="156" y="488"/>
      <point x="242" y="540"/>
      <point x="327" y="540" type="curve" smooth="yes"/>
      <point x="409" y="540"/>
      <point x="457" y="491"/>
      <point x="457" y="405" type="curve" smooth="yes"/>
      <point x="457" y="221"/>
      <point x="236" y="-10"/>
    </contour>
    <contour>
      <point x="281" y="228" type="line"/>
      <point x="157" y="204"/>
      <point x="43" y="120"/>
      <point x="43" y="51" type="curve" smooth="yes"/>
      <point x="43" y="31"/>
      <point x="53" y="21"/>
      <point x="75" y="21" type="curve" smooth="yes"/>
      <point x="130" y="21"/>
      <point x="204" y="84"/>
      <point x="249" y="169" type="curve"/>
    </contour>
    <contour>
      <point x="103" y="0" type="move" name="bottom"/>
    </contour>
    <contour>
      <point x="386" y="651" type="move" name="top"/>
    </contour>
  </outline>
</glyph>
<glyph name="apostrophe" format="1">
  <advance width="149"/>
  <unicode hex="02BC"/>
  <outline>
    <contour>
      <point x="61" y="752" type="curve" smooth="yes"/>
      <point x="35" y="758"/>
      <point x="22" y="776"/>
      <point x="22" y="807" type="curve" smooth="yes"/>
      <point x="22" y="838"/>
      <point x="46" y="857"/>
      <point x="84" y="857" type="curve" smooth="yes"/>
      <point x="119" y="857"/>
      <point x="139" y="834"/>
      <point x="139" y="793" type="curve" smooth="yes"/>
      <point x="139" y="738"/>
      <point x="98" y="677"/>
      <point x="27" y="629" type="curve"/>
      <point x="10" y="648" type="line"/>
      <point x="50" y="674"/>
      <point x="85" y="716"/>
      <point x="85" y="738" type="curve" smooth="yes"/>
      <point x="85" y="747"/>
      <point x="83" y="748"/>
    </contour>
    <contour>
      <point x="68" y="651" type="move" name="_top"/>
    </contour>
  </outline>
</glyph>
<glyph name="caron" format="1">
  <advance width="315"/>
  <unicode hex="02C7"/>
  <outline>
    <contour>
      <point x="66" y="628" type="curve" smooth="yes"/>
      <point x="95" y="628"/>
      <point x="116" y="637"/>
      <point x="134" y="657" type="curve" smooth="yes"/>
      <point x="305" y="845" type="line"/>
      <point x="286" y="857" type="line"/>
      <point x="103" y="716" type="line"/>
      <point x="33" y="857" type="line"/>
      <point x="10" y="845" type="line"/>
      <point x="26" y="657" type="line" smooth="yes"/>
      <point x="28" y="638"/>
      <point x="37" y="628"/>
    </contour>
    <contour>
      <point x="77" y="651" type="move" name="_top"/>
    </contour>
  </outline>
</glyph>
<glyph name="ring" format="1">
  <advance width="202"/>
  <unicode hex="02DA"/>
  <outline>
    <contour>
      <point x="107" y="817" type="curve" smooth="yes"/>
      <point x="154" y="817"/>
      <point x="192" y="784"/>
      <point x="192" y="743" type="curve" smooth="yes"/>
      <point x="192" y="695"/>
      <point x="143" y="651"/>
      <point x="89" y="651" type="curve" smooth="yes"/>
      <point x="43" y="651"/>
      <point x="10" y="683"/>
      <point x="10" y="726" type="curve" smooth="yes"/>
      <point x="10" y="775"/>
      <point x="54" y="817"/>
    </contour>
    <contour>
      <point x="104" y="782" type="curve" smooth="yes"/>
      <point x="74" y="782"/>
      <point x="48" y="758"/>
      <point x="48" y="729" type="curve" smooth="yes"/>
      <point x="48" y="704"/>
      <point x="68" y="686"/>
      <point x="94" y="686" type="curve" smooth="yes"/>
      <point x="125" y="686"/>
      <point x="154" y="712"/>
      <point x="154" y="739" type="curve" smooth="yes"/>
      <point x="154" y="763"/>
      <point x="131" y="782"/>
    </contour>
    <contour>
      <point x="89" y="651" type="move" name="_top"/>
    </contour>
  </outline>
</glyph>
<glyph name="ogonek" format="1">
  <advance width="268"/>
  <unicode hex="02DB"/>
  <outline>
    <contour>
      <point x="214" y="-198" type="line" name="hr00"/>
      <point x="169" y="-236"/>
      <point x="122" y="-256"/>
      <point x="77" y="-256" type="curve" smooth="yes"/>
      <point x="34" y="-256"/>
      <point x="10" y="-238"/>
      <point x="10" y="-204" type="curve" smooth="yes"/>
      <point x="10" y="-142"/>
      <point x="92" y="-58"/>
      <point x="220" y="11" type="curve"/>
      <point x="258" y="11" type="line"/>
      <point x="162" y="-63"/>
      <point x="107" y="-130"/>
      <point x="107" y="-172" type="curve" smooth="yes"/>
      <point x="107" y="-192"/>
      <point x="119" y="-201"/>
      <point x="144" y="-201" type="curve" smooth="yes"/>
      <point x="162" y="-201"/>
      <point x="178" y="-196"/>
      <point x="209" y="-180" type="curve"/>
    </contour>
    <contour>
      <point x="228" y="0" type="move" name="_bottom"/>
    </contour>
  </outline>
</glyph>
<glyph name="emdash" format="1">
  <advance width="1082"/>
  <unicode hex="2014"/>
  <outline>
    <contour>
      <point x="968" y="222" type="line"/>
      <point x="993" y="282" type="line"/>
      <point x="73" y="282" type="line"/>
      <point x="49" y="222" type="line"/>
    </contour>
  </outline>
</glyph>
<glyph name="quoteleft" format="1">
  <advance width="263"/>
  <unicode hex="2018"/>
  <outline>
    <contour>
      <point x="290" y="663" type="curve" smooth="yes"/>
      <point x="324" y="657"/>
      <point x="341" y="638"/>
      <point x="341" y="606" type="curve" smooth="yes"/>
      <point x="341" y="565"/>
      <point x="314" y="540"/>
      <point x="273" y="540" type="curve" smooth="yes"/>
      <point x="227" y="540"/>
      <point x="201" y="570"/>
      <point x="201" y="623" type="curve" smooth="yes"/>
      <point x="201" y="695"/>
      <point x="248" y="767"/>
      <point x="340" y="830" type="curve"/>
      <point x="361" y="804" type="line"/>
      <point x="309" y="766"/>
      <point x="258" y="712"/>
      <point x="258" y="682" type="curve" smooth="yes"/>
      <point x="258" y="670"/>
      <point x="261" y="668"/>
    </contour>
  </outline>
</glyph>
<glyph name="quotedblbase" format="1">
  <advance width="464"/>
  <unicode hex="201E"/>
  <outline>
    <contour>
      <point x="214" y="5" type="curve" smooth="yes"/>
      <point x="180" y="11"/>
      <point x="163" y="30"/>
      <point x="163" y="62" type="curve" smooth="yes"/>
      <point x="163" y="103"/>
      <point x="190" y="128"/>
      <point x="231" y="128" type="curve" smooth="yes"/>
      <point x="277" y="128"/>
      <point x="303" y="98"/>
      <point x="303" y="45" type="curve" smooth="yes"/>
      <point x="303" y="-27"/>
      <point x="256" y="-99"/>
      <point x="164" y="-162" type="curve"/>
      <point x="143" y="-136" type="line"/>
      <point x="195" y="-98"/>
      <point x="246" y="-44"/>
      <point x="246" y="-14" type="curve" smooth="yes"/>
      <point x="246" y="-2"/>
      <point x="243" y="0"/>
    </contour>
    <contour>
      <point x="22" y="5" type="curve" smooth="yes"/>
      <point x="-12" y="11"/>
      <point x="-29" y="30"/>
      <point x="-29" y="62" type="curve" smooth="yes"/>
      <point x="-29" y="103"/>
      <point x="-2" y="128"/>
      <point x="39" y="128" type="curve" smooth="yes"/>
      <point x="85" y="128"/>
      <point x="111" y="98"/>
      <point x="111" y="45" type="curve" smooth="yes"/>
      <point x="111" y="-27"/>
      <point x="64" y="-99"/>
      <point x="-28" y="-162" type="curve"/>
      <point x="-49" y="-136" type="line"/>
      <point x="3" y="-98"/>
      <point x="54" y="-44"/>
      <point x="54" y="-14" type="curve" smooth="yes"/>
      <point x="54" y="-2"/>
      <point x="51" y="0"/>
    </contour>
  </outline>
</glyph>
<glyph name="bullet" format="1">
  <advance width="427"/>
  <unicode hex="2022"/>
  <outline>
    <contour>
      <point x="251" y="490" type="curve" smooth="yes" name="hr00"/>
      <point x="313" y="490"/>
      <point x="368" y="446"/>
      <point x="368" y="388" type="curve" smooth="yes"/>
      <point x="368" y="323"/>
      <point x="299" y="260"/>
      <point x="230" y="260" type="curve" smooth="yes"/>
      <point x="160" y="260"/>
      <point x="116" y="302"/>
      <point x="116" y="365" type="curve" smooth="yes"/>
      <point x="116" y="434"/>
      <point x="180" y="490"/>
    </contour>
  </outline>
</glyph>
<glyph name="ellipsis" format="1">
  <advance width="764"/>
  <unicode hex="2026"/>
  <outline>
    <contour>
      <point x="54" y="137" type="curve" smooth="yes"/>
      <point x="94" y="137"/>
      <point x="129" y="109"/>
      <point x="129" y="72" type="curve" smooth="yes"/>
      <point x="129" y="30"/>
      <point x="85" y="-10"/>
      <point x="41" y="-10" type="curve" smooth="yes"/>
      <point x="-4" y="-10"/>
      <point x="-32" y="17"/>
      <point x="-32" y="57" type="curve" smooth="yes"/>
      <point x="-32" y="101"/>
      <point x="9" y="137"/>
    </contour>
    <contour>
      <point x="295" y="137" type="curve" smooth="yes"/>
      <point x="335" y="137"/>
      <point x="370" y="109"/>
      <point x="370" y="72" type="curve" smooth="yes"/>
      <point x="370" y="30"/>
      <point x="326" y="-10"/>
      <point x="282" y="-10" type="curve" smooth="yes"/>
      <point x="237" y="-10"/>
      <point x="209" y="17"/>
      <point x="209" y="57" type="curve" smooth="yes"/>
      <point x="209" y="101"/>
      <point x="250" y="137"/>
    </contour>
    <contour>
      <point x="536" y="137" type="curve" smooth="yes"/>
      <point x="576" y="137"/>
      <point x="611" y="109"/>
      <point x="611" y="72" type="curve" smooth="yes"/>
      <point x="611" y="30"/>
      <point x="567" y="-10"/>
      <point x="523" y="-10" type="curve" smooth="yes"/>
      <point x="478" y="-10"/>
      <point x="450" y="17"/>
      <point x="450" y="57" type="curve" smooth="yes"/>
      <point x="450" y="101"/>
      <point x="491" y="137"/>
    </contour>
  </outline>
</glyph>
<glyph name="guilsinglright" format="1">
  <advance width="300"/>
  <unicode hex="203A"/>
  <outline>
    <contour>
      <point x="149" y="436" type="line"/>
      <point x="223" y="250" type="line"/>
      <point x="218" y="238" type="line"/>
      <point x="-4" y="53" type="line"/>
      <point x="-20" y="68" type="line"/>
      <point x="129" y="255" type="line"/>
      <point x="129" y="425" type="line"/>
    </contour>
  </outline>
</glyph>
<glyph name="fraction" format="1">
  <advance width="220"/>
  <unicode hex="2044"/>
  <outline>
    <contour>
      <point x="-95" y="0" type="line"/>
      <point x="456" y="770" type="line"/>
      <point x="386" y="770" type="line"/>
      <point x="-163" y="0" type="line"/>
    </contour>
  </outline>
</glyph>
<glyph name="zerosuperior" format="1">
  <advance width="462"/>
  <unicode hex="2070"/>
  <outline>
    <contour>
      <point x="280" y="409" type="curve" smooth="yes"/>
      <point x="208" y="409"/>
      <point x="176" y="449"/>
      <point x="176" y="536" type="curve" smooth="yes"/>
      <point x="176" y="731"/>
      <point x="332" y="926"/>
      <point x="488" y="926" type="curve" smooth="yes"/>
      <point x="565" y="926"/>
      <point x="601" y="883"/>
      <point x="601" y="797" type="curve" smooth="yes"/>
      <point x="601" y="610"/>
      <point x="436" y="409"/>
    </contour>
    <contour>
      <point x="311" y="449" type="curve" smooth="yes"/>
      <point x="390" y="449"/>
      <point x="504" y="663"/>
      <point x="504" y="814" type="curve" smooth="yes"/>
      <point x="504" y="863"/>
      <point x="491" y="886"/>
      <point x="465" y="886" type="curve" smooth="yes"/>
      <point x="387" y="886"/>
      <point x="273" y="671"/>
      <point x="273" y="520" type="curve" smooth="yes"/>
      <point x="273" y="472"/>
      <point x="285" y="449"/>
    </contour>
  </outline>
</glyph>
<glyph name="foursuperior" format="1">
  <advance width="389"/>
  <unicode hex="2074"/>
  <outline>
    <contour>
      <point x="313" y="549" type="line"/>
      <point x="128" y="549" type="line"/>
      <point x="143" y="594" type="line"/>
      <point x="445" y="926" type="line"/>
      <point x="532" y="926" type="line"/>
      <point x="422" y="613" type="line"/>
      <point x="488" y="613" type="line"/>
      <point x="466" y="549" type="line"/>
      <point x="399" y="549" type="line"/>
      <point x="356" y="416" type="line"/>
      <point x="266" y="416" type="line"/>
    </contour>
    <contour>
      <point x="336" y="613" type="line"/>
      <point x="415" y="835" type="line"/>
      <point x="411" y="835" type="line"/>
      <point x="211" y="613" type="line"/>
    </contour>
  </outline>
</glyph>
<glyph name="eightsuperior" format="1">
  <advance width="424"/>
  <unicode hex="2078"/>
  <outline>
    <contour>
      <point x="302" y="704" type="line" smooth="yes"/>
      <point x="277" y="736"/>
      <point x="265" y="768"/>
      <point x="265" y="802" type="curve" smooth="yes"/>
      <point x="265" y="875"/>
      <point x="328" y="926"/>
      <point x="418" y="926" type="curve" smooth="yes"/>
      <point x="491" y="926"/>
      <point x="538" y="890"/>
      <point x="538" y="833" type="curve" smooth="yes"/>
      <point x="538" y="780"/>
      <point x="494" y="731"/>
      <point x="418" y="699" type="curve"/>
      <point x="439" y="673" type="line" smooth="yes"/>
      <point x="467" y="637"/>
      <point x="481" y="601"/>
      <point x="481" y="561" type="curve" smooth="yes"/>
      <point x="481" y="471"/>
      <point x="409" y="409"/>
      <point x="306" y="409" type="curve" smooth="yes"/>
      <point x="217" y="409"/>
      <point x="156" y="458"/>
      <point x="156" y="530" type="curve" smooth="yes"/>
      <point x="156" y="591"/>
      <point x="206" y="640"/>
      <point x="315" y="687" type="curve"/>
    </contour>
    <contour>
      <point x="335" y="662" type="line"/>
      <point x="261" y="619"/>
      <point x="239" y="591"/>
      <point x="239" y="538" type="curve" smooth="yes"/>
      <point x="239" y="482"/>
      <point x="269" y="450"/>
      <point x="320" y="450" type="curve" smooth="yes"/>
      <point x="371" y="450"/>
      <point x="402" y="480"/>
      <point x="402" y="532" type="curve" smooth="yes"/>
      <point x="402" y="560"/>
      <point x="391" y="589"/>
      <point x="371" y="616" type="curve" smooth="yes"/>
    </contour>
    <contour>
      <point x="388" y="723" type="curve"/>
      <point x="436" y="757"/>
      <point x="463" y="798"/>
      <point x="463" y="837" type="curve" smooth="yes"/>
      <point x="463" y="870"/>
      <point x="446" y="886"/>
      <point x="413" y="886" type="curve" smooth="yes"/>
      <point x="370" y="886"/>
      <point x="341" y="860"/>
      <point x="341" y="821" type="curve" smooth="yes"/>
      <point x="341" y="793"/>
      <point x="356" y="761"/>
    </contour>
  </outline>
</glyph>
<glyph name="ninesuperior" format="1">
  <advance width="407"/>
  <unicode hex="2079"/>
  <outline>
    <contour>
      <point x="192" y="440" type="line"/>
      <point x="270" y="469"/>
      <point x="346" y="532"/>
      <point x="395" y="607" type="curve"/>
      <point x="392" y="609" type="line"/>
      <point x="370" y="596"/>
      <point x="344" y="589"/>
      <point x="314" y="589" type="curve" smooth="yes"/>
      <point x="247" y="589"/>
      <point x="210" y="625"/>
      <point x="210" y="690" type="curve" smooth="yes"/>
      <point x="210" y="805"/>
      <point x="312" y="924"/>
      <point x="426" y="924" type="curve" smooth="yes"/>
      <point x="497" y="924"/>
      <point x="549" y="878"/>
      <point x="549" y="792" type="curve" smooth="yes"/>
      <point x="549" y="622"/>
      <point x="412" y="469"/>
      <point x="204" y="409" type="curve"/>
    </contour>
    <contour>
      <point x="427" y="888" type="curve" smooth="yes"/>
      <point x="370" y="888"/>
      <point x="307" y="788"/>
      <point x="307" y="698" type="curve" smooth="yes"/>
      <point x="307" y="655"/>
      <point x="323" y="633"/>
      <point x="355" y="633" type="curve" smooth="yes"/>
      <point x="417" y="633"/>
      <point x="468" y="716"/>
      <point x="468" y="817" type="curve" smooth="yes"/>
      <point x="468" y="866"/>
      <point x="455" y="888"/>
    </contour>
  </outline>
</glyph>
<glyph name="zeroinferior" format="1">
  <advance width="461"/>
  <unicode hex="2080"/>
  <outline>
    <contour>
      <point x="38" y="-161" type="curve" smooth="yes"/>
      <point x="-34" y="-161"/>
      <point x="-66" y="-121"/>
      <point x="-66" y="-34" type="curve" smooth="yes"/>
      <point x="-66" y="161"/>
      <point x="90" y="356"/>
      <point x="246" y="356" type="curve" smooth="yes"/>
      <point x="323" y="356"/>
      <point x="359" y="313"/>
      <point x="359" y="227" type="curve" smooth="yes"/>
      <point x="359" y="40"/>
      <point x="194" y="-161"/>
    </contour>
    <contour>
      <point x="69" y="-121" type="curve" smooth="yes"/>
      <point x="148" y="-121"/>
      <point x="262" y="93"/>
      <point x="262" y="244" type="curve" smooth="yes"/>
      <point x="262" y="293"/>
      <point x="249" y="316"/>
      <point x="223" y="316" type="curve" smooth="yes"/>
      <point x="145" y="316"/>
      <point x="31" y="101"/>
      <point x="31" y="-50" type="curve" smooth="yes"/>
      <point x="31" y="-98"/>
      <point x="43" y="-121"/>
    </contour>
  </outline>
</glyph>
<glyph name="fourinferior" format="1">
  <advance width="387"/>
  <unicode hex="2084"/>
  <outline>
    <contour>
      <point x="70" y="-21" type="line"/>
      <point x="-115" y="-21" type="line"/>
      <point x="-100" y="24" type="line"/>
      <point x="202" y="356" type="line"/>
      <point x="289" y="356" type="line"/>
      <point x="179" y="43" type="line"/>
      <point x="245" y="43" type="line"/>
      <point x="223" y="-21" type="line"/>
      <point x="156" y="-21" type="line"/>
      <point x="113" y="-154" type="line"/>
      <point x="23" y="-154" type="line"/>
    </contour>
    <contour>
      <point x="93" y="43" type="line"/>
      <point x="172" y="265" type="line"/>
      <point x="168" y="265" type="line"/>
      <point x="-32" y="43" type="line"/>
    </contour>
  </outline>
</glyph>
<glyph name="fiveinferior" format="1">
  <advance width="364"/>
  <unicode hex="2085"/>
  <outline>
    <contour>
      <point x="52" y="341" type="line"/>
      <point x="206" y="341" type="line"/>
      <point x="223" y="367" type="line"/>
      <point x="248" y="363" type="line"/>
      <point x="212" y="253" type="line"/>
      <point x="64" y="253" type="line"/>
      <point x="32" y="162" type="line"/>
      <point x="45" y="165"/>
      <point x="65" y="167"/>
      <point x="83" y="167" type="curve" smooth="yes"/>
      <point x="170" y="167"/>
      <point x="218" y="111"/>
      <point x="218" y="26" type="curve" smooth="yes"/>
      <point x="218" y="-76"/>
      <point x="115" y="-161"/>
      <point x="-9" y="-161" type="curve" smooth="yes"/>
      <point x="-72" y="-161"/>
      <point x="-113" y="-138"/>
      <point x="-113" y="-102" type="curve" smooth="yes"/>
      <point x="-113" y="-79"/>
      <point x="-98" y="-63"/>
      <point x="-74" y="-63" type="curve" smooth="yes"/>
      <point x="-30" y="-63"/>
      <point x="-48" y="-125"/>
      <point x="14" y="-125" type="curve" smooth="yes"/>
      <point x="77" y="-125"/>
      <point x="132" y="-66"/>
      <point x="132" y="-2" type="curve" smooth="yes"/>
      <point x="132" y="55"/>
      <point x="103" y="85"/>
      <point x="55" y="85" type="curve" smooth="yes"/>
      <point x="23" y="85"/>
      <point x="-2" y="82"/>
      <point x="-21" y="76" type="curve"/>
      <point x="-35" y="96" type="line"/>
    </contour>
  </outline>
</glyph>
<glyph name="seveninferior" format="1">
  <advance width="349"/>
  <unicode hex="2087"/>
  <outline>
    <contour>
      <point x="61" y="374" type="line"/>
      <point x="86" y="374" type="line"/>
      <point x="86" y="341" type="line"/>
      <point x="301" y="341" type="line"/>
      <point x="308" y="325" type="line"/>
      <point x="184" y="140"/>
      <point x="124" y="14"/>
      <point x="76" y="-114" type="curve" smooth="yes"/>
      <point x="62" y="-152"/>
      <point x="45" y="-161"/>
      <point x="19" y="-161" type="curve" smooth="yes"/>
      <point x="-9" y="-161"/>
      <point x="-24" y="-145"/>
      <point x="-24" y="-117" type="curve" smooth="yes"/>
      <point x="-24" y="-77"/>
      <point x="8" y="-21"/>
      <point x="212" y="255" type="curve"/>
      <point x="50" y="255" type="line"/>
      <point x="8" y="212" type="line"/>
      <point x="-23" y="212" type="line"/>
    </contour>
  </outline>
</glyph>
<glyph name="eightinferior" format="1">
  <advance width="423"/>
  <unicode hex="2088"/>
  <outline>
    <contour>
      <point x="60" y="134" type="line" smooth="yes"/>
      <point x="37" y="164"/>
      <point x="23" y="197"/>
      <point x="23" y="229" type="curve" smooth="yes"/>
      <point x="23" y="315"/>
      <point x="98" y="356"/>
      <point x="175" y="356" type="curve" smooth="yes"/>
      <point x="250" y="356"/>
      <point x="296" y="319"/>
      <point x="296" y="265" type="curve" smooth="yes"/>
      <point x="296" y="195"/>
      <point x="231" y="153"/>
      <point x="176" y="129" type="curve"/>
      <point x="197" y="103" type="line" smooth="yes"/>
      <point x="227" y="65"/>
      <point x="239" y="27"/>
      <point x="239" y="-3" type="curve" smooth="yes"/>
      <point x="239" y="-111"/>
      <point x="154" y="-161"/>
      <point x="69" y="-161" type="curve" smooth="yes"/>
      <point x="-38" y="-161"/>
      <point x="-86" y="-103"/>
      <point x="-86" y="-41" type="curve" smooth="yes"/>
      <point x="-86" y="48"/>
      <point x="10" y="90"/>
      <point x="73" y="117" type="curve"/>
    </contour>
    <contour>
      <point x="99" y="96" type="line"/>
      <point x="41" y="63"/>
      <point x="-3" y="38"/>
      <point x="-3" y="-37" type="curve" smooth="yes"/>
      <point x="-3" y="-81"/>
      <point x="23" y="-120"/>
      <point x="77" y="-120" type="curve" smooth="yes"/>
      <point x="129" y="-120"/>
      <point x="160" y="-86"/>
      <point x="160" y="-47" type="curve" smooth="yes"/>
      <point x="160" y="-15"/>
      <point x="152" y="8"/>
      <point x="129" y="46" type="curve" smooth="yes"/>
    </contour>
    <contour>
      <point x="146" y="153" type="curve"/>
      <point x="187" y="183"/>
      <point x="221" y="218"/>
      <point x="221" y="272" type="curve" smooth="yes"/>
      <point x="221" y="296"/>
      <point x="206" y="316"/>
      <point x="171" y="316" type="curve" smooth="yes"/>
      <point x="131" y="316"/>
      <point x="99" y="291"/>
      <point x="99" y="254" type="curve" smooth="yes"/>
      <point x="99" y="225"/>
      <point x="110" y="197"/>
    </contour>
  </outline>
</glyph>
<glyph name="Euro" format="1">
  <advance width="637"/>
  <unicode hex="20AC"/>
  <outline>
    <contour>
      <point x="115" y="441" type="line"/>
      <point x="178" y="441" type="line"/>
      <point x="168" y="416"/>
      <point x="159" y="390"/>
      <point x="152" y="364" type="curve"/>
      <point x="79" y="364" type="line"/>
      <point x="57" y="320" type="line"/>
      <point x="142" y="320" type="line"/>
      <point x="133" y="275"/>
      <point x="128" y="229"/>
      <point x="128" y="183" type="curve" smooth="yes"/>
      <point x="128" y="50"/>
      <point x="199" y="-10"/>
      <point x="293" y="-10" type="curve" smooth="yes"/>
      <point x="402" y="-10"/>
      <point x="522" y="65"/>
      <point x="522" y="143" type="curve" smooth="yes"/>
      <point x="522" y="177"/>
      <point x="508" y="189"/>
      <point x="482" y="189" type="curve" smooth="yes"/>
      <point x="450" y="189"/>
      <point x="425" y="166"/>
      <point x="401" y="121" type="curve" smooth="yes"/>
      <point x="370" y="63"/>
      <point x="332" y="31"/>
      <point x="288" y="31" type="curve" smooth="yes"/>
      <point x="248" y="31"/>
      <point x="230" y="65"/>
      <point x="230" y="139" type="curve" smooth="yes"/>
      <point x="230" y="195"/>
      <point x="239" y="257"/>
      <point x="256" y="320" type="curve"/>
      <point x="486" y="320" type="line"/>
      <point x="508" y="364" type="line"/>
      <point x="269" y="364" type="line"/>
      <point x="277" y="390"/>
      <point x="286" y="416"/>
      <point x="296" y="441" type="curve"/>
      <point x="544" y="441" type="line"/>
      <point x="566" y="485" type="line"/>
      <point x="315" y="485" type="line"/>
      <point x="379" y="626"/>
      <point x="468" y="738"/>
      <point x="539" y="738" type="curve" smooth="yes"/>
      <point x="577" y="738"/>
      <point x="590" y="721"/>
      <point x="590" y="663" type="curve" smooth="yes"/>
      <point x="590" y="620"/>
      <point x="617" y="596"/>
      <point x="650" y="596" type="curve" smooth="yes"/>
      <point x="684" y="596"/>
      <point x="707" y="621"/>
      <point x="707" y="652" type="curve" smooth="yes"/>
      <point x="707" y="723"/>
      <point x="640" y="780"/>
      <point x="552" y="780" type="curve" smooth="yes"/>
      <point x="414" y="780"/>
      <point x="277" y="654"/>
      <point x="197" y="485" type="curve"/>
      <point x="137" y="485" type="line"/>
    </contour>
  </outline>
</glyph>
<glyph name="commaaccent" format="1">
  <advance width="136"/>
  <unicode hex="F6C3"/>
  <outline>
    <contour>
      <point x="39" y="-159" type="curve" smooth="yes"/>
      <point x="20" y="-154"/>
      <point x="10" y="-139"/>
      <point x="10" y="-115" type="curve" smooth="yes"/>
      <point x="10" y="-78"/>
      <point x="31" y="-54"/>
      <point x="76" y="-54" type="curve" smooth="yes"/>
      <point x="108" y="-54"/>
      <point x="126" y="-74"/>
      <point x="126" y="-110" type="curve" smooth="yes"/>
      <point x="126" y="-161"/>
      <point x="81" y="-214"/>
      <point x="3" y="-257" type="curve"/>
      <point x="-12" y="-238" type="line"/>
      <point x="29" y="-218"/>
      <point x="62" y="-187"/>
      <point x="62" y="-171" type="curve" smooth="yes"/>
      <point x="62" y="-164"/>
      <point x="58" y="-163"/>
    </contour>
    <contour>
      <point x="93" y="-10" type="move" name="_bottom"/>
    </contour>
  </outline>
</glyph>
<glyph name="f_f" format="1">
  <advance width="669"/>
  <unicode hex="FB00"/>
  <outline>
    <contour>
      <point x="515" y="780" type="curve" smooth="yes"/>
      <point x="571" y="780"/>
      <point x="621" y="762"/>
      <point x="651" y="735" type="curve"/>
      <point x="703" y="792"/>
      <point x="778" y="830"/>
      <point x="848" y="830" type="curve" smooth="yes" name="hr01"/>
      <point x="925" y="830"/>
      <point x="986" y="785"/>
      <point x="986" y="728" type="curve" smooth="yes"/>
      <point x="986" y="697"/>
      <point x="968" y="678"/>
      <point x="940" y="678" type="curve" smooth="yes"/>
      <point x="911" y="678"/>
      <point x="891" y="697"/>
      <point x="891" y="723" type="curve" smooth="yes"/>
      <point x="891" y="739"/>
      <point x="898" y="754"/>
      <point x="898" y="767" type="curve" smooth="yes"/>
      <point x="898" y="789"/>
      <point x="878" y="803"/>
      <point x="848" y="803" type="curve" smooth="yes" name="hr02"/>
      <point x="785" y="803"/>
      <point x="734" y="740"/>
      <point x="674" y="590" type="curve" smooth="yes"/>
      <point x="650" y="530" type="line"/>
      <point x="748" y="530" type="line"/>
      <point x="735" y="498" type="line"/>
      <point x="638" y="498" type="line"/>
      <point x="511" y="203" type="line" smooth="yes"/>
      <point x="370" y="-123"/>
      <point x="260" y="-256"/>
      <point x="134" y="-256" type="curve" smooth="yes"/>
      <point x="74" y="-256"/>
      <point x="33" y="-224"/>
      <point x="33" y="-176" type="curve" smooth="yes" name="hr03"/>
      <point x="33" y="-147"/>
      <point x="52" y="-127"/>
      <point x="79" y="-127" type="curve" smooth="yes"/>
      <point x="136" y="-127"/>
      <point x="114" y="-221"/>
      <point x="162" y="-221" type="curve" smooth="yes"/>
      <point x="214" y="-221"/>
      <point x="282" y="-110"/>
      <point x="384" y="143" type="curve" smooth="yes"/>
      <point x="528" y="498" type="line"/>
      <point x="293" y="498" type="line"/>
      <point x="166" y="203" type="line" smooth="yes"/>
      <point x="29" y="-115"/>
      <point x="-93" y="-256"/>
      <point x="-231" y="-256" type="curve" smooth="yes"/>
      <point x="-297" y="-256"/>
      <point x="-342" y="-223"/>
      <point x="-342" y="-176" type="curve" smooth="yes"/>
      <point x="-342" y="-148"/>
      <point x="-326" y="-132"/>
      <point x="-296" y="-132" type="curve" smooth="yes" name="hr04"/>
      <point x="-226" y="-132"/>
      <point x="-256" y="-221"/>
      <point x="-203" y="-221" type="curve" smooth="yes" name="hr05"/>
      <point x="-141" y="-221"/>
      <point x="-58" y="-96"/>
      <point x="39" y="143" type="curve" smooth="yes"/>
      <point x="183" y="498" type="line"/>
      <point x="95" y="498" type="line"/>
      <point x="107" y="530" type="line"/>
      <point x="196" y="530" type="line"/>
      <point x="205" y="550" type="line" smooth="yes"/>
      <point x="270" y="693"/>
      <point x="388" y="780"/>
    </contour>
    <contour>
      <point x="541" y="530" type="line"/>
      <point x="601" y="661" type="line"/>
      <point x="601" y="723"/>
      <point x="576" y="751"/>
      <point x="522" y="751" type="curve" smooth="yes"/>
      <point x="437" y="751"/>
      <point x="368" y="682"/>
      <point x="309" y="540" type="curve" smooth="yes"/>
      <point x="305" y="530" type="line"/>
    </contour>
  </outline>
</glyph>
<glyph name="f_f_i" format="1">
  <advance width="1018"/>
  <unicode hex="FB03"/>
  <outline>
    <contour>
      <point x="821" y="530" type="line" smooth="yes"/>
      <point x="854" y="530"/>
      <point x="901" y="540"/>
      <point x="926" y="540" type="curve" smooth="yes" name="hr01"/>
      <point x="952" y="540"/>
      <point x="970" y="519"/>
      <point x="970" y="490" type="curve" smooth="yes"/>
      <point x="970" y="473"/>
      <point x="964" y="449"/>
      <point x="954" y="425" type="curve" smooth="yes"/>
      <point x="811" y="81" type="line" smooth="yes"/>
      <point x="809" y="75"/>
      <point x="808" y="72"/>
      <point x="808" y="68" type="curve" smooth="yes"/>
      <point x="808" y="57"/>
      <point x="816" y="49"/>
      <point x="829" y="49" type="curve" smooth="yes"/>
      <point x="847" y="49"/>
      <point x="867" y="64"/>
      <point x="933" y="129" type="curve"/>
      <point x="953" y="117" type="line"/>
      <point x="890" y="38"/>
      <point x="818" y="-10"/>
      <point x="763" y="-10" type="curve" smooth="yes"/>
      <point x="724" y="-10"/>
      <point x="701" y="11"/>
      <point x="701" y="47" type="curve" smooth="yes"/>
      <point x="701" y="65"/>
      <point x="707" y="88"/>
      <point x="716" y="111" type="curve" smooth="yes"/>
      <point x="861" y="467" type="line" smooth="yes"/>
      <point x="864" y="474"/>
      <point x="866" y="481"/>
      <point x="866" y="485" type="curve" smooth="yes"/>
      <point x="866" y="493"/>
      <point x="861" y="498"/>
      <point x="853" y="498" type="curve" smooth="yes" name="hr02"/>
      <point x="638" y="498" type="line"/>
      <point x="511" y="203" type="line" smooth="yes"/>
      <point x="374" y="-115"/>
      <point x="252" y="-256"/>
      <point x="114" y="-256" type="curve" smooth="yes"/>
      <point x="48" y="-256"/>
      <point x="3" y="-223"/>
      <point x="3" y="-176" type="curve" smooth="yes"/>
      <point x="3" y="-148"/>
      <point x="19" y="-132"/>
      <point x="49" y="-132" type="curve" smooth="yes"/>
      <point x="119" y="-132"/>
      <point x="89" y="-221"/>
      <point x="142" y="-221" type="curve" smooth="yes" name="hr03"/>
      <point x="204" y="-221"/>
      <point x="287" y="-96"/>
      <point x="384" y="143" type="curve" smooth="yes"/>
      <point x="528" y="498" type="line"/>
      <point x="293" y="498" type="line"/>
      <point x="166" y="203" type="line" smooth="yes"/>
      <point x="29" y="-115"/>
      <point x="-93" y="-256"/>
      <point x="-231" y="-256" type="curve" smooth="yes"/>
      <point x="-297" y="-256"/>
      <point x="-342" y="-223"/>
      <point x="-342" y="-176" type="curve" smooth="yes"/>
      <point x="-342" y="-148"/>
      <point x="-326" y="-132"/>
      <point x="-296" y="-132" type="curve" smooth="yes" name="hr04"/>
      <point x="-226" y="-132"/>
      <point x="-256" y="-221"/>
      <point x="-203" y="-221" type="curve" smooth="yes" name="hr05"/>
      <point x="-141" y="-221"/>
      <point x="-58" y="-96"/>
      <point x="39" y="143" type="curve" smooth="yes"/>
      <point x="183" y="498" type="line"/>
      <point x="95" y="498" type="line"/>
      <point x="107" y="530" type="line"/>
      <point x="196" y="530" type="line"/>
      <point x="205" y="550" type="line" smooth="yes"/>
      <point x="270" y="693"/>
      <point x="388" y="780"/>
      <point x="515" y="780" type="curve" smooth="yes"/>
      <point x="574" y="780"/>
      <point x="626" y="761"/>
      <point x="655" y="731" type="curve"/>
      <point x="714" y="795"/>
      <point x="788" y="830"/>
      <point x="869" y="830" type="curve" smooth="yes" name="hr06"/>
      <point x="961" y="830"/>
      <point x="1031" y="784"/>
      <point x="1031" y="724" type="curve" smooth="yes"/>
      <point x="1031" y="688"/>
      <point x="1007" y="663"/>
      <point x="974" y="663" type="curve" smooth="yes"/>
      <point x="941" y="663"/>
      <point x="916" y="687"/>
      <point x="916" y="720" type="curve" smooth="yes"/>
      <point x="916" y="743"/>
      <point x="928" y="752"/>
      <point x="928" y="768" type="curve" smooth="yes"/>
      <point x="928" y="789"/>
      <point x="904" y="803"/>
      <point x="869" y="803" type="curve" smooth="yes" name="hr07"/>
      <point x="794" y="803"/>
      <point x="732" y="736"/>
      <point x="674" y="590" type="curve" smooth="yes"/>
      <point x="650" y="530" type="line"/>
    </contour>
    <contour>
      <point x="522" y="751" type="curve" smooth="yes"/>
      <point x="437" y="751"/>
      <point x="368" y="682"/>
      <point x="309" y="540" type="curve" smooth="yes" name="hr08"/>
      <point x="305" y="530" type="line" name="hr09"/>
      <point x="541" y="530" type="line"/>
      <point x="572" y="600" type="line" smooth="yes"/>
      <point x="581" y="620"/>
      <point x="590" y="639"/>
      <point x="601" y="657" type="curve"/>
      <point x="601" y="719"/>
      <point x="576" y="751"/>
    </contour>
  </outline>
</glyph>
<glyph name="acute.cap" format="1">
  <advance width="248"/>
  <outline>
    <contour>
      <point x="10" y="837" type="line"/>
      <point x="154" y="944" type="line" smooth="yes"/>
      <point x="169" y="955"/>
      <point x="182" y="960"/>
      <point x="198" y="960" type="curve" smooth="yes"/>
      <point x="220" y="960"/>
      <point x="241" y="942"/>
      <point x="241" y="917" type="curve" smooth="yes"/>
      <point x="241" y="894"/>
      <point x="225" y="875"/>
      <point x="173" y="860" type="curve" smooth="yes"/>
      <point x="21" y="816" type="line"/>
    </contour>
    <contour>
      <point x="124" y="830" type="move" name="_topcap"/>
    </contour>
  </outline>
</glyph>
<glyph name="breve.cap" format="1">
  <advance width="314"/>
  <outline>
    <contour>
      <point x="55" y="960" type="line"/>
      <point x="56" y="919"/>
      <point x="82" y="895"/>
      <point x="134" y="895" type="curve" smooth="yes"/>
      <point x="178" y="895"/>
      <point x="222" y="914"/>
      <point x="264" y="960" type="curve"/>
      <point x="304" y="960" type="line"/>
      <point x="221" y="836"/>
      <point x="143" y="821"/>
      <point x="100" y="821" type="curve" smooth="yes"/>
      <point x="54" y="821"/>
      <point x="10" y="843"/>
      <point x="10" y="904" type="curve" smooth="yes"/>
      <point x="10" y="920"/>
      <point x="13" y="938"/>
      <point x="20" y="960" type="curve"/>
    </contour>
    <contour>
      <point x="101" y="830" type="move" name="_topcap"/>
    </contour>
  </outline>
</glyph>
<glyph name="caron.cap" format="1">
  <advance width="315"/>
  <outline>
    <contour>
      <point x="108" y="820" type="curve" smooth="yes"/>
      <point x="133" y="820"/>
      <point x="148" y="830"/>
      <point x="172" y="847" type="curve" smooth="yes"/>
      <point x="304" y="943" type="line"/>
      <point x="292" y="960" type="line"/>
      <point x="127" y="892" type="line"/>
      <point x="36" y="960" type="line"/>
      <point x="10" y="943" type="line"/>
      <point x="64" y="847" type="line" smooth="yes"/>
      <point x="75" y="828"/>
      <point x="85" y="820"/>
    </contour>
    <contour>
      <point x="104" y="830" type="move" name="_topcap"/>
    </contour>
  </outline>
</glyph>
<glyph name="comma.tnum" format="1">
  <advance width="300"/>
  <outline>
    <contour>
      <point x="94" y="0" type="curve" smooth="yes"/>
      <point x="56" y="7"/>
      <point x="37" y="28"/>
      <point x="37" y="64" type="curve" smooth="yes"/>
      <point x="37" y="109"/>
      <point x="67" y="137"/>
      <point x="113" y="137" type="curve" smooth="yes"/>
      <point x="164" y="137"/>
      <point x="193" y="104"/>
      <point x="193" y="45" type="curve" smooth="yes"/>
      <point x="193" y="-36"/>
      <point x="140" y="-116"/>
      <point x="38" y="-186" type="curve"/>
      <point x="20" y="-165" type="line"/>
      <point x="78" y="-123"/>
      <point x="129" y="-55"/>
      <point x="129" y="-21" type="curve" smooth="yes"/>
      <point x="129" y="-8"/>
      <point x="126" y="-6"/>
    </contour>
  </outline>
</glyph>
<glyph name="degree.tnum" format="1">
  <advance width="312"/>
  <outline>
    <contour>
      <point x="156" y="587" type="curve" smooth="yes"/>
      <point x="88" y="587"/>
      <point x="35" y="640"/>
      <point x="35" y="708" type="curve" smooth="yes"/>
      <point x="35" y="776"/>
      <point x="88" y="830"/>
      <point x="156" y="830" type="curve" smooth="yes"/>
      <point x="223" y="830"/>
      <point x="277" y="775"/>
      <point x="277" y="708" type="curve" smooth="yes"/>
      <point x="277" y="640"/>
      <point x="224" y="587"/>
    </contour>
    <contour>
      <point x="76" y="708" type="curve" smooth="yes"/>
      <point x="76" y="662"/>
      <point x="110" y="628"/>
      <point x="156" y="628" type="curve" smooth="yes"/>
      <point x="204" y="628"/>
      <point x="236" y="662"/>
      <point x="236" y="708" type="curve" smooth="yes"/>
      <point x="236" y="756"/>
      <point x="204" y="790"/>
      <point x="156" y="790" type="curve" smooth="yes"/>
      <point x="110" y="790"/>
      <point x="76" y="756"/>
    </contour>
  </outline>
</glyph>
<glyph name="dollar.tnum" format="1">
  <advance width="586"/>
  <outline>
    <contour>
      <point x="554" y="912" type="line"/>
      <point x="509" y="912" type="line"/>
      <point x="455" y="779" type="line"/>
      <point x="448" y="779"/>
      <point x="440" y="780"/>
      <point x="432" y="780" type="curve" smooth="yes"/>
      <point x="283" y="780"/>
      <point x="176" y="684"/>
      <point x="176" y="551" type="curve" smooth="yes"/>
      <point x="176" y="455"/>
      <point x="229" y="401"/>
      <point x="281" y="346" type="curve"/>
      <point x="156" y="36" type="line"/>
      <point x="126" y="47"/>
      <point x="113" y="75"/>
      <point x="105" y="135" type="curve" smooth="yes"/>
      <point x="99" y="180"/>
      <point x="81" y="202"/>
      <point x="50" y="202" type="curve" smooth="yes"/>
      <point x="17" y="202"/>
      <point x="-3" y="179"/>
      <point x="-3" y="141" type="curve" smooth="yes"/>
      <point x="-3" y="69"/>
      <point x="55" y="12"/>
      <point x="139" y="-5" type="curve"/>
      <point x="81" y="-150" type="line"/>
      <point x="126" y="-150" type="line"/>
      <point x="182" y="-10" type="line"/>
      <point x="192" y="-10" type="line" smooth="yes"/>
      <point x="356" y="-10"/>
      <point x="473" y="88"/>
      <point x="473" y="223" type="curve" smooth="yes"/>
      <point x="473" y="285"/>
      <point x="453" y="326"/>
      <point x="361" y="434" type="curve"/>
      <point x="479" y="728" type="line"/>
      <point x="501" y="714"/>
      <point x="512" y="686"/>
      <point x="519" y="635" type="curve" smooth="yes"/>
      <point x="525" y="590"/>
      <point x="543" y="568"/>
      <point x="574" y="568" type="curve" smooth="yes"/>
      <point x="607" y="568"/>
      <point x="627" y="591"/>
      <point x="627" y="629" type="curve" smooth="yes"/>
      <point x="627" y="697"/>
      <point x="575" y="752"/>
      <point x="497" y="772" type="curve"/>
    </contour>
    <contour>
      <point x="198" y="30" type="curve"/>
      <point x="311" y="311" type="line"/>
      <point x="341" y="274"/>
      <point x="365" y="233"/>
      <point x="365" y="177" type="curve" smooth="yes"/>
      <point x="365" y="86"/>
      <point x="303" y="30"/>
    </contour>
    <contour>
      <point x="281" y="586" type="curve" smooth="yes"/>
      <point x="281" y="685"/>
      <point x="332" y="740"/>
      <point x="423" y="740" type="curve" smooth="yes"/>
      <point x="429" y="740"/>
      <point x="434" y="740"/>
      <point x="439" y="739" type="curve"/>
      <point x="331" y="469" type="line"/>
      <point x="287" y="523"/>
      <point x="281" y="542"/>
    </contour>
  </outline>
</glyph>
<glyph name="eight.numerator" format="1">
  <advance width="396"/>
  <outline>
    <contour>
      <point x="244" y="579" type="line" smooth="yes"/>
      <point x="223" y="606"/>
      <point x="210" y="636"/>
      <point x="210" y="665" type="curve" smooth="yes"/>
      <point x="210" y="742"/>
      <point x="278" y="779"/>
      <point x="346" y="779" type="curve" smooth="yes"/>
      <point x="414" y="779"/>
      <point x="455" y="746"/>
      <point x="455" y="697" type="curve" smooth="yes"/>
      <point x="455" y="634"/>
      <point x="397" y="596"/>
      <point x="347" y="574" type="curve"/>
      <point x="366" y="551" type="line" smooth="yes"/>
      <point x="393" y="518"/>
      <point x="404" y="483"/>
      <point x="404" y="456" type="curve" smooth="yes"/>
      <point x="404" y="359"/>
      <point x="328" y="314"/>
      <point x="252" y="314" type="curve" smooth="yes"/>
      <point x="155" y="314"/>
      <point x="112" y="366"/>
      <point x="112" y="422" type="curve" smooth="yes"/>
      <point x="112" y="502"/>
      <point x="199" y="540"/>
      <point x="255" y="564" type="curve"/>
    </contour>
    <contour>
      <point x="279" y="546" type="line"/>
      <point x="226" y="516"/>
      <point x="187" y="493"/>
      <point x="187" y="426" type="curve" smooth="yes"/>
      <point x="187" y="386"/>
      <point x="210" y="351"/>
      <point x="259" y="351" type="curve" smooth="yes"/>
      <point x="306" y="351"/>
      <point x="334" y="382"/>
      <point x="334" y="417" type="curve" smooth="yes"/>
      <point x="334" y="446"/>
      <point x="327" y="466"/>
      <point x="306" y="501" type="curve" smooth="yes"/>
    </contour>
    <contour>
      <point x="321" y="596" type="curve"/>
      <point x="357" y="623"/>
      <point x="388" y="655"/>
      <point x="388" y="703" type="curve" smooth="yes"/>
      <point x="388" y="725"/>
      <point x="374" y="743"/>
      <point x="344" y="743" type="curve" smooth="yes"/>
      <point x="308" y="743"/>
      <point x="279" y="720"/>
      <point x="279" y="687" type="curve" smooth="yes"/>
      <point x="279" y="661"/>
      <point x="289" y="636"/>
    </contour>
  </outline>
</glyph>
<glyph name="eight.oldstyle" format="1">
  <advance width="562"/>
  <outline>
    <contour>
      <point x="391" y="419" type="curve"/>
      <point x="497" y="471"/>
      <point x="570" y="562"/>
      <point x="570" y="645" type="curve" smooth="yes"/>
      <point x="570" y="713"/>
      <point x="516" y="758"/>
      <point x="432" y="758" type="curve" smooth="yes"/>
      <point x="293" y="758"/>
      <point x="177" y="658"/>
      <point x="177" y="542" type="curve" smooth="yes"/>
      <point x="177" y="486"/>
      <point x="203" y="436"/>
      <point x="248" y="389" type="curve"/>
      <point x="103" y="328"/>
      <point x="17" y="231"/>
      <point x="17" y="129" type="curve" smooth="yes"/>
      <point x="17" y="41"/>
      <point x="77" y="-10"/>
      <point x="181" y="-10" type="curve" smooth="yes"/>
      <point x="342" y="-10"/>
      <point x="463" y="104"/>
      <point x="463" y="255" type="curve" smooth="yes"/>
      <point x="463" y="296"/>
      <point x="444" y="353"/>
    </contour>
    <contour>
      <point x="362" y="444" type="curve"/>
      <point x="308" y="487"/>
      <point x="280" y="545"/>
      <point x="280" y="595" type="curve" smooth="yes"/>
      <point x="280" y="661"/>
      <point x="338" y="713"/>
      <point x="413" y="713" type="curve" smooth="yes"/>
      <point x="456" y="713"/>
      <point x="482" y="687"/>
      <point x="482" y="643" type="curve" smooth="yes"/>
      <point x="482" y="580"/>
      <point x="437" y="498"/>
    </contour>
    <contour>
      <point x="276" y="360" type="curve"/>
      <point x="332" y="313"/>
      <point x="355" y="255"/>
      <point x="355" y="197" type="curve" smooth="yes"/>
      <point x="355" y="105"/>
      <point x="288" y="35"/>
      <point x="198" y="35" type="curve" smooth="yes"/>
      <point x="142" y="35"/>
      <point x="114" y="63"/>
      <point x="114" y="121" type="curve" smooth="yes"/>
      <point x="114" y="209"/>
      <point x="184" y="315"/>
    </contour>
  </outline>
</glyph>
<glyph name="f_f_h" format="1">
  <advance width="1270"/>
  <outline>
    <contour>
      <point x="855" y="830" type="curve" smooth="yes"/>
      <point x="902" y="830"/>
      <point x="943" y="814"/>
      <point x="968" y="790" type="curve"/>
      <point x="1079" y="820" type="line"/>
      <point x="1083" y="816" type="line"/>
      <point x="891" y="382" type="line"/>
      <point x="896" y="380" type="line"/>
      <point x="980" y="493"/>
      <point x="1045" y="539"/>
      <point x="1120" y="539" type="curve" smooth="yes"/>
      <point x="1175" y="539"/>
      <point x="1212" y="511"/>
      <point x="1212" y="460" type="curve" smooth="yes"/>
      <point x="1212" y="433"/>
      <point x="1205" y="401"/>
      <point x="1185" y="360" type="curve" smooth="yes"/>
      <point x="1068" y="121" type="line" smooth="yes"/>
      <point x="1055" y="94"/>
      <point x="1048" y="76"/>
      <point x="1048" y="64" type="curve" smooth="yes"/>
      <point x="1048" y="54"/>
      <point x="1054" y="49"/>
      <point x="1063" y="49" type="curve" smooth="yes"/>
      <point x="1085" y="49"/>
      <point x="1129" y="85"/>
      <point x="1177" y="139" type="curve"/>
      <point x="1198" y="124" type="line"/>
      <point x="1130" y="36"/>
      <point x="1062" y="-10"/>
      <point x="999" y="-10" type="curve" smooth="yes"/>
      <point x="956" y="-10"/>
      <point x="940" y="9"/>
      <point x="940" y="48" type="curve" smooth="yes"/>
      <point x="940" y="75"/>
      <point x="952" y="112"/>
      <point x="975" y="158" type="curve" smooth="yes"/>
      <point x="1109" y="427" type="line" smooth="yes"/>
      <point x="1118" y="446"/>
      <point x="1123" y="463"/>
      <point x="1123" y="477" type="curve" smooth="yes"/>
      <point x="1123" y="495"/>
      <point x="1113" y="505"/>
      <point x="1094" y="505" type="curve" smooth="yes"/>
      <point x="1026" y="505"/>
      <point x="907" y="371"/>
      <point x="824" y="194" type="curve" smooth="yes"/>
      <point x="733" y="0" type="line" name="hr01"/>
      <point x="640" y="0" type="line"/>
      <point x="910" y="654" type="line"/>
      <point x="917" y="677"/>
      <point x="920" y="694"/>
      <point x="920" y="717" type="curve" smooth="yes"/>
      <point x="920" y="777"/>
      <point x="901" y="803"/>
      <point x="857" y="803" type="curve" smooth="yes"/>
      <point x="788" y="803"/>
      <point x="733" y="739"/>
      <point x="674" y="590" type="curve" smooth="yes"/>
      <point x="650" y="530" type="line"/>
      <point x="748" y="530" type="line"/>
      <point x="735" y="498" type="line"/>
      <point x="638" y="498" type="line"/>
      <point x="511" y="203" type="line" smooth="yes"/>
      <point x="374" y="-115"/>
      <point x="252" y="-256"/>
      <point x="114" y="-256" type="curve" smooth="yes"/>
      <point x="48" y="-256"/>
      <point x="3" y="-223"/>
      <point x="3" y="-176" type="curve" smooth="yes"/>
      <point x="3" y="-148"/>
      <point x="19" y="-132"/>
      <point x="49" y="-132" type="curve" smooth="yes"/>
      <point x="119" y="-132"/>
      <point x="89" y="-221"/>
      <point x="142" y="-221" type="curve" smooth="yes" name="hr02"/>
      <point x="204" y="-221"/>
      <point x="287" y="-97"/>
      <point x="384" y="143" type="curve" smooth="yes"/>
      <point x="528" y="498" type="line"/>
      <point x="293" y="498" type="line"/>
      <point x="166" y="203" type="line" smooth="yes"/>
      <point x="29" y="-115"/>
      <point x="-93" y="-256"/>
      <point x="-231" y="-256" type="curve" smooth="yes"/>
      <point x="-297" y="-256"/>
      <point x="-342" y="-223"/>
      <point x="-342" y="-176" type="curve" smooth="yes"/>
      <point x="-342" y="-148"/>
      <point x="-326" y="-132"/>
      <point x="-296" y="-132" type="curve" smooth="yes" name="hr03"/>
      <point x="-226" y="-132"/>
      <point x="-256" y="-221"/>
      <point x="-203" y="-221" type="curve" smooth="yes" name="hr04"/>
      <point x="-141" y="-221"/>
      <point x="-58" y="-96"/>
      <point x="39" y="143" type="curve" smooth="yes"/>
      <point x="183" y="498" type="line"/>
      <point x="95" y="498" type="line"/>
      <point x="107" y="530" type="line"/>
      <point x="196" y="530" type="line"/>
      <point x="205" y="550" type="line" smooth="yes"/>
      <point x="270" y="693"/>
      <point x="388" y="780"/>
      <point x="515" y="780" type="curve" smooth="yes"/>
      <point x="574" y="780"/>
      <point x="625" y="761"/>
      <point x="655" y="732" type="curve"/>
      <point x="712" y="795"/>
      <point x="781" y="830"/>
    </contour>
    <contour>
      <point x="522" y="751" type="curve" smooth="yes"/>
      <point x="437" y="751"/>
      <point x="368" y="682"/>
      <point x="309" y="540" type="curve" smooth="yes"/>
      <point x="305" y="530" type="line"/>
      <point x="541" y="530" type="line"/>
      <point x="572" y="600" type="line" smooth="yes"/>
      <point x="581" y="620"/>
      <point x="590" y="639"/>
      <point x="601" y="657" type="curve"/>
      <point x="601" y="719"/>
      <point x="576" y="751"/>
    </contour>
  </outline>
</glyph>
<glyph name="f_f_j" format="1">
  <advance width="985"/>
  <outline>
    <contour>
      <point x="650" y="530" type="line"/>
      <point x="674" y="590" type="line" smooth="yes"/>
      <point x="732" y="736"/>
      <point x="794" y="803"/>
      <point x="869" y="803" type="curve" smooth="yes"/>
      <point x="904" y="803"/>
      <point x="928" y="789"/>
      <point x="928" y="768" type="curve" smooth="yes"/>
      <point x="928" y="752"/>
      <point x="916" y="743"/>
      <point x="916" y="720" type="curve" smooth="yes"/>
      <point x="916" y="687"/>
      <point x="941" y="663"/>
      <point x="974" y="663" type="curve" smooth="yes"/>
      <point x="1007" y="663"/>
      <point x="1031" y="688"/>
      <point x="1031" y="724" type="curve" smooth="yes"/>
      <point x="1031" y="784"/>
      <point x="961" y="830"/>
      <point x="869" y="830" type="curve" smooth="yes"/>
      <point x="788" y="830"/>
      <point x="714" y="795"/>
      <point x="655" y="731" type="curve"/>
      <point x="626" y="761"/>
      <point x="574" y="780"/>
      <point x="515" y="780" type="curve" smooth="yes"/>
      <point x="388" y="780"/>
      <point x="270" y="693"/>
      <point x="205" y="550" type="curve" smooth="yes"/>
      <point x="196" y="530" type="line"/>
      <point x="107" y="530" type="line"/>
      <point x="95" y="498" type="line" name="hr01"/>
      <point x="183" y="498" type="line"/>
      <point x="39" y="143" type="line" smooth="yes"/>
      <point x="-58" y="-96"/>
      <point x="-141" y="-221"/>
      <point x="-203" y="-221" type="curve" smooth="yes"/>
      <point x="-256" y="-221"/>
      <point x="-226" y="-132"/>
      <point x="-296" y="-132" type="curve" smooth="yes" name="hr02"/>
      <point x="-326" y="-132"/>
      <point x="-342" y="-148"/>
      <point x="-342" y="-176" type="curve" smooth="yes"/>
      <point x="-342" y="-223"/>
      <point x="-297" y="-256"/>
      <point x="-231" y="-256" type="curve" smooth="yes"/>
      <point x="-93" y="-256"/>
      <point x="29" y="-115"/>
      <point x="166" y="203" type="curve" smooth="yes"/>
      <point x="293" y="498" type="line"/>
      <point x="528" y="498" type="line"/>
      <point x="384" y="143" type="line" smooth="yes"/>
      <point x="287" y="-96"/>
      <point x="204" y="-221"/>
      <point x="142" y="-221" type="curve" smooth="yes" name="hr03"/>
      <point x="89" y="-221"/>
      <point x="119" y="-132"/>
      <point x="49" y="-132" type="curve" smooth="yes" name="hr04"/>
      <point x="19" y="-132"/>
      <point x="3" y="-148"/>
      <point x="3" y="-176" type="curve" smooth="yes"/>
      <point x="3" y="-223"/>
      <point x="48" y="-256"/>
      <point x="114" y="-256" type="curve" smooth="yes"/>
      <point x="252" y="-256"/>
      <point x="374" y="-115"/>
      <point x="511" y="203" type="curve" smooth="yes"/>
      <point x="638" y="498" type="line"/>
      <point x="823" y="498" type="line" smooth="yes"/>
      <point x="849" y="498"/>
      <point x="856" y="489"/>
      <point x="856" y="479" type="curve" smooth="yes"/>
      <point x="856" y="458"/>
      <point x="841" y="419"/>
      <point x="776" y="252" type="curve" smooth="yes"/>
      <point x="666" y="-28" type="line" smooth="yes"/>
      <point x="608" y="-176"/>
      <point x="574" y="-221"/>
      <point x="534" y="-221" type="curve" smooth="yes" name="hr05"/>
      <point x="470" y="-221"/>
      <point x="504" y="-132"/>
      <point x="434" y="-132" type="curve" smooth="yes" name="hr06"/>
      <point x="403" y="-132"/>
      <point x="388" y="-149"/>
      <point x="388" y="-179" type="curve" smooth="yes"/>
      <point x="388" y="-226"/>
      <point x="437" y="-256"/>
      <point x="505" y="-256" type="curve" smooth="yes"/>
      <point x="604" y="-256"/>
      <point x="682" y="-194"/>
      <point x="733" y="-81" type="curve" smooth="yes"/>
      <point x="860" y="203" type="line" smooth="yes"/>
      <point x="931" y="361"/>
      <point x="962" y="456"/>
      <point x="963" y="492" type="curve" smooth="yes"/>
      <point x="963" y="522"/>
      <point x="949" y="540"/>
      <point x="920" y="540" type="curve" smooth="yes"/>
      <point x="891" y="540"/>
      <point x="861" y="530"/>
      <point x="821" y="530" type="curve" smooth="yes" name="hr07"/>
    </contour>
    <contour>
      <point x="309" y="540" type="line" smooth="yes" name="hr08"/>
      <point x="368" y="682"/>
      <point x="437" y="751"/>
      <point x="522" y="751" type="curve" smooth="yes"/>
      <point x="576" y="751"/>
      <point x="601" y="719"/>
      <point x="601" y="657" type="curve"/>
      <point x="590" y="639"/>
      <point x="581" y="620"/>
      <point x="572" y="600" type="curve" smooth="yes"/>
      <point x="541" y="530" type="line" name="hr09"/>
      <point x="305" y="530" type="line"/>
    </contour>
  </outline>
</glyph>
<glyph name="f_f_k" format="1">
  <advance width="1232"/>
  <outline>
    <contour>
      <point x="855" y="830" type="curve" smooth="yes"/>
      <point x="902" y="830"/>
      <point x="943" y="814"/>
      <point x="968" y="790" type="curve"/>
      <point x="1080" y="820" type="line"/>
      <point x="1084" y="816" type="line"/>
      <point x="929" y="462" type="line"/>
      <point x="933" y="462" type="line"/>
      <point x="974" y="509"/>
      <point x="1042" y="540"/>
      <point x="1104" y="540" type="curve" smooth="yes"/>
      <point x="1165" y="540"/>
      <point x="1198" y="513"/>
      <point x="1198" y="465" type="curve" smooth="yes"/>
      <point x="1198" y="389"/>
      <point x="1078" y="293"/>
      <point x="935" y="254" type="curve"/>
      <point x="1003" y="111" type="line" smooth="yes"/>
      <point x="1031" y="53"/>
      <point x="1044" y="33"/>
      <point x="1065" y="33" type="curve" smooth="yes"/>
      <point x="1086" y="33"/>
      <point x="1109" y="49"/>
      <point x="1133" y="80" type="curve"/>
      <point x="1153" y="69" type="line"/>
      <point x="1127" y="24"/>
      <point x="1072" y="-10"/>
      <point x="1023" y="-10" type="curve" smooth="yes"/>
      <point x="975" y="-10"/>
      <point x="941" y="21"/>
      <point x="908" y="90" type="curve" smooth="yes"/>
      <point x="839" y="235" type="line"/>
      <point x="831" y="235" type="line"/>
      <point x="736" y="0" type="line" name="hr01"/>
      <point x="638" y="0" type="line"/>
      <point x="907" y="646" type="line" smooth="yes"/>
      <point x="916" y="669"/>
      <point x="923" y="696"/>
      <point x="923" y="722" type="curve" smooth="yes"/>
      <point x="923" y="765"/>
      <point x="905" y="803"/>
      <point x="857" y="803" type="curve" smooth="yes"/>
      <point x="788" y="803"/>
      <point x="733" y="739"/>
      <point x="674" y="590" type="curve" smooth="yes"/>
      <point x="650" y="530" type="line"/>
      <point x="748" y="530" type="line"/>
      <point x="735" y="498" type="line"/>
      <point x="638" y="498" type="line"/>
      <point x="511" y="203" type="line" smooth="yes"/>
      <point x="374" y="-115"/>
      <point x="252" y="-256"/>
      <point x="114" y="-256" type="curve" smooth="yes"/>
      <point x="48" y="-256"/>
      <point x="3" y="-223"/>
      <point x="3" y="-176" type="curve" smooth="yes"/>
      <point x="3" y="-148"/>
      <point x="19" y="-132"/>
      <point x="49" y="-132" type="curve" smooth="yes"/>
      <point x="119" y="-132"/>
      <point x="89" y="-221"/>
      <point x="142" y="-221" type="curve" smooth="yes" name="hr02"/>
      <point x="204" y="-221"/>
      <point x="287" y="-97"/>
      <point x="384" y="143" type="curve" smooth="yes"/>
      <point x="528" y="498" type="line"/>
      <point x="293" y="498" type="line"/>
      <point x="166" y="203" type="line" smooth="yes"/>
      <point x="29" y="-115"/>
      <point x="-93" y="-256"/>
      <point x="-231" y="-256" type="curve" smooth="yes"/>
      <point x="-297" y="-256"/>
      <point x="-342" y="-223"/>
      <point x="-342" y="-176" type="curve" smooth="yes"/>
      <point x="-342" y="-148"/>
      <point x="-326" y="-132"/>
      <point x="-296" y="-132" type="curve" smooth="yes" name="hr03"/>
      <point x="-226" y="-132"/>
      <point x="-256" y="-221"/>
      <point x="-203" y="-221" type="curve" smooth="yes" name="hr04"/>
      <point x="-141" y="-221"/>
      <point x="-58" y="-96"/>
      <point x="39" y="143" type="curve" smooth="yes"/>
      <point x="183" y="498" type="line"/>
      <point x="95" y="498" type="line"/>
      <point x="107" y="530" type="line"/>
      <point x="196" y="530" type="line"/>
      <point x="205" y="550" type="line" smooth="yes"/>
      <point x="270" y="693"/>
      <point x="388" y="780"/>
      <point x="515" y="780" type="curve" smooth="yes"/>
      <point x="574" y="780"/>
      <point x="625" y="761"/>
      <point x="655" y="732" type="curve"/>
      <point x="712" y="795"/>
      <point x="781" y="830"/>
    </contour>
    <contour>
      <point x="522" y="751" type="curve" smooth="yes"/>
      <point x="437" y="751"/>
      <point x="368" y="682"/>
      <point x="309" y="540" type="curve" smooth="yes" name="hr05"/>
      <point x="305" y="530" type="line" name="hr06"/>
      <point x="541" y="530" type="line"/>
      <point x="572" y="600" type="line" smooth="yes"/>
      <point x="581" y="620"/>
      <point x="590" y="639"/>
      <point x="601" y="657" type="curve"/>
      <point x="601" y="719"/>
      <point x="576" y="751"/>
    </contour>
    <contour>
      <point x="966" y="453" type="curve" smooth="yes"/>
      <point x="917" y="410"/>
      <point x="881" y="357"/>
      <point x="847" y="268" type="curve"/>
      <point x="980" y="276"/>
      <point x="1097" y="367"/>
      <point x="1097" y="456" type="curve" smooth="yes"/>
      <point x="1097" y="483"/>
      <point x="1084" y="496"/>
      <point x="1059" y="496" type="curve" smooth="yes" name="hr07"/>
      <point x="1029" y="496"/>
      <point x="999" y="481"/>
    </contour>
  </outline>
</glyph>
<glyph name="f_f_t" format="1">
  <advance width="1034"/>
  <outline>
    <contour>
      <point x="862" y="830" type="curve" smooth="yes"/>
      <point x="934" y="830"/>
      <point x="996" y="793"/>
      <point x="996" y="746" type="curve" smooth="yes"/>
      <point x="996" y="717"/>
      <point x="978" y="698"/>
      <point x="948" y="698" type="curve" smooth="yes"/>
      <point x="922" y="698"/>
      <point x="901" y="716"/>
      <point x="901" y="742" type="curve" smooth="yes"/>
      <point x="901" y="757"/>
      <point x="908" y="766"/>
      <point x="908" y="778" type="curve" smooth="yes"/>
      <point x="908" y="795"/>
      <point x="887" y="803"/>
      <point x="857" y="803" type="curve" smooth="yes" name="hr01"/>
      <point x="791" y="803"/>
      <point x="734" y="739"/>
      <point x="674" y="590" type="curve" smooth="yes"/>
      <point x="650" y="530" type="line"/>
      <point x="892" y="530" type="line"/>
      <point x="926" y="608" type="line"/>
      <point x="1033" y="618" type="line"/>
      <point x="995" y="530" type="line"/>
      <point x="1083" y="530" type="line"/>
      <point x="1072" y="498" type="line"/>
      <point x="981" y="498" type="line"/>
      <point x="899" y="305" type="line" smooth="yes"/>
      <point x="813" y="104"/>
      <point x="805" y="87"/>
      <point x="805" y="73" type="curve" smooth="yes"/>
      <point x="805" y="58"/>
      <point x="812" y="49"/>
      <point x="827" y="49" type="curve" smooth="yes"/>
      <point x="847" y="49"/>
      <point x="877" y="73"/>
      <point x="931" y="129" type="curve"/>
      <point x="951" y="117" type="line"/>
      <point x="887" y="36"/>
      <point x="816" y="-10"/>
      <point x="758" y="-10" type="curve" smooth="yes"/>
      <point x="718" y="-10"/>
      <point x="705" y="9"/>
      <point x="705" y="53" type="curve" smooth="yes"/>
      <point x="705" y="81"/>
      <point x="714" y="115"/>
      <point x="774" y="255" type="curve" smooth="yes"/>
      <point x="878" y="498" type="line"/>
      <point x="638" y="498" type="line"/>
      <point x="511" y="203" type="line" smooth="yes"/>
      <point x="374" y="-116"/>
      <point x="252" y="-256"/>
      <point x="112" y="-256" type="curve" smooth="yes"/>
      <point x="45" y="-256"/>
      <point x="3" y="-222"/>
      <point x="3" y="-173" type="curve" smooth="yes"/>
      <point x="3" y="-147"/>
      <point x="21" y="-132"/>
      <point x="50" y="-132" type="curve" smooth="yes"/>
      <point x="118" y="-132"/>
      <point x="89" y="-221"/>
      <point x="142" y="-221" type="curve" smooth="yes" name="hr02"/>
      <point x="195" y="-221"/>
      <point x="274" y="-129"/>
      <point x="384" y="143" type="curve" smooth="yes"/>
      <point x="528" y="498" type="line"/>
      <point x="293" y="498" type="line"/>
      <point x="166" y="203" type="line" smooth="yes"/>
      <point x="29" y="-115"/>
      <point x="-93" y="-256"/>
      <point x="-231" y="-256" type="curve" smooth="yes"/>
      <point x="-297" y="-256"/>
      <point x="-342" y="-223"/>
      <point x="-342" y="-176" type="curve" smooth="yes"/>
      <point x="-342" y="-148"/>
      <point x="-326" y="-132"/>
      <point x="-296" y="-132" type="curve" smooth="yes" name="hr03"/>
      <point x="-226" y="-132"/>
      <point x="-256" y="-221"/>
      <point x="-203" y="-221" type="curve" smooth="yes" name="hr04"/>
      <point x="-141" y="-221"/>
      <point x="-58" y="-96"/>
      <point x="39" y="143" type="curve" smooth="yes"/>
      <point x="183" y="498" type="line"/>
      <point x="95" y="498" type="line"/>
      <point x="107" y="530" type="line"/>
      <point x="196" y="530" type="line"/>
      <point x="205" y="550" type="line" smooth="yes"/>
      <point x="270" y="693"/>
      <point x="388" y="780"/>
      <point x="515" y="780" type="curve" smooth="yes"/>
      <point x="574" y="780"/>
      <point x="625" y="761"/>
      <point x="654" y="732" type="curve"/>
      <point x="717" y="802"/>
      <point x="790" y="830"/>
    </contour>
    <contour>
      <point x="522" y="751" type="curve" smooth="yes" name="hr06"/>
      <point x="437" y="751"/>
      <point x="368" y="682"/>
      <point x="309" y="540" type="curve" smooth="yes"/>
      <point x="305" y="530" type="line"/>
      <point x="541" y="530" type="line"/>
      <point x="572" y="600" type="line" smooth="yes"/>
      <point x="581" y="620"/>
      <point x="591" y="639"/>
      <point x="601" y="657" type="curve"/>
      <point x="601" y="719"/>
      <point x="576" y="751"/>
    </contour>
  </outline>
</glyph>
<glyph name="f_h" format="1">
  <advance width="925"/>
  <outline>
    <contour>
      <point x="509" y="830" type="curve" smooth="yes"/>
      <point x="558" y="830"/>
      <point x="598" y="814"/>
      <point x="623" y="790" type="curve"/>
      <point x="734" y="820" type="line"/>
      <point x="738" y="816" type="line"/>
      <point x="546" y="382" type="line"/>
      <point x="551" y="380" type="line"/>
      <point x="635" y="493"/>
      <point x="700" y="539"/>
      <point x="774" y="539" type="curve" smooth="yes"/>
      <point x="831" y="539"/>
      <point x="867" y="512"/>
      <point x="867" y="458" type="curve" smooth="yes"/>
      <point x="867" y="434"/>
      <point x="860" y="401"/>
      <point x="840" y="360" type="curve" smooth="yes"/>
      <point x="723" y="121" type="line" smooth="yes"/>
      <point x="710" y="94"/>
      <point x="703" y="76"/>
      <point x="703" y="64" type="curve" smooth="yes"/>
      <point x="703" y="54"/>
      <point x="709" y="49"/>
      <point x="718" y="49" type="curve" smooth="yes"/>
      <point x="740" y="49"/>
      <point x="784" y="85"/>
      <point x="832" y="139" type="curve"/>
      <point x="853" y="124" type="line"/>
      <point x="785" y="36"/>
      <point x="717" y="-10"/>
      <point x="653" y="-10" type="curve" smooth="yes"/>
      <point x="612" y="-10"/>
      <point x="595" y="9"/>
      <point x="595" y="45" type="curve" smooth="yes"/>
      <point x="595" y="76"/>
      <point x="607" y="112"/>
      <point x="630" y="158" type="curve" smooth="yes"/>
      <point x="764" y="427" type="line" smooth="yes"/>
      <point x="773" y="445"/>
      <point x="778" y="463"/>
      <point x="778" y="477" type="curve" smooth="yes"/>
      <point x="778" y="495"/>
      <point x="768" y="505"/>
      <point x="749" y="505" type="curve" smooth="yes"/>
      <point x="681" y="505"/>
      <point x="562" y="371"/>
      <point x="479" y="194" type="curve" smooth="yes"/>
      <point x="388" y="0" type="line" name="hr01"/>
      <point x="295" y="0" type="line"/>
      <point x="565" y="654" type="line" smooth="yes"/>
      <point x="573" y="674"/>
      <point x="576" y="694"/>
      <point x="576" y="717" type="curve" smooth="yes"/>
      <point x="576" y="761"/>
      <point x="559" y="803"/>
      <point x="512" y="803" type="curve" smooth="yes"/>
      <point x="444" y="803"/>
      <point x="390" y="743"/>
      <point x="329" y="590" type="curve" smooth="yes"/>
      <point x="305" y="530" type="line"/>
      <point x="403" y="530" type="line"/>
      <point x="390" y="498" type="line"/>
      <point x="293" y="498" type="line"/>
      <point x="166" y="203" type="line" smooth="yes"/>
      <point x="29" y="-115"/>
      <point x="-93" y="-256"/>
      <point x="-231" y="-256" type="curve" smooth="yes"/>
      <point x="-297" y="-256"/>
      <point x="-342" y="-223"/>
      <point x="-342" y="-176" type="curve" smooth="yes"/>
      <point x="-342" y="-148"/>
      <point x="-326" y="-132"/>
      <point x="-296" y="-132" type="curve" smooth="yes"/>
      <point x="-226" y="-132"/>
      <point x="-256" y="-221"/>
      <point x="-203" y="-221" type="curve" smooth="yes" name="hr02"/>
      <point x="-141" y="-221"/>
      <point x="-58" y="-97"/>
      <point x="39" y="143" type="curve" smooth="yes"/>
      <point x="183" y="498" type="line"/>
      <point x="95" y="498" type="line"/>
      <point x="107" y="530" type="line"/>
      <point x="196" y="530" type="line"/>
      <point x="227" y="600" type="line" smooth="yes"/>
      <point x="292" y="747"/>
      <point x="397" y="830"/>
    </contour>
  </outline>
</glyph>
<glyph name="f_j" format="1">
  <advance width="640"/>
  <outline>
    <contour>
      <point x="305" y="530" type="line"/>
      <point x="329" y="590" type="line" smooth="yes"/>
      <point x="387" y="736"/>
      <point x="449" y="803"/>
      <point x="524" y="803" type="curve" smooth="yes"/>
      <point x="559" y="803"/>
      <point x="583" y="789"/>
      <point x="583" y="768" type="curve" smooth="yes"/>
      <point x="583" y="752"/>
      <point x="571" y="743"/>
      <point x="571" y="720" type="curve" smooth="yes"/>
      <point x="571" y="687"/>
      <point x="596" y="663"/>
      <point x="629" y="663" type="curve" smooth="yes" name="hr01"/>
      <point x="662" y="663"/>
      <point x="686" y="688"/>
      <point x="686" y="724" type="curve" smooth="yes"/>
      <point x="686" y="784"/>
      <point x="616" y="830"/>
      <point x="524" y="830" type="curve" smooth="yes"/>
      <point x="399" y="830"/>
      <point x="291" y="747"/>
      <point x="227" y="600" type="curve" smooth="yes"/>
      <point x="196" y="530" type="line"/>
      <point x="107" y="530" type="line"/>
      <point x="95" y="498" type="line"/>
      <point x="183" y="498" type="line"/>
      <point x="39" y="143" type="line" smooth="yes"/>
      <point x="-58" y="-96"/>
      <point x="-141" y="-221"/>
      <point x="-203" y="-221" type="curve" smooth="yes"/>
      <point x="-256" y="-221"/>
      <point x="-226" y="-132"/>
      <point x="-296" y="-132" type="curve" smooth="yes" name="hr02"/>
      <point x="-326" y="-132"/>
      <point x="-342" y="-148"/>
      <point x="-342" y="-176" type="curve" smooth="yes"/>
      <point x="-342" y="-223"/>
      <point x="-297" y="-256"/>
      <point x="-231" y="-256" type="curve" smooth="yes"/>
      <point x="-93" y="-256"/>
      <point x="29" y="-115"/>
      <point x="166" y="203" type="curve" smooth="yes"/>
      <point x="293" y="498" type="line"/>
      <point x="478" y="498" type="line" smooth="yes"/>
      <point x="504" y="498"/>
      <point x="511" y="489"/>
      <point x="511" y="479" type="curve" smooth="yes"/>
      <point x="511" y="458"/>
      <point x="496" y="419"/>
      <point x="431" y="252" type="curve" smooth="yes"/>
      <point x="321" y="-28" type="line" smooth="yes"/>
      <point x="263" y="-176"/>
      <point x="229" y="-221"/>
      <point x="189" y="-221" type="curve" smooth="yes" name="hr03"/>
      <point x="125" y="-221"/>
      <point x="159" y="-132"/>
      <point x="89" y="-132" type="curve" smooth="yes" name="hr04"/>
      <point x="58" y="-132"/>
      <point x="43" y="-149"/>
      <point x="43" y="-179" type="curve" smooth="yes"/>
      <point x="43" y="-226"/>
      <point x="92" y="-256"/>
      <point x="160" y="-256" type="curve" smooth="yes"/>
      <point x="259" y="-256"/>
      <point x="337" y="-194"/>
      <point x="388" y="-81" type="curve" smooth="yes"/>
      <point x="515" y="203" type="line" smooth="yes"/>
      <point x="586" y="361"/>
      <point x="617" y="456"/>
      <point x="618" y="492" type="curve" smooth="yes"/>
      <point x="618" y="522"/>
      <point x="604" y="540"/>
      <point x="575" y="540" type="curve" smooth="yes"/>
      <point x="546" y="540"/>
      <point x="516" y="530"/>
      <point x="476" y="530" type="curve" smooth="yes" name="hr05"/>
    </contour>
  </outline>
</glyph>
<glyph name="five.denominator" format="1">
  <advance width="340"/>
  <outline>
    <contour>
      <point x="100" y="442" type="line"/>
      <point x="239" y="442" type="line"/>
      <point x="254" y="466" type="line"/>
      <point x="277" y="462" type="line"/>
      <point x="245" y="363" type="line"/>
      <point x="112" y="363" type="line"/>
      <point x="83" y="281" type="line"/>
      <point x="94" y="283"/>
      <point x="113" y="285"/>
      <point x="128" y="285" type="curve" smooth="yes"/>
      <point x="206" y="285"/>
      <point x="250" y="234"/>
      <point x="250" y="159" type="curve" smooth="yes"/>
      <point x="250" y="67"/>
      <point x="158" y="-10"/>
      <point x="45" y="-10" type="curve" smooth="yes"/>
      <point x="-11" y="-10"/>
      <point x="-48" y="11"/>
      <point x="-48" y="43" type="curve" smooth="yes"/>
      <point x="-48" y="64"/>
      <point x="-35" y="78"/>
      <point x="-13" y="78" type="curve" smooth="yes"/>
      <point x="27" y="78"/>
      <point x="11" y="22"/>
      <point x="66" y="22" type="curve" smooth="yes"/>
      <point x="123" y="22"/>
      <point x="173" y="76"/>
      <point x="173" y="133" type="curve" smooth="yes"/>
      <point x="173" y="185"/>
      <point x="147" y="212"/>
      <point x="104" y="212" type="curve" smooth="yes"/>
      <point x="75" y="212"/>
      <point x="52" y="209"/>
      <point x="35" y="204" type="curve"/>
      <point x="23" y="222" type="line"/>
    </contour>
  </outline>
</glyph>
<glyph name="five.tnum" format="1">
  <advance width="600"/>
  <outline>
    <contour>
      <point x="201" y="757" type="line"/>
      <point x="453" y="757" type="line"/>
      <point x="479" y="797" type="line"/>
      <point x="501" y="790" type="line"/>
      <point x="462" y="667" type="line"/>
      <point x="212" y="667" type="line"/>
      <point x="145" y="476" type="line"/>
      <point x="170" y="480"/>
      <point x="211" y="483"/>
      <point x="246" y="483" type="curve" smooth="yes"/>
      <point x="368" y="483"/>
      <point x="440" y="414"/>
      <point x="440" y="298" type="curve" smooth="yes"/>
      <point x="440" y="130"/>
      <point x="290" y="-10"/>
      <point x="108" y="-10" type="curve" smooth="yes"/>
      <point x="17" y="-10"/>
      <point x="-43" y="25"/>
      <point x="-43" y="79" type="curve" smooth="yes"/>
      <point x="-43" y="110"/>
      <point x="-23" y="131"/>
      <point x="9" y="131" type="curve" smooth="yes"/>
      <point x="77" y="131"/>
      <point x="49" y="34"/>
      <point x="143" y="34" type="curve" smooth="yes"/>
      <point x="240" y="34"/>
      <point x="324" y="138"/>
      <point x="324" y="256" type="curve" smooth="yes"/>
      <point x="324" y="342"/>
      <point x="280" y="388"/>
      <point x="192" y="388" type="curve" smooth="yes"/>
      <point x="150" y="388"/>
      <point x="109" y="381"/>
      <point x="81" y="372" type="curve"/>
      <point x="69" y="382" type="line"/>
    </contour>
  </outline>
</glyph>
<glyph name="four.denominator" format="1">
  <advance width="361"/>
  <outline>
    <contour>
      <point x="116" y="120" type="line"/>
      <point x="-51" y="120" type="line"/>
      <point x="-37" y="161" type="line"/>
      <point x="234" y="459" type="line"/>
      <point x="312" y="459" type="line"/>
      <point x="213" y="178" type="line"/>
      <point x="273" y="178" type="line"/>
      <point x="253" y="120" type="line"/>
      <point x="192" y="120" type="line"/>
      <point x="155" y="0" type="line"/>
      <point x="73" y="0" type="line"/>
    </contour>
    <contour>
      <point x="137" y="178" type="line"/>
      <point x="207" y="377" type="line"/>
      <point x="203" y="377" type="line"/>
      <point x="24" y="178" type="line"/>
    </contour>
  </outline>
</glyph>
<glyph name="multiply.tnum" format="1">
  <advance width="600"/>
  <outline>
    <contour>
      <point x="122" y="199" type="line"/>
      <point x="161" y="160" type="line"/>
      <point x="302" y="301" type="line"/>
      <point x="441" y="162" type="line"/>
      <point x="478" y="199" type="line"/>
      <point x="339" y="338" type="line"/>
      <point x="479" y="478" type="line"/>
      <point x="440" y="517" type="line"/>
      <point x="300" y="377" type="line"/>
      <point x="160" y="517" type="line"/>
      <point x="123" y="480" type="line"/>
      <point x="263" y="340" type="line"/>
    </contour>
  </outline>
</glyph>
<glyph name="nine.numerator" format="1">
  <advance width="380"/>
  <outline>
    <contour>
      <point x="146" y="345" type="line"/>
      <point x="217" y="372"/>
      <point x="284" y="428"/>
      <point x="329" y="495" type="curve"/>
      <point x="326" y="497" type="line"/>
      <point x="306" y="486"/>
      <point x="282" y="480"/>
      <point x="256" y="480" type="curve" smooth="yes"/>
      <point x="196" y="480"/>
      <point x="162" y="511"/>
      <point x="162" y="570" type="curve" smooth="yes"/>
      <point x="162" y="673"/>
      <point x="267" y="780"/>
      <point x="370" y="780" type="curve" smooth="yes"/>
      <point x="433" y="780"/>
      <point x="467" y="739"/>
      <point x="467" y="661" type="curve" smooth="yes"/>
      <point x="467" y="509"/>
      <point x="344" y="372"/>
      <point x="157" y="317" type="curve"/>
    </contour>
    <contour>
      <point x="357" y="747" type="curve" smooth="yes"/>
      <point x="305" y="747"/>
      <point x="247" y="658"/>
      <point x="247" y="577" type="curve" smooth="yes"/>
      <point x="247" y="538"/>
      <point x="262" y="518"/>
      <point x="293" y="518" type="curve" smooth="yes"/>
      <point x="350" y="518"/>
      <point x="397" y="593"/>
      <point x="397" y="684" type="curve" smooth="yes"/>
      <point x="397" y="728"/>
      <point x="385" y="747"/>
    </contour>
  </outline>
</glyph>
<glyph name="quotesingle.tnum" format="1">
  <advance width="300"/>
  <outline>
    <contour>
      <point x="118" y="545" type="line"/>
      <point x="167" y="681"/>
      <point x="234" y="742"/>
      <point x="234" y="795" type="curve" smooth="yes"/>
      <point x="234" y="816"/>
      <point x="222" y="830"/>
      <point x="196" y="830" type="curve" smooth="yes"/>
      <point x="163" y="830"/>
      <point x="135" y="807"/>
      <point x="123" y="770" type="curve" smooth="yes"/>
      <point x="108" y="722"/>
      <point x="124" y="665"/>
      <point x="88" y="545" type="curve"/>
    </contour>
  </outline>
</glyph>
<glyph name="s_p" format="1">
  <advance width="971"/>
  <outline>
    <contour>
      <point x="705" y="683" type="line" smooth="yes"/>
      <point x="705" y="679"/>
      <point x="705" y="675"/>
      <point x="704" y="671" type="curve"/>
      <point x="684" y="661"/>
      <point x="658" y="655"/>
      <point x="632" y="655" type="curve" smooth="yes"/>
      <point x="532" y="655"/>
      <point x="457" y="744"/>
      <point x="357" y="744" type="curve" smooth="yes"/>
      <point x="295" y="744"/>
      <point x="257" y="709"/>
      <point x="257" y="652" type="curve" smooth="yes"/>
      <point x="257" y="597"/>
      <point x="292" y="546"/>
      <point x="357" y="504" type="curve"/>
      <point x="383" y="516" type="line"/>
      <point x="330" y="553"/>
      <point x="313" y="575"/>
      <point x="313" y="610" type="curve" smooth="yes"/>
      <point x="313" y="655"/>
      <point x="344" y="680"/>
      <point x="399" y="680" type="curve" smooth="yes"/>
      <point x="477" y="680"/>
      <point x="521" y="625"/>
      <point x="618" y="625" type="curve" smooth="yes"/>
      <point x="646" y="625"/>
      <point x="672" y="629"/>
      <point x="695" y="637" type="curve"/>
      <point x="681" y="604"/>
      <point x="652" y="570"/>
      <point x="608" y="533" type="curve"/>
      <point x="562" y="525"/>
      <point x="518" y="508"/>
      <point x="484" y="486" type="curve"/>
      <point x="492" y="466" type="line"/>
      <point x="515" y="482"/>
      <point x="550" y="494"/>
      <point x="597" y="503" type="curve"/>
      <point x="287" y="-223" type="line"/>
      <point x="207" y="-235" type="line"/>
      <point x="207" y="-250" type="line"/>
      <point x="493" y="-250" type="line"/>
      <point x="493" y="-232" type="line"/>
      <point x="391" y="-220" type="line"/>
      <point x="488" y="13" type="line"/>
      <point x="503" y="11"/>
      <point x="522" y="10"/>
      <point x="539" y="10" type="curve" smooth="yes"/>
      <point x="736" y="10"/>
      <point x="920" y="170"/>
      <point x="920" y="342" type="curve" smooth="yes"/>
      <point x="920" y="453"/>
      <point x="843" y="525"/>
      <point x="707" y="540" type="curve"/>
      <point x="761" y="683" type="line"/>
      <point x="776" y="702"/>
      <point x="783" y="722"/>
      <point x="783" y="742" type="curve" smooth="yes"/>
      <point x="783" y="766"/>
      <point x="771" y="780"/>
      <point x="749" y="780" type="curve" smooth="yes"/>
      <point x="721" y="780"/>
      <point x="705" y="759"/>
      <point x="705" y="721" type="curve" smooth="yes"/>
    </contour>
    <contour>
      <point x="689" y="497" type="line" smooth="yes"/>
      <point x="692" y="505"/>
      <point x="698" y="508"/>
      <point x="713" y="508" type="curve" smooth="yes"/>
      <point x="776" y="508"/>
      <point x="816" y="453"/>
      <point x="816" y="366" type="curve" smooth="yes"/>
      <point x="816" y="200"/>
      <point x="673" y="39"/>
      <point x="525" y="39" type="curve" smooth="yes"/>
      <point x="508" y="39"/>
      <point x="505" y="39"/>
      <point x="499" y="40" type="curve"/>
    </contour>
    <component base="s"/>
  </outline>
</glyph>
<glyph name="section.tnum" format="1">
  <advance width="600"/>
  <outline>
    <contour>
      <point x="304" y="486" type="curve"/>
      <point x="190" y="486"/>
      <point x="108" y="415"/>
      <point x="108" y="321" type="curve" smooth="yes"/>
      <point x="108" y="170"/>
      <point x="303" y="92"/>
      <point x="303" y="-32" type="curve" smooth="yes"/>
      <point x="303" y="-86"/>
      <point x="264" y="-125"/>
      <point x="210" y="-125" type="curve" smooth="yes"/>
      <point x="166" y="-125"/>
      <point x="136" y="-100"/>
      <point x="113" y="-41" type="curve" smooth="yes"/>
      <point x="99" y="-6"/>
      <point x="81" y="9"/>
      <point x="56" y="9" type="curve" smooth="yes"/>
      <point x="28" y="9"/>
      <point x="9" y="-9"/>
      <point x="9" y="-36" type="curve" smooth="yes"/>
      <point x="9" y="-97"/>
      <point x="119" y="-160"/>
      <point x="220" y="-160" type="curve" smooth="yes"/>
      <point x="326" y="-160"/>
      <point x="407" y="-91"/>
      <point x="407" y="-3" type="curve" smooth="yes"/>
      <point x="407" y="68"/>
      <point x="355" y="126"/>
      <point x="304" y="184" type="curve"/>
      <point x="310" y="183"/>
      <point x="317" y="183"/>
      <point x="324" y="183" type="curve" smooth="yes"/>
      <point x="430" y="183"/>
      <point x="512" y="252"/>
      <point x="512" y="340" type="curve" smooth="yes"/>
      <point x="512" y="475"/>
      <point x="319" y="562"/>
      <point x="319" y="701" type="curve" smooth="yes"/>
      <point x="319" y="758"/>
      <point x="356" y="795"/>
      <point x="414" y="795" type="curve" smooth="yes"/>
      <point x="445" y="795"/>
      <point x="466" y="779"/>
      <point x="484" y="731" type="curve" smooth="yes"/>
      <point x="497" y="697"/>
      <point x="514" y="680"/>
      <point x="540" y="680" type="curve" smooth="yes"/>
      <point x="568" y="680"/>
      <point x="587" y="698"/>
      <point x="587" y="724" type="curve" smooth="yes"/>
      <point x="587" y="777"/>
      <point x="495" y="830"/>
      <point x="405" y="830" type="curve" smooth="yes"/>
      <point x="294" y="830"/>
      <point x="213" y="758"/>
      <point x="213" y="664" type="curve" smooth="yes"/>
      <point x="213" y="593"/>
      <point x="257" y="538"/>
    </contour>
    <contour>
      <point x="409" y="312" type="curve" smooth="yes"/>
      <point x="409" y="258"/>
      <point x="369" y="218"/>
      <point x="314" y="218" type="curve" smooth="yes"/>
      <point x="294" y="218"/>
      <point x="278" y="223"/>
      <point x="263" y="234" type="curve"/>
      <point x="235" y="272"/>
      <point x="215" y="312"/>
      <point x="215" y="359" type="curve" smooth="yes"/>
      <point x="215" y="415"/>
      <point x="253" y="451"/>
      <point x="310" y="451" type="curve" smooth="yes"/>
      <point x="321" y="451"/>
      <point x="331" y="450"/>
      <point x="339" y="447" type="curve"/>
      <point x="377" y="404"/>
      <point x="409" y="361"/>
    </contour>
  </outline>
</glyph>
<glyph name="semicolon.tnum" format="1">
  <advance width="300"/>
  <outline>
    <contour>
      <point x="225" y="501" type="curve" smooth="yes"/>
      <point x="265" y="501"/>
      <point x="300" y="473"/>
      <point x="300" y="436" type="curve" smooth="yes"/>
      <point x="300" y="394"/>
      <point x="256" y="354"/>
      <point x="212" y="354" type="curve" smooth="yes"/>
      <point x="167" y="354"/>
      <point x="139" y="381"/>
      <point x="139" y="421" type="curve" smooth="yes"/>
      <point x="139" y="465"/>
      <point x="180" y="501"/>
    </contour>
    <contour>
      <point x="77" y="0" type="curve" smooth="yes"/>
      <point x="39" y="7"/>
      <point x="20" y="28"/>
      <point x="20" y="64" type="curve" smooth="yes"/>
      <point x="20" y="109"/>
      <point x="50" y="137"/>
      <point x="96" y="137" type="curve" smooth="yes"/>
      <point x="147" y="137"/>
      <point x="176" y="104"/>
      <point x="176" y="45" type="curve" smooth="yes"/>
      <point x="176" y="-36"/>
      <point x="123" y="-116"/>
      <point x="21" y="-186" type="curve"/>
      <point x="3" y="-165" type="line"/>
      <point x="61" y="-123"/>
      <point x="112" y="-55"/>
      <point x="112" y="-21" type="curve" smooth="yes"/>
      <point x="112" y="-8"/>
      <point x="109" y="-6"/>
    </contour>
  </outline>
</glyph>
<glyph name="six.numerator" format="1">
  <advance width="379"/>
  <outline>
    <contour>
      <point x="443" y="749" type="line"/>
      <point x="372" y="722"/>
      <point x="305" y="666"/>
      <point x="260" y="599" type="curve"/>
      <point x="263" y="597" type="line"/>
      <point x="283" y="608"/>
      <point x="307" y="614"/>
      <point x="333" y="614" type="curve" smooth="yes"/>
      <point x="393" y="614"/>
      <point x="427" y="583"/>
      <point x="427" y="524" type="curve" smooth="yes"/>
      <point x="427" y="421"/>
      <point x="322" y="314"/>
      <point x="219" y="314" type="curve" smooth="yes"/>
      <point x="156" y="314"/>
      <point x="122" y="355"/>
      <point x="122" y="433" type="curve" smooth="yes"/>
      <point x="122" y="585"/>
      <point x="245" y="722"/>
      <point x="432" y="777" type="curve"/>
    </contour>
    <contour>
      <point x="232" y="347" type="curve" smooth="yes"/>
      <point x="284" y="347"/>
      <point x="342" y="436"/>
      <point x="342" y="517" type="curve" smooth="yes"/>
      <point x="342" y="556"/>
      <point x="327" y="576"/>
      <point x="296" y="576" type="curve" smooth="yes"/>
      <point x="239" y="576"/>
      <point x="192" y="501"/>
      <point x="192" y="410" type="curve" smooth="yes"/>
      <point x="192" y="366"/>
      <point x="204" y="347"/>
    </contour>
  </outline>
</glyph>
